<svg xmlns="http://www.w3.org/2000/svg" width="102" height="101.999" viewBox="0 0 102 101.999">
  <g id="Technical_SEO" data-name="Technical SEO" transform="translate(1 0.998)">
    <g id="Group_37611" data-name="Group 37611" transform="translate(0 0.002)">
      <g id="Group_37610" data-name="Group 37610" transform="translate(0 0)">
        <path id="Path_9082" data-name="Path 9082" d="M98.551,40.481l-8.918-.827a40.64,40.64,0,0,0-4.332-10.4l5.722-6.892a1.6,1.6,0,0,0-.1-2.148L79.747,9.038a1.6,1.6,0,0,0-2.148-.1L70.7,14.67A40.628,40.628,0,0,0,60.29,10.354l-.825-8.9A1.6,1.6,0,0,0,57.876,0H42.069A1.6,1.6,0,0,0,40.48,1.45l-.827,8.918a40.646,40.646,0,0,0-10.4,4.332L22.361,8.978a1.6,1.6,0,0,0-2.148.1L9.036,20.255a1.6,1.6,0,0,0-.1,2.148l5.732,6.9a40.633,40.633,0,0,0-4.316,10.406l-8.9.826A1.6,1.6,0,0,0,0,42.126V57.877a1.6,1.6,0,0,0,1.448,1.589l8.9.826A40.631,40.631,0,0,0,14.669,70.7L8.937,77.6a1.6,1.6,0,0,0,.1,2.148L20.214,90.926a1.6,1.6,0,0,0,2.148.1L29.253,85.3a40.626,40.626,0,0,0,10.4,4.332l.827,8.918A1.6,1.6,0,0,0,42.069,100H57.876a1.6,1.6,0,0,0,1.589-1.448l.826-8.9A40.628,40.628,0,0,0,70.7,85.333l6.9,5.732a1.6,1.6,0,0,0,2.148-.1L90.925,79.787a1.6,1.6,0,0,0,.1-2.148L85.3,70.748a40.625,40.625,0,0,0,4.332-10.4l8.918-.827A1.6,1.6,0,0,0,100,57.933V42.07A1.6,1.6,0,0,0,98.551,40.481Zm-1.743,16-8.6.8a1.6,1.6,0,0,0-1.407,1.23,37.47,37.47,0,0,1-4.806,11.537,1.6,1.6,0,0,0,.123,1.869l5.521,6.649-9.12,9.12L71.86,82.15a1.6,1.6,0,0,0-1.867-.124A37.473,37.473,0,0,1,58.45,86.814a1.6,1.6,0,0,0-1.232,1.408l-.8,8.588h-12.9l-.8-8.6A1.6,1.6,0,0,0,41.5,86.8,37.471,37.471,0,0,1,29.959,82a1.6,1.6,0,0,0-1.869.123l-6.649,5.521-9.12-9.12,5.529-6.659a1.6,1.6,0,0,0,.124-1.867,37.468,37.468,0,0,1-4.788-11.543,1.6,1.6,0,0,0-1.408-1.232l-8.588-.8V43.581l8.588-.8a1.6,1.6,0,0,0,1.408-1.232,37.468,37.468,0,0,1,4.788-11.543,1.6,1.6,0,0,0-.124-1.867l-5.529-6.659,9.12-9.12,6.649,5.521a1.6,1.6,0,0,0,1.869.123A37.468,37.468,0,0,1,41.5,13.2a1.6,1.6,0,0,0,1.23-1.407l.8-8.6h12.9l.8,8.588a1.6,1.6,0,0,0,1.232,1.408,37.473,37.473,0,0,1,11.543,4.788,1.6,1.6,0,0,0,1.867-.124l6.659-5.529,9.12,9.12-5.521,6.649a1.6,1.6,0,0,0-.123,1.869A37.473,37.473,0,0,1,86.8,41.5a1.6,1.6,0,0,0,1.407,1.23l8.6.8V56.478Z" transform="translate(0 -0.002)" fill="none" stroke="#022e47" stroke-width="2"/>
      </g>
    </g>
    <g id="Group_37613" data-name="Group 37613" transform="translate(15.425 15.427)">
      <g id="Group_37612" data-name="Group 37612">
        <path id="Path_9083" data-name="Path 9083" d="M113.553,78.98a34.558,34.558,0,0,0-26.688,56.532,1.6,1.6,0,1,0,2.463-2.03,31.415,31.415,0,1,1,4.3,4.3,1.6,1.6,0,1,0-2.03,2.463A34.568,34.568,0,1,0,113.553,78.98Z" transform="translate(-78.979 -78.98)" fill="#05a8da"/>
      </g>
    </g>
    <g id="Group_37615" data-name="Group 37615" transform="translate(28.191 28.193)">
      <g id="Group_37614" data-name="Group 37614">
        <path id="Path_9084" data-name="Path 9084" d="M166.148,144.342a21.808,21.808,0,1,0,21.808,21.808A21.833,21.833,0,0,0,166.148,144.342Zm0,40.425a18.617,18.617,0,1,1,18.617-18.617A18.638,18.638,0,0,1,166.148,184.767Z" transform="translate(-144.34 -144.342)" fill="#05a8da"/>
      </g>
    </g>
    <g id="Group_37617" data-name="Group 37617" transform="translate(55.717 42.023)">
      <g id="Group_37616" data-name="Group 37616">
        <path id="Path_9085" data-name="Path 9085" d="M286.868,215.151a1.6,1.6,0,0,0-1.6,1.6v3.191a1.6,1.6,0,0,0,3.191,0v-3.191A1.6,1.6,0,0,0,286.868,215.151Z" transform="translate(-285.272 -215.151)" fill="#05a8da"/>
      </g>
    </g>
    <g id="Group_37619" data-name="Group 37619" transform="translate(41.091 42.023)">
      <g id="Group_37618" data-name="Group 37618">
        <path id="Path_9086" data-name="Path 9086" d="M211.984,215.151a1.6,1.6,0,0,0-1.6,1.6v3.191a1.6,1.6,0,0,0,3.191,0v-3.191A1.6,1.6,0,0,0,211.984,215.151Z" transform="translate(-210.388 -215.151)" fill="#05a8da"/>
      </g>
    </g>
    <g id="Group_37621" data-name="Group 37621" transform="translate(41.091 51.597)">
      <g id="Group_37620" data-name="Group 37620">
        <path id="Path_9087" data-name="Path 9087" d="M227.246,264.3a1.6,1.6,0,0,0-2.1.823,6.383,6.383,0,0,1-11.7,0,1.6,1.6,0,1,0-2.924,1.278,9.575,9.575,0,0,0,17.55,0A1.6,1.6,0,0,0,227.246,264.3Z" transform="translate(-210.385 -264.169)" fill="#05a8da"/>
      </g>
    </g>
  </g>
</svg>
