<svg xmlns="http://www.w3.org/2000/svg" width="102" height="96.412" viewBox="0 0 102 96.412">
  <g id="Ecommerce_SEO_Services" data-name="Ecommerce SEO Services" transform="translate(1 -7.382)">
    <path id="Path_9080" data-name="Path 9080" d="M92.962,87.242V40.665a2.5,2.5,0,0,0-2.5-2.5H76.33V27.453a2.5,2.5,0,0,0-2.5-2.5H63.056V21.439a13.056,13.056,0,1,0-26.112,0v3.514H26.17a2.5,2.5,0,0,0-2.5,2.5V38.165H9.538a2.5,2.5,0,0,0-2.5,2.5V87.242A7.172,7.172,0,0,0,0,94.4v1.225a7.175,7.175,0,0,0,7.167,7.167H92.833A7.175,7.175,0,0,0,100,95.628V94.4A7.172,7.172,0,0,0,92.962,87.242ZM26.17,77.905H73.83a2.5,2.5,0,0,0,2.5-2.5V51.7h3.8V86.726H19.867V51.7h3.8V75.4A2.5,2.5,0,0,0,26.17,77.905ZM87.962,43.165V86.726H85.134V49.2a2.5,2.5,0,0,0-2.5-2.5h-6.3V43.165ZM41.944,21.439a8.056,8.056,0,1,1,16.112,0v3.514H41.944ZM28.67,29.953h8.274v4.281a2.5,2.5,0,1,0,5,0V29.953H58.056v4.281a2.5,2.5,0,1,0,5,0V29.953H71.33V72.9H28.67ZM12.038,43.165H23.67V46.7h-6.3a2.5,2.5,0,0,0-2.5,2.5V86.726H12.038V43.165ZM95,95.628a2.169,2.169,0,0,1-2.167,2.167H7.167A2.169,2.169,0,0,1,5,95.628V94.4a2.169,2.169,0,0,1,2.167-2.167H92.833A2.169,2.169,0,0,1,95,94.4Z" transform="translate(0)" fill="none" stroke="#022e47" stroke-width="2"/>
    <path id="Path_9081" data-name="Path 9081" d="M139.447,140.593l-16.218-6.5,6.486,16.259,1.581-4.918,6.538,6.552,3.242-3.251-6.537-6.553Z" transform="translate(-82.153 -83.805)" fill="#05a8da"/>
  </g>
</svg>
