<svg xmlns="http://www.w3.org/2000/svg" width="101.998" height="102" viewBox="0 0 101.998 102">
  <g id="SEO_Consulting_Services" data-name="SEO Consulting Services" transform="translate(-1752 -946)">
    <g id="person-settings-outline-symbol-of-seo-for-interface-svgrepo-com" transform="translate(1752.999 947)">
      <g id="Group_37622" data-name="Group 37622" transform="translate(0.001)">
        <path id="Path_9091" data-name="Path 9091" d="M50,0a50,50,0,1,0,50,50A50,50,0,0,0,50,0Z" transform="translate(-0.001)" fill="none" stroke="#022e47" stroke-width="2"/>
      </g>
    </g>
    <g id="person-settings-outline-symbol-of-seo-for-interface-svgrepo-com-2" data-name="person-settings-outline-symbol-of-seo-for-interface-svgrepo-com" transform="translate(1751.412 945.839)">
      <g id="Group_37623" data-name="Group 37623" transform="translate(22.587 16.161)">
        <path id="Path_9092" data-name="Path 9092" d="M71.254,60.969a1.484,1.484,0,0,1-.913-1.645,15.448,15.448,0,0,0-.094-6.013,1.487,1.487,0,0,1,.864-1.67l1.789-.774a.289.289,0,0,0,.162-.163.31.31,0,0,0,0-.235l-1.272-2.944a.3.3,0,0,0-.279-.184l-1.908.8a1.487,1.487,0,0,1-1.808-.518,15.43,15.43,0,0,0-4.31-4.187,1.487,1.487,0,0,1-.572-1.8l.72-1.81a.3.3,0,0,0-.168-.392l-2.99-1.188c-.208-.019-.34.039-.395.174l-.719,1.817a1.475,1.475,0,0,1-1.647.913,15.479,15.479,0,0,0-6.006.085,1.487,1.487,0,0,1-1.673-.864l-.774-1.794a.3.3,0,0,0-.279-.18l-3.066,1.3a.34.34,0,0,0-.156.4l.774,1.791a1.487,1.487,0,0,1-.518,1.81,15.478,15.478,0,0,0-4.181,4.315,1.486,1.486,0,0,1-1.791.57l-1.819-.719c-.208-.021-.34.027-.393.165l-1.186,2.987a.3.3,0,0,0,0,.232.284.284,0,0,0,.162.157l1.814.723a1.486,1.486,0,0,1,.912,1.641,15.518,15.518,0,0,0,.094,6.012,1.483,1.483,0,0,1-.864,1.67l-1.789.774a.34.34,0,0,0-.159.4l1.272,2.952a.3.3,0,0,0,.276.18l1.915-.8a1.454,1.454,0,0,1,.585-.12,1.482,1.482,0,0,1,1.22.64,15.484,15.484,0,0,0,4.307,4.19,1.487,1.487,0,0,1,.572,1.792l-.713,1.8a.3.3,0,0,0,.171.4l3.091,1.2a.3.3,0,0,0,.282-.193l.72-1.817a1.473,1.473,0,0,1,1.645-.912,15.709,15.709,0,0,0,6.01-.083,1.485,1.485,0,0,1,1.67.867l.772,1.789a.3.3,0,0,0,.278.178l3.07-1.3a.337.337,0,0,0,.154-.4L63.342,71.2a1.489,1.489,0,0,1,.518-1.81,15.391,15.391,0,0,0,4.178-4.312,1.483,1.483,0,0,1,1.792-.575l1.82.719c.2.018.336-.025.39-.165l1.189-2.987a.342.342,0,0,0-.166-.393ZM54.935,67.176A10.633,10.633,0,1,1,65.566,56.543,10.643,10.643,0,0,1,54.935,67.176Z" transform="translate(-15.784 -5.457)" fill="#05a8da"/>
        <path id="Path_9093" data-name="Path 9093" d="M41.936,16.161A9.033,9.033,0,1,1,32.9,25.194,9.044,9.044,0,0,1,41.936,16.161Zm1.485,21.434V50.536a1.485,1.485,0,0,1-2.969,0V37.595a1.485,1.485,0,1,1,2.969,0ZM35.4,38.682,25.824,47.6l7.516,9.581a1.484,1.484,0,0,1,.316.9l.27,26.137a1.487,1.487,0,0,1-1.47,1.5h-.015a1.485,1.485,0,0,1-1.485-1.468L30.692,58.62C22.17,47.755,22.238,46.885,22.8,46.359l10.573-9.85A1.484,1.484,0,1,1,35.4,38.682ZM49.832,51.975a3.256,3.256,0,0,1-.039-2.5c.322-.812.941-1.452,4.693-3.07.024-.01.046-.012.067-.021l-8.26-7.7a1.485,1.485,0,1,1,2.025-2.172C59.492,46.919,59.524,47.859,58.966,48.459Z" transform="translate(-22.587 -16.161)" fill="#05a8da"/>
        <path id="Path_9094" data-name="Path 9094" d="M37.6,30.288a6.064,6.064,0,1,0-6.064-6.064A6.07,6.07,0,0,0,37.6,30.288Z" transform="translate(-18.25 -15.192)" fill="#05a8da"/>
      </g>
    </g>
  </g>
</svg>
