<svg xmlns="http://www.w3.org/2000/svg" width="96.908" height="101" viewBox="0 0 96.908 101">
  <g id="Local_SEO_Services" data-name="Local SEO Services" transform="translate(-7.026)">
    <path id="Path_9088" data-name="Path 9088" d="M97.463,41.407c-1.151,2.223-2.482,4.477-3.884,6.67l-.557.863c-1.181,1.81-2.4,3.57-3.6,5.229,4.6,2.838,7.167,6.13,7.167,9.339,0,4.035-4.052,8.2-11.117,11.433a53.349,53.349,0,0,1-7.6,2.752,95.731,95.731,0,0,0,.978-11.129,3.143,3.143,0,0,1-3.226-.975c-.436-.5-1.565-1.815-3.084-3.686.009.534.017,1.069.017,1.606A88.972,88.972,0,0,1,71.2,79.225a89,89,0,0,1-15.717,1.358,88.991,88.991,0,0,1-15.719-1.358,91.63,91.63,0,0,1,0-31.435,89.018,89.018,0,0,1,15.719-1.358c2.049,0,4.073.066,6.063.194-1.331-2.158-2.57-4.354-3.62-6.5-.811-.02-1.625-.033-2.443-.033A96.858,96.858,0,0,0,41.3,41.116a53.3,53.3,0,0,1,2.752-7.6c3.23-7.065,7.4-11.117,11.433-11.117h0c.078,0,.156,0,.234.007A23.244,23.244,0,0,1,58.7,16.164c-1.063-.071-2.134-.111-3.215-.111h0a47.454,47.454,0,0,0,0,94.908h0A47.438,47.438,0,0,0,97.463,41.407ZM41.693,24.778a40.165,40.165,0,0,0-3.415,6.1,62.71,62.71,0,0,0-3.872,11.558,62.719,62.719,0,0,0-11.557,3.871,40.147,40.147,0,0,0-6.1,3.416A41.316,41.316,0,0,1,41.693,24.778Zm-16.206,27.3a53.345,53.345,0,0,1,7.6-2.751,98.346,98.346,0,0,0,0,28.369,53.287,53.287,0,0,1-7.6-2.751c-7.065-3.231-11.117-7.4-11.117-11.433S18.422,55.3,25.487,52.074ZM16.75,77.293a40.174,40.174,0,0,0,6.1,3.416,62.7,62.7,0,0,0,11.557,3.872,62.717,62.717,0,0,0,3.872,11.558,40.166,40.166,0,0,0,3.415,6.1A41.316,41.316,0,0,1,16.75,77.293Zm38.73,27.325h0c-4.035,0-8.2-4.052-11.433-11.117A53.339,53.339,0,0,1,41.3,85.9a96.854,96.854,0,0,0,14.186,1.029A96.82,96.82,0,0,0,69.665,85.9a53.3,53.3,0,0,1-2.752,7.6C63.683,100.566,59.516,104.618,55.481,104.618Zm13.786-2.38a40.163,40.163,0,0,0,3.416-6.1,62.687,62.687,0,0,0,3.872-11.558,62.7,62.7,0,0,0,11.558-3.872,40.144,40.144,0,0,0,6.1-3.416A41.315,41.315,0,0,1,69.266,102.238Z" transform="translate(0 -10.961)" fill="none" stroke="#022e47" stroke-width="2"/>
    <path id="Path_9089" data-name="Path 9089" d="M189.76,49.067a.951.951,0,0,0,.736-.348C193.419,45.157,208,26.948,208,18.243a18.243,18.243,0,0,0-36.486,0c0,8.709,14.583,26.915,17.507,30.476A.951.951,0,0,0,189.76,49.067Zm-9.832-31.886a9.832,9.832,0,1,1,9.832,9.832A9.844,9.844,0,0,1,179.928,17.181Z" transform="translate(-111.637)" fill="#05a8da"/>
  </g>
</svg>
