<svg xmlns="http://www.w3.org/2000/svg" width="101" height="101.182" viewBox="0 0 101 101.182">
  <g id="Mobile_SEO_Services" data-name="Mobile SEO Services" transform="translate(-1428.621 -793)">
    <path id="noun-mobile-seo-3364191" d="M92.472,17.5a4.98,4.98,0,0,0-4.956,4.956v89.274a4.977,4.977,0,0,0,4.956,4.953h56.2a4.977,4.977,0,0,0,4.956-4.953V100.674a32.957,32.957,0,0,1-36.79-7.135H90.822V34.03h59.5v4.827a32.708,32.708,0,0,1,3.306,1.256V22.455a4.98,4.98,0,0,0-4.956-4.956Zm24.714,6.615h6.693a1.653,1.653,0,1,1,0,3.306h-6.612a1.654,1.654,0,1,1-.08-3.306Zm3.385,76.033a4.961,4.961,0,1,1-4.953,4.966A4.984,4.984,0,0,1,120.572,100.147Z" transform="translate(1342.105 776.5)" fill="none" stroke="#022e47" stroke-width="2"/>
    <path id="noun-mobile-seo-3364191-2" data-name="noun-mobile-seo-3364191" d="M239.744,139.965a29.756,29.756,0,1,0,29.747,29.764A29.8,29.8,0,0,0,239.744,139.965Zm0,3.306a26.45,26.45,0,1,1-26.458,26.458,26.426,26.426,0,0,1,26.458-26.458Zm-3.309,6.615h0a1.653,1.653,0,0,0-1.611,1.255l-1.3,5.2a14.858,14.858,0,0,0-2.27,1.32l-5.15-1.478a1.654,1.654,0,0,0-1.892.759l-3.306,5.734a1.654,1.654,0,0,0,.294,2.015l3.781,3.648c-.046.458-.12.917-.122,1.379v.025c0,.458.078.913.122,1.369l-3.781,3.658a1.654,1.654,0,0,0-.294,2.015l3.306,5.724h0a1.654,1.654,0,0,0,1.892.769l5.163-1.479a14.846,14.846,0,0,0,2.257,1.308l1.3,5.211a1.653,1.653,0,0,0,1.611,1.243h6.616a1.652,1.652,0,0,0,1.6-1.243l1.3-5.2a14.858,14.858,0,0,0,2.27-1.32l5.15,1.479a1.653,1.653,0,0,0,1.891-.769l3.306-5.724h0a1.652,1.652,0,0,0-.28-2.015l-3.794-3.658c.046-.454.12-.912.122-1.369v-.025c0-.458-.077-.913-.122-1.369l3.794-3.658a1.652,1.652,0,0,0,.28-2.015l-3.306-5.734a1.652,1.652,0,0,0-1.891-.759l-5.159,1.479a14.874,14.874,0,0,0-2.26-1.308l-1.3-5.211h0a1.652,1.652,0,0,0-1.6-1.256Zm3.309,11.581a8.26,8.26,0,1,1-8.275,8.262A8.282,8.282,0,0,1,239.744,161.467Zm26.7,27.665a33.249,33.249,0,0,1-7.3,7.3l.714.714,7.3-7.293Zm4.672,2.082h0a1.653,1.653,0,0,0-1.136.487l-8.272,8.262a1.653,1.653,0,0,0,0,2.344l11.52,11.52a7.5,7.5,0,0,0,10.6-10.606L272.31,191.7a1.654,1.654,0,0,0-1.194-.487Z" transform="translate(1243.604 677.166)" fill="#05a8da"/>
  </g>
</svg>
