<svg xmlns="http://www.w3.org/2000/svg" width="93.81" height="102.008" viewBox="0 0 93.81 102.008">
  <g id="Enterprise_SEO_Services" data-name="Enterprise SEO Services" transform="translate(-1841 -908.992)">
    <g id="noun-operations-4291568" transform="translate(1842 910)">
      <path id="Path_9078" data-name="Path 9078" d="M208.029,75.424a45.718,45.718,0,0,1-8.039,25.942,2.579,2.579,0,0,1-2.1,1.087,2.808,2.808,0,0,1-1.437-.427,2.508,2.508,0,0,1-.66-3.5A40.87,40.87,0,0,0,142.9,39.347l7.34,1.709a2.479,2.479,0,0,1,1.864,3.029,2.523,2.523,0,0,1-2.447,1.941,3.035,3.035,0,0,1-.583-.078l-15.146-3.573L137.5,27.23a2.515,2.515,0,1,1,4.893,1.165l-1.434,6.291a45.913,45.913,0,0,1,67.07,40.738Zm-32.078,29.2L191.1,108.2l-3.573,15.146a2.523,2.523,0,0,1-2.447,1.941,3.036,3.036,0,0,1-.583-.078,2.479,2.479,0,0,1-1.864-3.029l1.514-6.486a45.9,45.9,0,0,1-60-66.059,2.515,2.515,0,1,1,4.156,2.835,40.842,40.842,0,0,0,53.514,58.719l-7.068-1.67a2.479,2.479,0,0,1-1.864-3.029,2.567,2.567,0,0,1,3.068-1.864Z" transform="translate(-116.221 -25.288)" fill="none" stroke="#022e47" stroke-width="2"/>
    </g>
    <g id="noun-operations-4291568-2" data-name="noun-operations-4291568" transform="translate(1853.993 925.925)">
      <path id="Path_9079" data-name="Path 9079" d="M244.908,138.568a4.617,4.617,0,0,0-3.223-4.35l-5.2-1.437c-.466-1.126-.816-1.9-1.243-3.068l2.641-4.622a4.42,4.42,0,0,0-.776-5.476l-4.2-4.155a4.492,4.492,0,0,0-5.476-.738l-4.583,2.6c-1.126-.466-1.941-.816-3.107-1.282l-1.4-5.087-.039-.078a4.581,4.581,0,0,0-4.35-3.223h-6.02a4.39,4.39,0,0,0-4.35,3.34l-1.359,5.126c-1.126.466-1.9.816-3.029,1.243l-4.622-2.641a4.42,4.42,0,0,0-5.476.776l-4.233,4.2a4.485,4.485,0,0,0-.738,5.476l2.6,4.583c-.466,1.126-.816,1.941-1.282,3.107l-5.087,1.4-.078.039a4.581,4.581,0,0,0-3.223,4.35v6.019a4.39,4.39,0,0,0,3.34,4.35l5.087,1.4c.466,1.087.816,1.9,1.243,3.029l-2.641,4.66a4.472,4.472,0,0,0,.776,5.476l4.194,4.194a4.485,4.485,0,0,0,5.476.738l4.583-2.6c1.126.466,1.941.816,3.107,1.282l1.4,5.087v.078a4.617,4.617,0,0,0,4.35,3.262h6.019a4.39,4.39,0,0,0,4.35-3.34l1.4-5.087c1.126-.466,1.9-.816,3.068-1.243l4.66,2.641a4.472,4.472,0,0,0,5.476-.776l4.194-4.194a4.483,4.483,0,0,0,.7-5.476l-2.6-4.583c.466-1.126.816-1.941,1.282-3.107l5.087-1.4h.078a4.617,4.617,0,0,0,3.262-4.35l0-6.137Zm-5.049,5.631-7.145,1.941-.466,1.2c-.816,2.1-1.165,2.991-2.02,4.932l-.621,1.476,3.65,6.408-3.69,3.69L223.2,160.2l-1.126.427c-2.213.854-3.146,1.243-5.2,2.136l-1.359.583-1.941,7.068h-5.243l-1.941-7.145-1.2-.466c-2.1-.816-2.991-1.165-4.932-2.02l-1.514-.621-6.408,3.65-3.69-3.69,3.65-6.369-.427-1.126c-.854-2.213-1.243-3.185-2.136-5.281l-.544-1.32-7.068-1.941v-5.243l7.145-1.941.466-1.2c.816-2.1,1.165-2.991,2.02-4.971l.621-1.476-3.651-6.253,3.69-3.69,6.369,3.612,1.126-.427c2.292-.854,3.262-1.282,5.4-2.213l1.165-.5L208.4,112.7h5.243l1.941,7.145,1.2.466c2.1.816,2.991,1.2,4.971,2.02l1.476.621,6.408-3.65,3.65,3.688-3.612,6.369.427,1.126c.854,2.253,1.282,3.223,2.175,5.359l.5,1.2,7.068,1.941Z" transform="translate(-177.062 -107.654)" fill="#05a8da"/>
    </g>
  </g>
</svg>
