<svg width="86" height="32" viewBox="0 0 86 32" fill="none" xmlns="http://www.w3.org/2000/svg">
<path d="M6.4901 9.69051C6.3227 9.69051 6.2807 9.60711 6.3645 9.48201L7.2438 8.35581C7.3276 8.23061 7.5369 8.14721 7.7044 8.14721H22.6526C22.8201 8.14721 22.8619 8.27231 22.7783 8.39751L22.0663 9.48201C21.9826 9.60711 21.7733 9.73221 21.6477 9.73221L6.4901 9.69051ZM0.16749 13.5275C-5.06639e-07 13.5275 -0.0418703 13.4441 0.0418697 13.319L0.921179 12.1929C1.00492 12.0678 1.21429 11.9844 1.38173 11.9844H20.4752C20.6427 11.9844 20.7265 12.1095 20.6847 12.2346L20.3497 13.2355C20.3077 13.4024 20.1403 13.4858 19.9727 13.4858L0.16749 13.5275ZM10.3005 17.3647C10.133 17.3647 10.0911 17.2395 10.1748 17.1144L10.7611 16.0716C10.8447 15.9465 11.0123 15.8213 11.1797 15.8213H19.5542C19.7216 15.8213 19.8053 15.9465 19.8053 16.1133L19.7216 17.1144C19.7216 17.2812 19.5542 17.4064 19.4286 17.4064L10.3005 17.3647ZM53.7633 8.93971C51.1254 9.60711 49.3249 10.1076 46.7289 10.7749C46.1008 10.9417 46.0589 10.9834 45.5146 10.3578C44.8865 9.64881 44.4259 9.18991 43.5466 8.77281C40.9086 7.47991 38.3545 7.85531 35.9679 9.39851C33.1206 11.2336 31.655 13.9445 31.6969 17.3229C31.7387 20.6595 34.0418 23.4121 37.3495 23.871C40.1969 24.2463 42.5836 23.2453 44.4678 21.1183C44.8447 20.6595 45.1796 20.159 45.5984 19.575H37.517C36.6378 19.575 36.4284 19.0329 36.7215 18.3239C37.2659 17.031 38.2708 14.8622 38.857 13.7777C38.9825 13.5275 39.2757 13.1104 39.9037 13.1104H55.145C55.0613 14.2365 55.0613 15.3625 54.8938 16.4887C54.4333 19.4917 53.3027 22.2443 51.4603 24.6635C48.4455 28.6256 44.5097 31.0863 39.5269 31.7536C35.4234 32.2958 31.6132 31.5034 28.2635 29.0009C25.165 26.6653 23.4063 23.5789 22.9457 19.742C22.4013 15.1958 23.7413 11.1085 26.5048 7.52161C29.4777 3.64291 33.4137 1.18211 38.2289 0.30631C42.1648 -0.40279 45.9334 0.0560076 49.3249 2.35001C51.5442 3.80971 53.1351 5.81171 54.1821 8.23061C54.4333 8.60601 54.2658 8.81451 53.7633 8.93971Z" fill="white"/>
<path d="M67.6235 32.0005C63.8132 31.9171 60.3379 30.8327 57.4067 28.3302C54.9364 26.2032 53.3871 23.4923 52.8847 20.2807C52.131 15.5678 53.4291 11.3971 56.2762 7.68513C59.3329 3.68123 63.0176 1.59592 68.0004 0.719923C72.2713 -0.0307769 76.291 0.386324 79.9338 2.84712C83.2416 5.09932 85.2934 8.14383 85.8377 12.1478C86.5496 17.7783 84.9166 22.3661 81.0225 26.2866C78.259 29.0809 74.8673 30.8327 70.9733 31.6252C69.8428 31.8337 68.7122 31.8754 67.6235 32.0005ZM77.5891 15.1506C77.5471 14.6085 77.5471 14.1914 77.4634 13.7743C76.7097 9.64542 72.8995 7.30972 68.9216 8.22732C65.0275 9.10322 62.5151 11.5639 61.5939 15.4843C60.8403 18.7376 62.4314 22.0324 65.4462 23.3671C67.7491 24.3681 70.0521 24.2429 72.2713 23.1168C75.5792 21.4068 77.3797 18.7376 77.5891 15.1506Z" fill="white"/>
</svg>
