<svg width="48" height="50" viewBox="0 0 48 50" fill="none" xmlns="http://www.w3.org/2000/svg">
<path d="M47.9729 11.3113C47.9907 11.378 47.9999 11.4467 48 11.5157V22.2481C48 22.3859 47.9641 22.5212 47.8958 22.6404C47.8276 22.7596 47.7295 22.8584 47.6115 22.927L38.7091 28.1132V38.3926C38.7091 38.6724 38.5623 38.9306 38.3225 39.0715L19.7398 49.8957C19.6973 49.9202 19.6509 49.9358 19.6045 49.9525C19.5871 49.9583 19.5706 49.9691 19.5523 49.974C19.4224 50.0087 19.2858 50.0087 19.1559 49.974C19.1347 49.9682 19.1153 49.9563 19.0951 49.9486C19.0524 49.933 19.008 49.9192 18.9674 49.8957L0.388635 39.0715C0.270621 39.0029 0.172551 38.904 0.104275 38.7847C0.0360823 38.6656 8.27586e-05 38.5304 0 38.3926V6.1955C0 6.1251 0.00968242 6.0567 0.0270617 5.9901C0.0328548 5.9676 0.0464269 5.9471 0.0541235 5.9246C0.0686062 5.8835 0.0821793 5.8414 0.103448 5.8032C0.117931 5.7778 0.1392 5.7573 0.156579 5.7338C0.178841 5.7025 0.199117 5.6702 0.225269 5.6429C0.247448 5.6204 0.276497 5.6037 0.301573 5.5842C0.329628 5.5607 0.354786 5.5353 0.386648 5.5167H0.387641L9.67754 0.1045C9.79514 0.0360998 9.92847 0 10.0642 0C10.1999 0 10.3333 0.0360998 10.4509 0.1045L19.7407 5.5167H19.7427C19.7736 5.5363 19.7998 5.5607 19.8277 5.5832C19.853 5.6027 19.8809 5.6204 19.9031 5.6419C19.9303 5.6702 19.9496 5.7025 19.9727 5.7338C19.9893 5.7573 20.0114 5.7778 20.025 5.8032C20.0473 5.8424 20.0598 5.8835 20.0753 5.9246C20.083 5.9471 20.0965 5.9676 20.1023 5.9911C20.1201 6.0577 20.1292 6.1265 20.1294 6.1955V26.3055L27.8706 21.7952V11.5148C27.8706 11.4463 27.8803 11.3768 27.8977 11.3113C27.9044 11.2878 27.9171 11.2673 27.9247 11.2448C27.9402 11.2037 27.9537 11.1617 27.9751 11.1235C27.9895 11.0981 28.0107 11.0775 28.0273 11.0541C28.0504 11.0228 28.0697 10.9905 28.0969 10.9631C28.1191 10.9406 28.1471 10.924 28.1723 10.9044C28.2012 10.8809 28.2264 10.8555 28.2574 10.8369H28.2583L37.5491 5.4248C37.6667 5.3562 37.8001 5.3201 37.9358 5.3201C38.0715 5.3201 38.2049 5.3562 38.3225 5.4248L47.6124 10.8369C47.6452 10.8565 47.6704 10.8809 47.6993 10.9034C47.7236 10.923 47.7516 10.9406 47.7738 10.9621C47.8009 10.9905 47.8202 11.0228 47.8434 11.0541C47.8609 11.0775 47.8821 11.0981 47.8956 11.1235C47.9179 11.1617 47.9304 11.2037 47.9459 11.2448C47.9546 11.2673 47.9672 11.2878 47.9729 11.3113ZM46.4513 21.7952V12.8705L43.2004 14.7642L38.7091 17.3807V26.3055L46.4523 21.7952H46.4513ZM37.1615 37.9397V29.0091L32.7437 31.5621L20.1284 38.8475V47.8622L37.1615 37.9397ZM1.54866 7.5502V37.9397L18.5797 47.8612V38.8485L9.68235 33.7532L9.67945 33.7512L9.67564 33.7492C9.6456 33.7317 9.62052 33.7062 9.59247 33.6847C9.5683 33.6652 9.54025 33.6495 9.51898 33.628L9.51708 33.6251C9.49192 33.6006 9.47454 33.5702 9.45327 33.5429C9.4339 33.5165 9.41073 33.494 9.39526 33.4666L9.39426 33.4637C9.37688 33.4342 9.36629 33.3991 9.35371 33.3659C9.34113 33.3365 9.32466 33.3091 9.31697 33.2777V33.2769C9.30728 33.2397 9.30538 33.2006 9.30149 33.1624C9.2976 33.1331 9.2899 33.1037 9.2899 33.0744V12.0606L4.79959 9.443L1.54866 7.5512V7.5502ZM10.0652 1.6872L2.32486 6.1955L10.0632 10.7039L17.8025 6.1946L10.0632 1.6872H10.0652ZM14.0905 29.823L18.5807 27.2074V7.5502L15.3298 9.444L10.8385 12.0606V31.7177L14.0905 29.823ZM37.9358 7.0074L30.1966 11.5157L37.9358 16.0241L45.6742 11.5148L37.9358 7.0074ZM37.1615 17.3807L32.6703 14.7642L29.4193 12.8705V21.7952L33.9096 24.4107L37.1615 26.3055V17.3807ZM19.3532 37.4927L30.705 30.9351L36.3795 27.6582L28.6459 23.1529L19.7417 28.3401L11.6263 33.0675L19.3532 37.4927Z" fill="white"/>
</svg>
