<svg width="45" height="50" viewBox="0 0 45 50" fill="none" xmlns="http://www.w3.org/2000/svg">
<path d="M20.4696 0.533401C21.6992 -0.176199 23.3008 -0.179399 24.5294 0.533401C30.71 4.0547 36.8924 7.5705 43.072 11.0939C44.2342 11.7541 45.0116 13.0582 44.9997 14.4087V35.594C45.0086 37.0004 44.1542 38.3357 42.928 38.981C36.7677 42.4827 30.6106 45.989 24.4514 49.4907C23.1964 50.2144 21.5628 50.1586 20.347 49.3757C18.5001 48.2962 16.65 47.2222 14.803 46.1436C14.4256 45.9167 14.0002 45.7362 13.7336 45.3672C13.9692 45.047 14.3904 45.0072 14.7327 44.8674C15.5037 44.6202 16.2117 44.2236 16.9199 43.8386C17.099 43.715 17.3177 43.7622 17.4893 43.8727C19.0686 44.7857 20.634 45.7254 22.2184 46.6296C22.5564 46.8264 22.8988 46.5652 23.1878 46.4027C29.2327 42.958 35.2854 39.526 41.3296 36.08C41.5534 35.9714 41.6772 35.7317 41.659 35.4844C41.6632 28.4958 41.66 21.506 41.6612 14.5172C41.6867 14.2366 41.5256 13.9786 41.274 13.8637C35.135 10.3778 28.9994 6.8867 22.8614 3.3999C22.7552 3.3262 22.6292 3.2867 22.5002 3.2865C22.371 3.2862 22.245 3.3255 22.1384 3.3988C16.0007 6.8867 9.86599 10.3811 3.72807 13.8667C3.47732 13.9817 3.30899 14.2356 3.33882 14.5172C3.3399 21.506 3.33882 28.4958 3.33882 35.4854C3.32824 35.6062 3.35449 35.7272 3.41415 35.8324C3.47382 35.9376 3.56407 36.0217 3.67265 36.0736C5.31057 37.0102 6.95057 37.94 8.58957 38.8734C9.5129 39.3746 10.6466 39.6722 11.6639 39.2882C12.5616 38.9636 13.1909 38.04 13.1737 37.0787C13.1822 30.131 13.1695 23.182 13.1801 16.2353C13.1577 15.9269 13.4478 15.6721 13.7452 15.7011C14.5322 15.6957 15.3203 15.6904 16.1073 15.7032C16.4358 15.6957 16.6618 16.0279 16.6212 16.3387C16.6181 23.3306 16.6297 30.3226 16.6159 37.3144C16.6181 39.1776 15.8588 41.2052 14.1493 42.117C12.0434 43.217 9.44049 42.9837 7.35999 41.929C5.5589 41.0226 3.84007 39.9527 2.0709 38.9817C0.841486 38.3402 -0.00851409 36.9994 0.000152576 35.5942V14.4087C-0.0127641 13.0303 0.79557 11.7024 1.99407 11.0519C8.15332 7.5472 14.3115 4.0397 20.4696 0.533401Z" fill="white"/>
<path d="M25.8426 15.2087C28.5289 15.0344 31.4049 15.1054 33.822 16.4398C35.6936 17.4623 36.7312 19.6083 36.7642 21.7048C36.7118 21.9876 36.4189 22.1436 36.151 22.1242C35.3716 22.1232 34.592 22.1348 33.8126 22.1188C33.482 22.1316 33.2899 21.8242 33.2484 21.5296C33.0244 20.5264 32.4819 19.5329 31.5454 19.0491C30.108 18.3234 28.4412 18.3599 26.8739 18.3751C25.7296 18.4364 24.4992 18.5363 23.5296 19.2148C22.7854 19.7287 22.5594 20.7662 22.825 21.6016C23.0754 22.2016 23.7622 22.3952 24.3242 22.5736C27.5616 23.4274 30.9922 23.3424 34.1676 24.4658C35.4822 24.9238 36.7684 25.8142 37.2184 27.2022C37.8072 29.0624 37.549 31.2858 36.2365 32.7792C35.172 34.0082 33.6219 34.677 32.0754 35.0402C30.0184 35.5028 27.8839 35.5144 25.7949 35.3092C23.8304 35.0834 21.7862 34.563 20.2699 33.2136C18.9732 32.0782 18.3399 30.3094 18.4027 28.6022C18.4177 28.314 18.7024 28.1128 18.9764 28.1366C19.7612 28.1302 20.5462 28.128 21.331 28.1376C21.6444 28.115 21.8769 28.3882 21.893 28.6862C22.0379 29.6418 22.394 30.645 23.2206 31.2116C24.8159 32.2492 26.8172 32.1782 28.6439 32.2072C30.157 32.1396 31.8559 32.119 33.0906 31.1106C33.7422 30.5354 33.9352 29.5732 33.7592 28.7452C33.5684 28.0462 32.8432 27.7206 32.2204 27.5076C29.0246 26.4882 25.5559 26.8582 22.3909 25.7054C21.106 25.2476 19.8635 24.382 19.3699 23.051C18.681 21.1674 18.9967 18.8374 20.4469 17.3944C21.8609 15.9591 23.902 15.4064 25.8426 15.2085V15.2087Z" fill="white"/>
</svg>
