<svg width="50" height="50" viewBox="0 0 50 50" fill="none" xmlns="http://www.w3.org/2000/svg">
<path d="M24.8204 0C12.127 0 12.9195 5.5334 12.9195 5.5334L12.9336 11.2662H25.0468V12.9873H8.12254C8.12254 12.9873 0 12.0613 0 24.9358C0 37.8106 7.08954 37.354 7.08954 37.354H11.3206V31.3795C11.3206 31.3795 11.0924 24.2529 18.2969 24.2529H30.3109C30.3109 24.2529 37.0609 24.3628 37.0609 17.6955V6.6715C37.0609 6.6715 38.0859 0 24.8204 0ZM18.1412 3.8551C18.4275 3.8549 18.711 3.9114 18.9755 4.0214C19.24 4.1313 19.4803 4.2927 19.6826 4.4961C19.8851 4.6996 20.0456 4.9412 20.155 5.2071C20.2644 5.4731 20.3206 5.758 20.3204 6.0457C20.3206 6.3335 20.2644 6.6184 20.155 6.8843C20.0456 7.1501 19.8851 7.3917 19.6826 7.5952C19.4803 7.7987 19.24 7.96 18.9755 8.07C18.711 8.18 18.4275 8.2365 18.1412 8.2363C17.8551 8.2365 17.5716 8.18 17.3071 8.07C17.0425 7.96 16.8022 7.7987 16.5997 7.5952C16.3974 7.3917 16.2369 7.1501 16.1275 6.8843C16.018 6.6184 15.9618 6.3335 15.9621 6.0457C15.9618 5.758 16.018 5.4731 16.1275 5.2071C16.2369 4.9412 16.3974 4.6996 16.5997 4.4961C16.8022 4.2927 17.0425 4.1313 17.3071 4.0214C17.5716 3.9114 17.8551 3.8549 18.1412 3.8551Z" fill="white"/>
<path d="M25.1808 49.9996C37.8742 49.9996 37.0816 44.4663 37.0816 44.4663L37.0676 38.7335H24.9543V37.0125H41.8785C41.8785 37.0125 50.001 37.9385 50.001 25.0637C50.001 12.1889 42.9115 12.6456 42.9115 12.6456H38.6803V18.6197C38.6803 18.6197 38.9085 25.7462 31.7042 25.7462H19.69C19.69 25.7462 12.9402 25.6366 12.9402 32.3042V43.328C12.9402 43.328 11.9152 49.9996 25.1805 49.9996H25.1808ZM31.86 46.1449C31.5736 46.145 31.2902 46.0886 31.0256 45.9786C30.7612 45.8684 30.5211 45.7073 30.3184 45.5039C30.1161 45.3003 29.9556 45.0586 29.8462 44.7929C29.7368 44.5269 29.6806 44.242 29.6808 43.9543C29.6804 43.6665 29.7366 43.3815 29.8461 43.1155C29.9554 42.8496 30.1161 42.608 30.3184 42.4046C30.5208 42.201 30.7612 42.0399 31.0256 41.9299C31.2902 41.8199 31.5736 41.7633 31.86 41.7635C32.1462 41.7633 32.4296 41.8199 32.6942 41.9296C32.9586 42.0396 33.199 42.201 33.4014 42.4045C33.6038 42.6079 33.7644 42.8495 33.8738 43.1155C33.9832 43.3813 34.0394 43.6663 34.0389 43.954C34.0394 44.2416 33.9832 44.5269 33.8738 44.7926C33.7644 45.0584 33.6038 45.3 33.4014 45.5034C33.199 45.707 32.9586 45.8684 32.6942 45.9784C32.4296 46.0884 32.1462 46.1449 31.86 46.1446V46.1449Z" fill="white"/>
</svg>
