<svg width="100" height="100" viewBox="0 0 100 100" fill="none" xmlns="http://www.w3.org/2000/svg">
<path d="M24.8204 20C12.127 20 12.9195 25.5334 12.9195 25.5334L12.9336 31.2662H25.0468V32.9873H8.12254C8.12254 32.9873 0 32.0613 0 44.9358C0 57.8106 7.08954 57.354 7.08954 57.354H11.3206V51.3795C11.3206 51.3795 11.0924 44.2529 18.2969 44.2529H30.3109C30.3109 44.2529 37.0609 44.3628 37.0609 37.6955V26.6715C37.0609 26.6715 38.0859 20 24.8204 20ZM18.1412 23.8551C18.4275 23.8549 18.711 23.9114 18.9755 24.0214C19.24 24.1313 19.4803 24.2927 19.6826 24.4961C19.8851 24.6996 20.0456 24.9412 20.155 25.2071C20.2644 25.4731 20.3206 25.758 20.3204 26.0457C20.3206 26.3335 20.2644 26.6184 20.155 26.8843C20.0456 27.1501 19.8851 27.3917 19.6826 27.5952C19.4803 27.7987 19.24 27.96 18.9755 28.07C18.711 28.18 18.4275 28.2365 18.1412 28.2363C17.8551 28.2365 17.5716 28.18 17.3071 28.07C17.0425 27.96 16.8022 27.7987 16.5997 27.5952C16.3974 27.3917 16.2369 27.1501 16.1275 26.8843C16.018 26.6184 15.9618 26.3335 15.9621 26.0457C15.9618 25.758 16.018 25.4731 16.1275 25.2071C16.2369 24.9412 16.3974 24.6996 16.5997 24.4961C16.8022 24.2927 17.0425 24.1313 17.3071 24.0214C17.5716 23.9114 17.8551 23.8549 18.1412 23.8551Z" fill="white"/>
<path d="M25.1808 69.9996C37.8742 69.9996 37.0816 64.4663 37.0816 64.4663L37.0676 58.7335H24.9543V57.0125H41.8785C41.8785 57.0125 50.001 57.9385 50.001 45.0637C50.001 32.1889 42.9115 32.6456 42.9115 32.6456H38.6803V38.6197C38.6803 38.6197 38.9085 45.7462 31.7042 45.7462H19.69C19.69 45.7462 12.9402 45.6366 12.9402 52.3042V63.328C12.9402 63.328 11.9152 69.9996 25.1805 69.9996H25.1808ZM31.86 66.1449C31.5736 66.145 31.2902 66.0886 31.0256 65.9786C30.7612 65.8684 30.5211 65.7073 30.3184 65.5039C30.1161 65.3003 29.9556 65.0586 29.8462 64.7929C29.7368 64.5269 29.6806 64.242 29.6808 63.9543C29.6804 63.6665 29.7366 63.3815 29.8461 63.1155C29.9554 62.8496 30.1161 62.608 30.3184 62.4046C30.5208 62.201 30.7612 62.0399 31.0256 61.9299C31.2902 61.8199 31.5736 61.7633 31.86 61.7635C32.1462 61.7633 32.4296 61.8199 32.6942 61.9296C32.9586 62.0396 33.199 62.201 33.4014 62.4045C33.6038 62.6079 33.7644 62.8495 33.8738 63.1155C33.9832 63.3813 34.0394 63.6663 34.0389 63.954C34.0394 64.2416 33.9832 64.5269 33.8738 64.7926C33.7644 65.0584 33.6038 65.3 33.4014 65.5034C33.199 65.707 32.9586 65.8684 32.6942 65.9784C32.4296 66.0884 32.1462 66.1449 31.86 66.1446V66.1449Z" fill="white"/>
</svg>
