<svg width="56" height="50" viewBox="0 0 56 50" fill="none" xmlns="http://www.w3.org/2000/svg">
<path d="M28.0134 30.2354C25.1324 30.2354 22.7969 27.8939 22.7969 25.0054C22.7969 22.1169 25.1324 19.7754 28.0134 19.7754C30.8943 19.7754 33.2298 22.1169 33.2298 25.0054C33.2298 27.8939 30.8943 30.2354 28.0134 30.2354Z" fill="white"/>
<path d="M0 25.0058C0 21.2863 4.64574 17.7615 11.7684 15.5757C10.1247 8.2971 10.8553 2.5063 14.0742 0.6523C14.8162 0.2174 15.6837 0.0114002 16.6311 0.0114002V2.5635C16.106 2.5635 15.6837 2.6665 15.3298 2.8611C13.7774 3.7537 13.1039 7.1527 13.6291 11.5244C13.7546 12.6002 13.96 13.7331 14.2112 14.889C16.4485 14.3397 18.8911 13.9162 21.4595 13.6416C23.0004 11.5244 24.5985 9.6017 26.2079 7.9194C22.4868 4.4518 18.9939 2.5521 16.6196 2.5521V0C19.7586 0 23.868 2.2431 28.0228 6.1342C32.1778 2.266 36.287 0.0457001 39.426 0.0457001V2.5978C37.0632 2.5978 33.5589 4.4862 29.8377 7.9309C31.4358 9.6132 33.0338 11.5244 34.552 13.6416C37.1317 13.9162 39.5744 14.3397 41.8117 14.9004C42.0742 13.756 42.2682 12.6459 42.4052 11.5816C42.9417 7.2099 42.2797 3.8109 40.7387 2.9068C40.3962 2.7008 39.9511 2.6093 39.426 2.6093V0.0573006C40.3849 0.0573006 41.2524 0.263199 42.0057 0.698099C45.2132 2.5521 45.9323 8.3314 44.2772 15.5871C51.3771 17.7844 56 21.2977 56 25.0058C56 28.7251 51.3543 32.2499 44.2316 34.4358C45.8753 41.7143 45.1447 47.5052 41.9258 49.3591C41.1838 49.794 40.3163 50 39.3576 50C36.2185 50 32.1092 47.7569 27.9544 43.8658C23.7994 47.734 19.6902 49.9542 16.5512 49.9542C15.5923 49.9542 14.7248 49.7483 13.9715 49.3133C10.764 47.4593 10.0448 41.68 11.7 34.4243C4.62292 32.2385 0 28.7137 0 25.0058ZM14.8618 17.3724C15.2842 18.8487 15.8092 20.3707 16.4027 21.8929C16.8708 20.9773 17.3616 20.0618 17.8981 19.1462C18.4232 18.2307 18.9825 17.3381 19.5417 16.4683C17.9209 16.7087 16.3571 17.0062 14.8618 17.3724ZM20.0897 29.5605C20.98 31.1055 21.8932 32.5704 22.8406 33.9322C24.5414 34.081 26.265 34.1612 28 34.1612C29.7236 34.1612 31.4472 34.081 33.1365 33.9437C34.0839 32.5818 35.0085 31.1284 35.8989 29.5948C36.7664 28.0957 37.554 26.5736 38.2732 25.0401C37.5655 23.5065 36.7664 21.973 35.9103 20.4737C35.02 18.9288 34.1068 17.4639 33.1594 16.1021C31.4586 15.9533 29.735 15.8732 28 15.8732C26.2764 15.8732 24.5528 15.9533 22.8635 16.0907C21.9161 17.4525 20.9915 18.9059 20.1011 20.4395C19.2336 21.9387 18.446 23.4607 17.7268 24.9942C18.446 26.5278 19.2336 28.0613 20.0897 29.5605ZM16.4027 28.0728C15.7864 29.6063 15.2613 31.1398 14.8275 32.6276C16.3228 32.9938 17.8981 33.3028 19.5304 33.5432C18.971 32.6619 18.4117 31.7578 17.8867 30.8308C17.3616 29.9153 16.8708 28.9883 16.4027 28.0728ZM27.9772 40.2838C29.0388 39.1852 30.1003 37.9607 31.1505 36.6217C30.1232 36.6674 29.0729 36.7017 28.0115 36.7017C26.9384 36.7017 25.8768 36.6788 24.8382 36.6217C25.8655 37.9607 26.9271 39.1852 27.9772 40.2838ZM36.4696 33.5432C38.0905 33.3028 39.6543 33.0052 41.1496 32.6391C40.7273 31.1627 40.2022 29.6407 39.6086 28.1186C39.1407 29.0341 38.6498 29.9497 38.1133 30.8652C37.5768 31.7807 37.029 32.6734 36.4696 33.5432ZM28.0343 9.7277C26.9727 10.8263 25.9111 12.0508 24.861 13.3897C25.8883 13.344 26.9384 13.3097 28 13.3097C29.0729 13.3097 30.1345 13.3326 31.1733 13.3897C30.146 12.0508 29.0844 10.8263 28.0343 9.7277ZM36.4811 16.4683C37.0403 17.3495 37.5997 18.2536 38.1247 19.1806C38.6498 20.0962 39.1407 21.0117 39.6086 21.9272C40.2251 20.3937 40.7501 18.8602 41.1838 17.3724C39.6885 17.0176 38.1133 16.7087 36.4811 16.4683ZM46.8112 30.7965C50.852 29.0684 53.466 26.8025 53.466 25.0058C53.466 23.209 50.852 20.9316 46.8112 19.2149C45.8296 18.7915 44.7566 18.4138 43.6494 18.0591C42.9988 20.3022 42.1427 22.6368 41.0811 25.0286C42.1313 27.409 42.9759 29.7322 43.6151 31.9638C44.7452 31.6091 45.8182 31.2199 46.8112 30.7965ZM40.6702 47.1503C42.2226 46.2577 42.8961 42.8588 42.3709 38.4871C42.2454 37.4113 42.04 36.2783 41.7888 35.1224C39.5515 35.6717 37.1089 36.0952 34.5405 36.3698C32.9996 38.4871 31.4015 40.4097 29.7921 42.092C33.5132 45.5596 37.0061 47.4593 39.3804 47.4593C39.894 47.4479 40.3278 47.3449 40.6702 47.1503ZM13.5948 38.4298C13.0583 42.8016 13.7203 46.2005 15.2613 47.1046C15.6038 47.3106 16.0489 47.4022 16.574 47.4022C18.9368 47.4022 22.4411 45.5138 26.1623 42.0691C24.5642 40.3868 22.9662 38.4756 21.448 36.3584C18.8683 36.0837 16.4256 35.6603 14.1883 35.0996C13.9258 36.2554 13.7203 37.3655 13.5948 38.4298ZM9.20013 30.7965C10.1818 31.2199 11.2548 31.5976 12.362 31.9524C13.0126 29.7093 13.8687 27.3747 14.9303 24.9828C13.8801 22.6024 13.0355 20.2793 12.3962 18.0476C11.2662 18.4024 10.1933 18.7915 9.18876 19.2149C5.14799 20.943 2.53404 23.209 2.53404 25.0058C2.54549 26.8025 5.15935 29.0799 9.20013 30.7965Z" fill="white"/>
</svg>
