<svg width="56" height="50" viewBox="0 0 56 50" fill="none" xmlns="http://www.w3.org/2000/svg">
<path fill-rule="evenodd" clip-rule="evenodd" d="M17.2061 21.028C17.6511 21.4748 17.9011 22.0806 17.9014 22.7126V29.7368H38.0421V9.9028H12.7472V20.3298H15.5286C16.1578 20.33 16.7612 20.5812 17.2061 21.028ZM16.9519 46.5976H1.27649e-06V48.5702C-0.00024947 48.758 0.0364437 48.9442 0.107906 49.1176C0.179369 49.2912 0.28418 49.449 0.416407 49.5818C0.548717 49.7146 0.705769 49.8198 0.878617 49.8916C1.05146 49.9634 1.23668 50.0002 1.42374 50H15.5281C15.7152 50.0002 15.9005 49.9634 16.0733 49.8916C16.2462 49.82 16.4032 49.7146 16.5355 49.5818C16.6677 49.449 16.7726 49.2912 16.844 49.1176C16.9155 48.9442 16.9521 48.758 16.9519 48.5702V46.5976ZM8.03934 48.475C8.01226 48.4186 7.99922 48.3564 8.0014 48.2938C8.00056 48.2314 8.01277 48.1694 8.03734 48.112C8.06183 48.0544 8.0981 48.0028 8.14382 47.9604C8.23259 47.8732 8.35186 47.8244 8.47598 47.8244C8.6001 47.8244 8.71937 47.8732 8.80813 47.9604C8.85385 48.0028 8.89004 48.0544 8.91462 48.112C8.93911 48.1694 8.95131 48.2314 8.95047 48.2938C8.95265 48.3564 8.93961 48.4186 8.91261 48.475C8.89272 48.5374 8.85669 48.5934 8.80813 48.6372C8.71853 48.7228 8.59968 48.7704 8.47598 48.7704C8.35236 48.7704 8.23342 48.7228 8.14382 48.6372C8.09735 48.5918 8.06158 48.5362 8.03934 48.475ZM56 2C56 0.8954 55.1084 0 54.0083 0H10.9424C9.84238 0 8.95064 0.8954 8.95064 2V5.1276H56V2ZM12.2083 2.3822C12.2327 2.4397 12.2449 2.5017 12.244 2.5642C12.2461 2.6268 12.233 2.6891 12.2059 2.7456C12.1802 2.8049 12.1449 2.8596 12.1014 2.9073C12.01 2.99 11.8923 3.0374 11.7694 3.041C11.7071 3.0428 11.6453 3.0297 11.5892 3.0027C11.5283 2.9851 11.4728 2.9523 11.428 2.9073C11.3831 2.8623 11.3504 2.8066 11.3329 2.7454C11.3059 2.6889 11.2929 2.6267 11.295 2.5642C11.2941 2.4398 11.3418 2.3201 11.4278 2.2307C11.4755 2.1869 11.53 2.1514 11.5892 2.1256C11.6753 2.09 11.7701 2.081 11.8614 2.0997C11.9527 2.1184 12.0363 2.164 12.1017 2.2307C12.1474 2.2731 12.1837 2.3248 12.2083 2.3822ZM14.8257 2.2307C14.9118 2.32 14.9595 2.4397 14.9586 2.5642C14.9593 2.6257 14.9498 2.6869 14.9305 2.7454C14.9014 2.8028 14.8663 2.857 14.8261 2.9072C14.7815 2.9477 14.7301 2.9801 14.6743 3.0027C14.6144 3.0288 14.5497 3.0418 14.4845 3.0408C14.3607 3.0414 14.2414 2.9935 14.1522 2.9072C14.0661 2.814 14.0186 2.6912 14.0194 2.5642C14.0195 2.5027 14.0289 2.4416 14.0474 2.383C14.071 2.3253 14.1067 2.2734 14.1519 2.2307C14.2189 2.1635 14.3042 2.1177 14.3971 2.099C14.49 2.0803 14.5862 2.0896 14.6739 2.1256C14.7302 2.1516 14.7816 2.1871 14.8257 2.2307ZM17.6449 2.383C17.671 2.4397 17.684 2.5017 17.6828 2.5642C17.6849 2.6267 17.6718 2.6889 17.6449 2.7454C17.6249 2.8076 17.5889 2.8634 17.5405 2.9072C17.4513 2.9935 17.3321 3.0414 17.2081 3.0408C17.1459 3.0428 17.0841 3.0297 17.0279 3.0027C16.9709 2.9824 16.9191 2.9497 16.8761 2.9072C16.8295 2.8619 16.7937 2.8066 16.7717 2.7454C16.7445 2.689 16.7315 2.6267 16.7336 2.5642C16.7327 2.5016 16.7449 2.4396 16.7695 2.3822C16.7941 2.3248 16.8303 2.2731 16.8761 2.2307C16.9185 2.185 16.9703 2.1492 17.0279 2.1256C17.1141 2.09 17.2089 2.081 17.3002 2.0997C17.3914 2.1184 17.4751 2.164 17.5405 2.2307C17.5886 2.2707 17.6248 2.3235 17.6449 2.383ZM41.8103 9.8937H52.2034V22.8272H41.8103V9.8937ZM56 6.0907H8.95064V20.3298H11.7981V9.4263C11.7974 9.3635 11.8093 9.3013 11.833 9.2432C11.8566 9.1851 11.8915 9.1323 11.9357 9.0879C11.9798 9.0436 12.0324 9.0085 12.0902 8.9847C12.1481 8.9609 12.21 8.949 12.2725 8.9496H38.5167C38.5791 8.949 38.641 8.9609 38.699 8.9847C38.7568 9.0085 38.8093 9.0435 38.8536 9.0879C38.8978 9.1323 38.9326 9.1851 38.9563 9.2432C38.98 9.3013 38.9918 9.3635 38.9911 9.4263V30.2134C38.991 30.3396 38.9408 30.4606 38.8517 30.55C38.7629 30.6392 38.6424 30.6896 38.5167 30.69H17.9014V33.5496H54.0083C55.1084 33.5496 56 32.6542 56 31.5496V6.0907ZM41.0008 23.6402C40.9118 23.551 40.8618 23.43 40.8614 23.3036L40.861 9.4171C40.8629 9.2913 40.9136 9.1712 41.0022 9.0823C41.0908 8.9933 41.2103 8.9425 41.3356 8.9405H52.678C52.8037 8.9408 52.9244 8.9912 53.0132 9.0805C53.102 9.1698 53.1523 9.2908 53.1526 9.4171V23.3036C53.1533 23.3664 53.1415 23.4286 53.1178 23.4868C53.0941 23.5448 53.0593 23.5976 53.015 23.642C52.9708 23.6864 52.9182 23.7216 52.8605 23.7452C52.8025 23.769 52.7405 23.7808 52.678 23.7802H41.336C41.2101 23.7798 41.0896 23.7296 41.0008 23.6402ZM41.0026 30.5484C40.9139 30.4594 40.8634 30.3394 40.8614 30.2136L40.861 26.134C40.8629 26.0082 40.9136 25.8882 41.0022 25.7994C41.0908 25.7106 41.2103 25.6598 41.3356 25.6578H52.678C52.8037 25.6582 52.9242 25.7084 53.013 25.7976C53.102 25.887 53.1523 26.0078 53.1526 26.134V30.2136C53.1523 30.34 53.102 30.461 53.0132 30.5502C52.9244 30.6396 52.8037 30.6898 52.678 30.6902H41.336C41.2107 30.6882 41.0912 30.6374 41.0026 30.5484ZM1.42374 21.2828H15.5281C15.7152 21.2824 15.9005 21.3194 16.0733 21.391C16.2462 21.4628 16.4032 21.5682 16.5355 21.701C16.6677 21.8338 16.7726 21.9916 16.844 22.1652C16.9155 22.3386 16.9521 22.5248 16.9519 22.7126V23.9802H1.27649e-06V22.7126C-0.00024947 22.5248 0.0364437 22.3386 0.107906 22.1652C0.179369 21.9916 0.28418 21.8338 0.416407 21.701C0.548717 21.5682 0.705769 21.4628 0.878617 21.3912C1.05138 21.3194 1.23668 21.2824 1.42374 21.2828ZM16.9519 24.9334H1.27649e-06V45.6444H16.9519V24.9334ZM41.8103 26.6108H52.2034V29.737H41.8103V26.6108ZM1.1475 38.2768V31.3598H10.006V38.2768H1.1475ZM0.697076 31.2862C0.697076 31.083 0.86516 30.9184 1.07244 30.9184H10.0812C10.2885 30.9184 10.4565 31.083 10.4565 31.2862V38.3504C10.4565 38.5536 10.2885 38.7184 10.0812 38.7184H1.07244C0.86516 38.7184 0.697076 38.5536 0.697076 38.3504V31.2862ZM11.8644 31.3128V36.124H15.8203V31.3128H11.8644ZM11.6996 30.9184C11.5631 30.9184 11.4523 31.0242 11.4523 31.155V36.2818C11.4523 36.4124 11.5631 36.5184 11.6996 36.5184H15.9852C16.1217 36.5184 16.2325 36.4124 16.2325 36.2818V31.155C16.2325 31.0242 16.1217 30.9184 15.9852 30.9184H11.6996ZM11.8575 38.3434V37.2934H15.8274V38.3434H11.8575ZM11.4523 37.2184C11.4523 37.0526 11.5974 36.9184 11.7764 36.9184H15.9084C16.0874 36.9184 16.2325 37.0526 16.2325 37.2184V38.4184C16.2325 38.584 16.0874 38.7184 15.9084 38.7184H11.7764C11.5974 38.7184 11.4523 38.584 11.4523 38.4184V37.2184Z" fill="white"/>
</svg>
