<svg width="70" height="50" viewBox="0 0 70 50" fill="none" xmlns="http://www.w3.org/2000/svg">
<path fill-rule="evenodd" clip-rule="evenodd" d="M2.96611 0C1.328 0 0 1.3324 0 2.9762V7.5893H0.593221H69.4068H70V2.9762C70 1.3324 68.6721 0 67.0339 0H2.96611ZM70 9.0773H69.4068H0.593221H0V47.0238C0 48.6676 1.328 50 2.96611 50H67.0339C68.6721 50 70 48.6676 70 47.0238V9.0773ZM5.93222 3.7202C5.93222 4.1311 5.60022 4.4643 5.19067 4.4643C4.78111 4.4643 4.44911 4.1311 4.44911 3.7202C4.44911 3.3093 4.78111 2.9762 5.19067 2.9762C5.60022 2.9762 5.93222 3.3093 5.93222 3.7202ZM9.04655 4.4643C9.45611 4.4643 9.78811 4.1311 9.78811 3.7202C9.78811 3.3093 9.45611 2.9762 9.04655 2.9762C8.63711 2.9762 8.30511 3.3093 8.30511 3.7202C8.30511 4.1311 8.63711 4.4643 9.04655 4.4643ZM13.6441 3.7202C13.6441 4.1311 13.3121 4.4643 12.9026 4.4643C12.493 4.4643 12.161 4.1311 12.161 3.7202C12.161 3.3093 12.493 2.9762 12.9026 2.9762C13.3121 2.9762 13.6441 3.3093 13.6441 3.7202ZM4.63389 15.6297C4.93833 15.0086 5.42756 14.5829 6.06156 14.3774C6.33111 14.2923 6.84022 14.2873 17.1833 14.2873C27.8209 14.2823 28.0306 14.2823 28.3401 14.3824C28.974 14.5779 29.4682 15.0086 29.7729 15.6297L29.9573 16.0053L29.9724 21.8156L29.9822 27.6308L27.4017 25.0412L27.3253 24.965C25.0154 22.6556 24.6938 22.3339 24.4019 22.3591C24.3547 22.3632 24.3082 22.3763 24.2543 22.3917L24.2368 22.3966C24.107 22.4367 23.3732 23.1429 21.037 25.487L18.002 28.5324L16.5942 27.1249C15.8156 26.3486 15.1317 25.6874 15.0718 25.6573C14.922 25.5822 14.6276 25.5872 14.4678 25.6723C14.3929 25.7124 12.3362 27.756 9.89022 30.2053C7.44922 32.6596 5.42256 34.6681 5.38767 34.6681C5.25778 34.6681 4.82355 34.1574 4.63889 33.7816L4.44911 33.3958V24.7007V16.0053L4.63389 15.6297ZM13.7739 19.767C13.4644 18.7952 12.6607 17.9839 11.7122 17.6833C11.288 17.5481 10.5442 17.513 10.1199 17.6132C8.71222 17.9338 7.66889 19.236 7.66889 20.6686C7.67389 22.026 8.54244 23.2331 9.82533 23.6538C10.3544 23.8291 11.2281 23.8291 11.7572 23.6538C12.6957 23.3432 13.4444 22.5669 13.7889 21.5451C13.9287 21.1293 13.9187 20.2328 13.7739 19.767ZM10.2796 19.0604C9.80033 19.2158 9.391 19.6114 9.21133 20.0872C9.06656 20.478 9.09156 21.059 9.27622 21.4197C9.441 21.7352 9.72044 22.0157 10.04 22.186C10.2596 22.3062 10.3444 22.3212 10.7888 22.3212C11.233 22.3212 11.3179 22.3062 11.5376 22.186C11.887 22.0007 12.2214 21.625 12.3612 21.2643C12.6657 20.4529 12.2613 19.4812 11.4776 19.1306C11.1881 19.0003 10.5691 18.9653 10.2796 19.0604ZM18.2117 30.2154C18.3264 30.1753 19.24 29.2938 21.3714 27.155C23.0188 25.5021 24.3866 24.1498 24.4164 24.1498C24.4464 24.1498 25.7093 25.3969 27.2269 26.9196L29.9873 29.6894L29.9724 31.5429L29.9573 33.3961L29.7729 33.7718C29.4682 34.3929 28.974 34.8236 28.3401 35.0188C28.0306 35.119 27.8209 35.119 17.5328 35.119H7.04489L10.9236 31.2271L14.8072 27.3303L16.2399 28.7679C17.7923 30.3154 17.8272 30.3408 18.2117 30.2154ZM35.2966 17.8571V30.9523H63.4746V17.8571H35.2966ZM34.7033 15.7738C33.8844 15.7738 33.2203 16.4401 33.2203 17.2619V31.5477C33.2203 32.3693 33.8844 33.0357 34.7033 33.0357H64.0678C64.8868 33.0357 65.5509 32.3693 65.5509 31.5477V17.2619C65.5509 16.4401 64.8868 15.7738 64.0678 15.7738H34.7033ZM12.7542 44.0477V40.1786H25.8051V44.0477H12.7542ZM10.678 38.9881C10.678 38.4949 11.0763 38.0952 11.5678 38.0952H26.9916C27.0421 38.0952 27.0916 38.0994 27.1398 38.1074C27.1881 38.0994 27.2376 38.0952 27.2881 38.0952H42.7119C42.7623 38.0952 42.8118 38.0994 42.8602 38.1074C42.9086 38.0994 42.958 38.0952 43.0084 38.0952H58.4322C58.9237 38.0952 59.322 38.4949 59.322 38.9881V45.2381C59.322 45.7312 58.9237 46.131 58.4322 46.131H43.0084C42.958 46.131 42.9086 46.1268 42.8602 46.1188C42.8118 46.1268 42.7623 46.131 42.7119 46.131H27.2881C27.2376 46.131 27.1881 46.1268 27.1398 46.1188C27.0916 46.1268 27.0421 46.131 26.9916 46.131H11.5678C11.0763 46.131 10.678 45.7312 10.678 45.2381V38.9881ZM28.4746 40.1786V44.0477H41.5254V40.1786H28.4746ZM44.1949 44.0477V40.1786H57.2458V44.0477H44.1949Z" fill="white"/>
</svg>
