<svg width="45" height="50" viewBox="0 0 45 50" fill="none" xmlns="http://www.w3.org/2000/svg">
<path d="M15.4037 30.3701C17.1412 30.3701 18.5499 31.7674 18.5499 33.491V46.8786C18.5499 48.6022 17.1412 49.9993 15.4037 49.9993C13.6664 49.9993 12.2578 48.6022 12.2578 46.8786V33.491C12.2578 31.7676 13.6664 30.3704 15.4037 30.3704V30.3701Z" fill="white"/>
<path d="M8.22059 14.2734C8.21017 14.3918 8.20117 14.5114 8.20117 14.6324V34.9159C8.20117 37.0973 9.94181 38.8546 12.1026 38.8546H32.8965C35.0576 38.8546 36.7982 37.0971 36.7982 34.9159V14.6324C36.7982 14.5114 36.7938 14.3914 36.7836 14.2734H8.22059Z" fill="white"/>
<path fill-rule="evenodd" clip-rule="evenodd" d="M9.24188 0.0441064C9.40038 -0.0466936 9.60304 0.00720674 9.69454 0.164407L13.0132 5.86661C13.1047 6.02381 13.0504 6.22491 12.8919 6.31561C12.7334 6.40641 12.5307 6.35261 12.4392 6.19531L9.12063 0.493207C9.02913 0.335907 9.08338 0.134806 9.24188 0.0441064ZM35.7596 0.0441064C35.9181 0.134806 35.9724 0.335907 35.8809 0.493207L32.562 6.19531C32.4705 6.35261 32.2678 6.40641 32.1093 6.31561C31.9508 6.22491 31.8966 6.02381 31.9881 5.86661L35.307 0.164407C35.3985 0.00720674 35.6011 -0.0466936 35.7596 0.0441064Z" fill="white"/>
<path fill-rule="evenodd" clip-rule="evenodd" d="M32.7426 33.4914C32.7426 31.7678 31.334 30.3705 29.5964 30.3705V30.3708C27.8591 30.3708 26.4506 31.768 26.4506 33.4914V46.8791C26.4506 48.6026 27.8591 49.9997 29.5964 49.9997C31.334 49.9997 32.7426 48.6026 32.7426 46.8791V33.4914ZM6.29206 19.2009C6.29206 17.4773 4.88342 16.08 3.14612 16.08C1.40839 16.08 -0.000249963 17.4775 3.32706e-08 19.2011V32.5887C3.32706e-08 34.3121 1.40856 35.7093 3.14612 35.7093C4.88342 35.7093 6.29206 34.3121 6.29206 32.5885V19.2009ZM44.9993 19.2009C44.9993 17.4773 43.5907 16.08 41.8533 16.08C40.1158 16.08 38.7072 17.4775 38.7072 19.2011V32.5887C38.7072 34.3121 40.1158 35.7093 41.8533 35.7093C43.5907 35.7093 44.9993 34.3121 44.9993 32.5885V19.2009ZM20.9185 0.930664C13.8818 1.60386 8.39986 6.71216 8.31236 12.9425H36.6865C36.599 6.71256 31.1175 1.60406 24.0804 0.930664H20.9185ZM16.6501 8.94026C17.5493 8.93786 18.2759 8.22976 18.2732 7.35896V7.35006C18.2705 6.47876 17.5398 5.77516 16.6411 5.77756C15.7422 5.77996 15.0155 6.48776 15.0179 7.35896V7.36766C15.0206 8.23856 15.7514 8.94246 16.6501 8.94026ZM28.7999 8.94026C29.699 8.93786 30.4256 8.22976 30.4229 7.35896V7.35006C30.4203 6.47876 29.6895 5.77516 28.7908 5.77756C27.8919 5.77996 27.1652 6.48776 27.1677 7.35896V7.36766C27.1703 8.23856 27.9011 8.94246 28.7999 8.94026Z" fill="white"/>
</svg>
