<svg width="36" height="50" viewBox="0 0 36 50" fill="none" xmlns="http://www.w3.org/2000/svg">
<path fill-rule="evenodd" clip-rule="evenodd" d="M0 2.6152C0 1.1709 1.18507 0 2.64698 0H21.0699C22.5319 0 23.717 1.1709 23.717 2.6152V2.8243H0V2.6152ZM0 4.498V40.1684H0.211755H15.5202C15.4715 39.749 15.4513 39.3246 15.4606 38.8978C15.5129 36.4774 16.5096 34.1703 18.2423 32.4585C19.7272 30.9914 21.6543 30.0586 23.717 29.789V4.498H0ZM15.873 41.8421C16.2841 43.1715 16.9925 44.4065 17.961 45.449C18.46 45.986 19.0163 46.4594 19.6171 46.8632H2.64698C1.18507 46.8632 0 45.6924 0 44.248V41.8421H0.211755H15.873ZM12.7055 43.8295C12.7055 44.2918 12.3263 44.6663 11.8584 44.6663C11.3906 44.6663 11.0114 44.2918 11.0114 43.8295C11.0114 43.3673 11.3906 42.9927 11.8584 42.9927C12.3263 42.9927 12.7055 43.3673 12.7055 43.8295ZM4.03235 6.8904C4.22178 6.5099 4.52599 6.2491 4.92019 6.1233C5.08788 6.0712 5.40447 6.0681 11.8368 6.0681C18.4521 6.065 18.5825 6.065 18.7749 6.1264C19.1692 6.246 19.4766 6.5099 19.6659 6.8904L19.7808 7.1205L19.7901 10.6796L19.7963 14.2419L18.1914 12.6556L18.144 12.6089C16.7075 11.1942 16.5074 10.9971 16.3259 11.0126C16.2965 11.0151 16.2676 11.0231 16.2341 11.0325V11.0326L16.2232 11.0356C16.1425 11.0601 15.6862 11.4927 14.2333 12.9286L12.3458 14.7942L11.4704 13.932C10.9861 13.4564 10.5608 13.0514 10.5236 13.033C10.4304 12.987 10.2473 12.99 10.148 13.0422C10.1014 13.0667 8.82244 14.3186 7.30127 15.8189C5.78327 17.3224 4.52289 18.5528 4.50115 18.5528C4.42043 18.5528 4.15036 18.2398 4.03552 18.0097C3.9579 17.8542 3.91751 17.6833 3.91751 17.51V12.4469V7.1205L4.03235 6.8904ZM9.71647 9.4248C9.52401 8.8295 9.02418 8.3325 8.43435 8.1483C8.17047 8.0655 7.70793 8.044 7.44405 8.1054C6.56866 8.3018 5.91986 9.0995 5.91986 9.9771C5.92295 10.8085 6.4631 11.5479 7.26088 11.8057C7.58999 11.9131 8.13324 11.9131 8.46229 11.8057C9.04593 11.6155 9.51156 11.1399 9.72576 10.514C9.81267 10.2593 9.80647 9.7101 9.71647 9.4248ZM7.54334 8.9921C7.24532 9.0871 6.9908 9.3296 6.87905 9.6211C6.78898 9.8603 6.80453 10.2163 6.91938 10.4372C7.02183 10.6305 7.19571 10.8023 7.39437 10.9066C7.53095 10.9803 7.58373 10.9895 7.86 10.9895C8.13627 10.9895 8.18904 10.9803 8.3257 10.9066C8.543 10.7931 8.75094 10.563 8.83792 10.3421C9.02728 9.845 8.77578 9.2498 8.2884 9.035C8.10833 8.9553 7.72341 8.9338 7.54334 8.9921ZM12.4762 15.8252C12.5476 15.8006 13.1157 15.2606 14.4413 13.9504C15.4657 12.9379 16.3163 12.1095 16.335 12.1095C16.3535 12.1095 17.139 12.8735 18.0827 13.8062L19.7994 15.5029L19.7901 16.6382L19.7829 17.5169C19.7815 17.6857 19.7415 17.8521 19.6659 18.0036C19.4766 18.384 19.1692 18.6479 18.7749 18.7675C18.5825 18.829 18.4521 18.829 12.0541 18.829H5.53177L7.94388 16.4449L10.3591 14.0578L11.25 14.9384C12.2155 15.8865 12.2372 15.9018 12.4762 15.8252ZM2.43522 29.708H21.2818V20.3979H2.43522V29.708ZM9.9738 22.26H19.3971V24.122H9.9738V22.26ZM4.31985 22.26H8.08918V24.122H4.31985V22.26ZM4.31985 25.9839H19.3971V27.8459H4.31985V25.9839Z" fill="white"/>
<path d="M35.7757 48.712L31.8633 44.8469C33.347 43.1061 34.0927 40.8663 33.9452 38.5952C33.7974 36.3242 32.7676 34.1971 31.0705 32.6582C29.3735 31.1192 27.1405 30.2874 24.8376 30.336C22.5346 30.3846 20.3395 31.3102 18.7107 32.9194C17.0819 34.5287 16.1451 36.6972 16.0958 38.9724C16.0465 41.2478 16.8886 43.4539 18.4463 45.1306C20.0039 46.807 22.1568 47.8247 24.4556 47.9705C26.7543 48.1165 29.0214 47.3797 30.7835 45.9138L34.6956 49.7789C34.839 49.9203 35.0331 49.9997 35.2356 49.9997C35.4382 49.9997 35.6324 49.9203 35.7757 49.7789C35.9186 49.6375 35.999 49.4455 35.999 49.2455C35.999 49.0455 35.9186 48.8537 35.7757 48.712Z" fill="white"/>
</svg>
