<svg width="41" height="50" viewBox="0 0 41 50" fill="none" xmlns="http://www.w3.org/2000/svg">
<path d="M30.1761 0C30.2931 0 30.4102 0 30.5338 0C30.8209 3.5538 29.4672 6.2093 27.822 8.1322C26.2077 10.0419 23.9972 11.8941 20.4219 11.6131C20.1834 8.1101 21.5393 5.6516 23.1823 3.7331C24.706 1.9451 27.4996 0.3541 30.1761 0Z" fill="white"/>
<path d="M41 36.597C41 36.6324 41 36.6633 41 36.6965C39.9952 39.7459 38.562 42.3592 36.813 44.7845C35.2164 46.9863 33.2598 49.9493 29.7662 49.9493C26.7474 49.9493 24.7422 48.0042 21.6483 47.9511C18.3756 47.898 16.5758 49.5776 13.5835 50.0002C13.2412 50.0002 12.8989 50.0002 12.5632 50.0002C10.3659 49.6816 8.59264 47.9378 7.30076 46.3667C3.49138 41.7241 0.547668 35.7273 0 28.0531C0 27.3008 0 26.5506 0 25.7982C0.231875 20.3059 2.89513 15.8404 6.4351 13.6762C8.30335 12.5255 10.8716 11.5453 13.7314 11.9834C14.9571 12.1737 16.2092 12.5941 17.3067 13.0102C18.3469 13.4107 19.6476 14.121 20.8798 14.0834C21.7146 14.0591 22.5449 13.6231 23.3863 13.3155C25.8508 12.4238 28.2667 11.4014 31.4511 11.8816C35.2782 12.4614 37.9945 14.1653 39.6728 16.7941C36.4354 18.8587 33.8759 21.97 34.3132 27.2831C34.7018 32.1093 37.502 34.9329 41 36.597Z" fill="white"/>
</svg>
