<svg width="48" height="50" viewBox="0 0 48 50" fill="none" xmlns="http://www.w3.org/2000/svg">
<path fill-rule="evenodd" clip-rule="evenodd" d="M19.2461 16.4502H23.8432C24.4512 16.4502 24.9441 16.936 24.9441 17.5352V29.4711H28.7581V31.6413H23.8432C23.2352 31.6413 22.7423 31.1554 22.7423 30.5562V18.6203H19.2461V16.4502Z" fill="white"/>
<path fill-rule="evenodd" clip-rule="evenodd" d="M0 2.1702C0 0.9717 0.985821 0 2.20189 0H17.5268C18.7428 0 19.7286 0.9717 19.7286 2.1702V2.3438H0V2.1702ZM0 3.7326V33.3335H0.176185H19.4644H19.7286V3.7326H0ZM19.4644 34.7225H19.7286V36.719C19.7286 37.9175 18.7428 38.8891 17.5268 38.8891H2.20189C0.985821 38.8891 0 37.9175 0 36.719V34.7225H0.176185H19.4644ZM10.5689 36.3718C10.5689 36.7553 10.2535 37.0662 9.86434 37.0662C9.47522 37.0662 9.15976 36.7553 9.15976 36.3718C9.15976 35.9882 9.47522 35.6773 9.86434 35.6773C10.2535 35.6773 10.5689 35.9882 10.5689 36.3718ZM3.35429 5.7181C3.51175 5.4023 3.76489 5.1859 4.09287 5.0814C4.23231 5.0381 4.49568 5.0356 9.84624 5.0356C15.3492 5.033 15.4577 5.033 15.6177 5.0839C15.9457 5.1833 16.2014 5.4023 16.3588 5.7181L16.4544 5.9089L16.4621 8.8625L16.4673 11.8185L15.1322 10.5022L15.0966 10.4673C13.8984 9.2898 13.7317 9.126 13.5805 9.1387C13.5562 9.1409 13.5323 9.1476 13.5045 9.1554L13.4951 9.1579C13.4279 9.1782 13.0483 9.5372 11.8398 10.7289L10.2697 12.277L9.54156 11.5616C9.13867 11.1668 8.78488 10.8308 8.75396 10.8155C8.7154 10.7965 8.65843 10.7875 8.60075 10.7885C8.59194 10.7887 8.5832 10.7891 8.57439 10.7898C8.56416 10.7906 8.55393 10.7916 8.54401 10.793C8.50554 10.7984 8.4695 10.8084 8.44148 10.8232C8.40277 10.8433 7.33881 11.8823 6.07348 13.1275C4.81068 14.3749 3.76238 15.3958 3.7442 15.3958C3.70281 15.3958 3.60138 15.2971 3.50742 15.1765C3.44903 15.1018 3.3934 15.0185 3.35689 14.9452C3.29229 14.8164 3.25876 14.6743 3.25876 14.5308V10.3291V5.9089L3.35429 5.7181ZM8.0825 7.821C7.92237 7.3271 7.50673 6.9146 7.01602 6.7619C6.9681 6.747 6.91239 6.7344 6.85219 6.7244C6.81773 6.7187 6.78192 6.7138 6.74525 6.7099C6.69474 6.7044 6.64272 6.7007 6.59086 6.6987C6.52264 6.696 6.45465 6.6964 6.3906 6.7002C6.31726 6.7044 6.2492 6.7131 6.1923 6.7263C5.46403 6.8892 4.9243 7.5513 4.9243 8.2795C4.9269 8.9693 5.37622 9.583 6.03988 9.7969C6.31364 9.8861 6.76556 9.8861 7.03924 9.7969C7.52475 9.639 7.91206 9.2444 8.09029 8.725C8.16261 8.5136 8.15733 8.0578 8.0825 7.821ZM6.27485 7.4619C6.02698 7.5407 5.81515 7.742 5.72221 7.9839C5.6927 8.0623 5.67681 8.1555 5.67429 8.251C5.6728 8.3059 5.67571 8.3615 5.68303 8.4154C5.68672 8.4429 5.69152 8.4699 5.6975 8.4961C5.71104 8.5564 5.73048 8.6126 5.75581 8.6611C5.77918 8.7052 5.80696 8.7477 5.83844 8.7883C5.87739 8.8384 5.92193 8.8852 5.97056 8.9273C6.02611 8.9753 6.08694 9.0172 6.15091 9.0508C6.26454 9.1119 6.30837 9.1196 6.53822 9.1196C6.65413 9.1196 6.72283 9.1175 6.77697 9.1077C6.83016 9.0983 6.86927 9.0811 6.92561 9.0508C7.10628 8.9565 7.2794 8.7656 7.35163 8.5823C7.50917 8.1698 7.30001 7.6757 6.89453 7.4975C6.74486 7.4314 6.42459 7.4136 6.27485 7.4619ZM10.8924 12.6705C11.1529 12.4209 11.5198 12.0627 12.0128 11.5767C12.8649 10.7366 13.5725 10.0491 13.588 10.0491C13.5967 10.0491 13.8078 10.2501 14.1306 10.5641C14.3811 10.8076 14.6989 11.1188 15.0419 11.457L16.4699 12.8651L16.4621 13.8072L16.4562 14.5363C16.4556 14.6009 16.4482 14.6651 16.4342 14.728C16.4179 14.8013 16.3927 14.8725 16.3588 14.9401C16.2014 15.2558 15.9457 15.4749 15.6177 15.5741C15.4576 15.6251 15.3492 15.6251 10.027 15.6251H4.60152L6.60794 13.6467L8.61712 11.6658L9.35813 12.3965C10.1613 13.1833 10.1793 13.1961 10.3781 13.1323C10.3941 13.1269 10.4396 13.0908 10.5191 13.0197C10.6037 12.9442 10.7264 12.8295 10.8924 12.6705ZM17.7029 25.9551H2.0257V30.5558H17.7029V25.9551ZM7.51271 29.0221H3.59343V27.4888H7.51271V29.0221ZM16.1352 29.0221H9.08044V27.4888H16.1352V29.0221ZM17.7029 24.6529H2.0257V16.9272H17.7029V24.6529ZM16.1352 18.4725H8.29662V20.0175H16.1352V18.4725ZM6.72889 18.4725H3.59343V20.0175H6.72889V18.4725ZM16.1352 21.5627H3.59343V23.1077H16.1352V21.5627Z" fill="white"/>
<path fill-rule="evenodd" clip-rule="evenodd" d="M28.2715 13.2814C28.2715 12.0829 29.2573 11.1113 30.4734 11.1113H45.7983C47.0144 11.1113 48.0002 12.0829 48.0002 13.2814V13.4551H28.2715V13.2814ZM28.2715 14.844V44.4449H28.4477H47.7359H48.0002V14.844H28.2715ZM47.7359 45.8338H48.0002V47.8303C48.0002 49.0288 47.0144 50.0005 45.7983 50.0005H30.4734C29.2573 50.0005 28.2715 49.0288 28.2715 47.8303V45.8338H28.4477H47.7359ZM38.8404 47.4831C38.8404 47.8666 38.5249 48.1776 38.1358 48.1776C37.7467 48.1776 37.4312 47.8666 37.4312 47.4831C37.4312 47.0996 37.7467 46.7886 38.1358 46.7886C38.5249 46.7886 38.8404 47.0996 38.8404 47.4831ZM32.0223 16.3609C32.1246 16.2889 32.239 16.2325 32.3644 16.1927C32.5039 16.1494 32.7672 16.1469 38.1178 16.1469C43.6206 16.1444 43.7291 16.1444 43.8892 16.1952C44.2172 16.2946 44.4728 16.5136 44.6304 16.8293L44.7259 17.0202L44.7336 19.9737L44.7388 22.9298L43.4037 21.6134L43.3679 21.5782C42.1699 20.401 42.0032 20.2373 41.852 20.25C41.8251 20.2524 41.7985 20.2604 41.7666 20.2692C41.6994 20.2895 41.3198 20.6484 40.1113 21.84L38.5412 23.3881L37.813 22.6728C37.7391 22.6002 37.6668 22.5297 37.5978 22.463L37.471 22.3405C37.3877 22.2603 37.3119 22.188 37.2473 22.1269C37.1226 22.0091 37.0398 21.9338 37.0254 21.9266C36.9479 21.8884 36.7956 21.8911 36.713 21.9343C36.6909 21.9458 36.3349 22.2891 35.798 22.8134C35.3943 23.2076 34.8882 23.7041 34.345 24.2388C33.0822 25.4862 32.0338 26.5072 32.0158 26.5072C31.9962 26.5072 31.9634 26.4851 31.9243 26.4494C31.9154 26.4413 31.9061 26.4324 31.8966 26.423C31.8708 26.397 31.8434 26.3666 31.8157 26.3333C31.7445 26.2481 31.6726 26.1451 31.6284 26.0565C31.5638 25.9276 31.5302 25.7856 31.5302 25.6418V21.4404V17.0202L31.6259 16.8293C31.6641 16.7527 31.708 16.6818 31.7571 16.6171C31.7686 16.602 31.7804 16.5872 31.7924 16.5728C31.8071 16.5554 31.822 16.5383 31.8375 16.5216C31.8938 16.4614 31.9555 16.4079 32.0223 16.3609ZM36.354 18.9324C36.1939 18.4385 35.7781 18.026 35.2875 17.8731C35.1746 17.8379 35.0179 17.816 34.8624 17.8099C34.8209 17.8084 34.7795 17.808 34.739 17.8086C34.6366 17.8105 34.5401 17.8198 34.4638 17.8376C33.7355 18.0005 33.1959 18.6626 33.1959 19.3906C33.1985 20.0807 33.6478 20.6944 34.3114 20.9082C34.5851 20.9974 35.037 20.9974 35.3107 20.9082C35.7962 20.7504 36.1835 20.3557 36.3618 19.8362C36.4029 19.7158 36.419 19.5162 36.4114 19.323C36.4055 19.1768 36.3862 19.0342 36.354 18.9324ZM34.5463 18.5732C34.2985 18.6522 34.0867 18.8534 33.9937 19.0953C33.9189 19.2939 33.9318 19.5892 34.0274 19.7724C34.1125 19.933 34.2571 20.0754 34.4225 20.1621C34.536 20.2233 34.5799 20.2309 34.8097 20.2309C35.0396 20.2309 35.0835 20.2233 35.197 20.1621C35.3779 20.0678 35.5509 19.8769 35.6232 19.6936C35.7807 19.2811 35.5716 18.7872 35.1662 18.6089C35.0857 18.5732 34.956 18.5517 34.8301 18.5467C34.7214 18.5425 34.6157 18.5509 34.5463 18.5732ZM38.6497 24.2436C38.7091 24.2233 39.1816 23.7752 40.2844 22.6881C41.1364 21.8478 41.8441 21.1603 41.8595 21.1603C41.875 21.1603 42.5283 21.7942 43.3134 22.5684L44.7414 23.9764L44.7336 24.9184L44.7276 25.6476C44.7265 25.7876 44.6933 25.9258 44.6304 26.0515C44.4728 26.3672 44.2172 26.5862 43.8892 26.6854C43.7291 26.7364 43.6206 26.7364 38.2985 26.7364H32.873L34.8796 24.758L36.8885 22.7771L37.6297 23.5078C38.4328 24.2946 38.4509 24.3074 38.6497 24.2436ZM45.9745 37.0663H30.2972V41.6671H45.9745V37.0663ZM35.7843 40.1334H31.8649V38.6H35.7843V40.1334ZM44.4067 40.1334H37.352V38.6H44.4067V40.1334ZM45.9745 35.7643H30.2972V28.0385H45.9745V35.7643ZM44.4067 29.5838H36.5681V31.1288H44.4067V29.5838ZM35.0004 29.5838H31.8649V31.1288H35.0004V29.5838ZM44.4067 32.674H31.8649V34.219H44.4067V32.674Z" fill="white"/>
</svg>
