<svg width="46" height="50" viewBox="0 0 46 50" fill="none" xmlns="http://www.w3.org/2000/svg">
<path d="M21.8492 28.1137C21.5404 28.5659 21.4245 29.1309 21.5017 29.696C21.6561 30.9014 22.5052 31.7303 23.547 31.994C23.7014 32.0316 23.8174 31.881 23.7402 31.7303C23.7014 31.6926 23.663 31.6549 23.6242 31.6549C22.6981 31.4289 21.9648 30.6379 21.8492 29.5453C21.8104 29.1309 21.8876 28.7164 22.1192 28.3399C23.1226 26.6823 25.2838 26.7953 26.21 28.1514C26.4803 28.5659 26.6344 29.0554 26.596 29.5829C26.596 29.6206 26.596 29.6583 26.6344 29.696C26.7116 29.809 26.9432 29.7713 26.9432 29.6206C26.9819 29.0554 26.8275 28.4904 26.5188 28.0007C25.4382 26.456 23.0068 26.3054 21.8492 28.1137Z" fill="white"/>
<path d="M22.8904 42.2962H4.39762V4.7305H32.1369V30.8874C32.2495 30.9431 32.3058 30.9987 32.4187 31.0543C32.5313 30.3864 32.9261 29.7743 33.5462 29.3291C34.1101 28.9394 34.674 28.7725 35.2377 28.8838C35.6323 28.9394 36.027 29.1621 36.4217 29.4404C36.4217 29.3847 36.4781 29.2734 36.5343 29.2178C36.5343 17.8646 36.5343 3.7844 36.5343 3.7844C36.5343 1.7253 34.7866 0 32.7005 0H3.83384C1.74781 0 0 1.7253 0 3.7844V43.2424C0 45.3014 1.74781 47.0268 3.83384 47.0268H27.3444L22.8904 42.2962ZM18.1544 2.0035C18.38 2.0035 18.6055 2.2261 18.6055 2.4488C18.6055 2.6713 18.38 2.8939 18.1544 2.8939C17.929 2.8939 17.7034 2.6713 17.7034 2.4488C17.7034 2.2261 17.929 2.0035 18.1544 2.0035ZM18.4364 45.6353C17.5906 45.858 16.8577 45.0788 17.0832 44.2998C17.196 43.9102 17.4779 43.632 17.8726 43.5206C18.7183 43.298 19.4512 44.0772 19.2257 44.8562C19.1129 45.1902 18.7747 45.5242 18.4364 45.6353Z" fill="white"/>
<path d="M23.4549 41.4063L28.9236 47.1388C31.912 50.3109 36.7605 50.9231 40.4817 48.5857C40.538 48.5857 40.538 48.5299 40.5943 48.5299L42.3423 47.4169C46.007 45.0795 47.0781 40.3489 44.8229 36.676L40.538 29.775C40.0307 28.9958 39.4105 28.6062 38.8466 28.6618C38.2265 28.7176 37.719 29.2184 37.5499 29.608C37.4373 29.8862 37.3807 30.1646 37.4936 30.2758C37.4936 30.2758 37.4936 30.3314 37.5499 30.3314C37.5499 30.3314 38.9595 32.8916 39.5797 33.782C39.7487 34.0046 39.636 34.3384 39.4105 34.5054C39.185 34.6724 38.8466 34.5612 38.6774 34.3384L36.6478 31.222C36.1403 30.3872 35.5766 29.9418 35.1256 29.8306C34.8436 29.775 34.5054 29.8862 34.2234 30.1088C34.2234 30.1088 34.2234 30.1088 34.1671 30.1088C33.4905 30.554 33.265 31.5002 33.7161 32.168L36.0277 35.7854C36.1969 36.008 36.084 36.342 35.8585 36.509H35.8021C35.5766 36.676 35.2383 36.5646 35.0691 36.342L32.9832 33.1142C32.6448 32.5576 32.1375 31.8898 31.5173 31.7228C31.2352 31.6672 30.8971 31.7228 30.5024 32.001C30.2206 32.2236 30.0514 32.4462 29.9948 32.7246C29.8822 33.3367 30.164 34.1157 30.5587 34.8394L31.912 36.8986C32.1939 37.2882 32.363 37.5663 32.4193 37.7333C32.532 37.956 32.4193 38.2897 32.1938 38.4012C31.9683 38.5123 31.63 38.4567 31.5173 38.2342L31.0097 37.455C31.0097 37.3993 30.9535 37.3993 30.9535 37.3437C30.5587 36.7872 30.0514 36.0637 29.6567 35.2846L25.8791 29.3298C25.4282 28.6062 24.4696 28.3836 23.7931 28.8288C23.1166 29.274 22.891 30.2202 23.3421 30.888L30.7843 42.5752C30.8971 42.7977 30.8971 43.0759 30.6716 43.2429C30.446 43.4099 30.164 43.4099 29.9948 43.2429C29.8822 43.1873 29.7693 43.0203 29.6004 42.9089C28.7547 42.1299 26.8378 40.2378 25.0898 40.3489C24.4696 40.5716 23.9622 40.8499 23.4549 41.4063Z" fill="white"/>
<path d="M20.5963 27.5961C20.1339 28.2772 19.9798 29.1098 20.0954 29.9424C20.3266 31.7212 21.5595 33.0078 23.1008 33.3864C23.332 33.462 23.4862 33.1972 23.3707 33.0078C23.332 32.97 23.2935 32.9322 23.2165 32.8944C21.8292 32.5158 20.7505 31.3807 20.5578 29.7154C20.4806 29.1098 20.6348 28.4664 20.9817 27.9367C22.4843 25.4767 25.6825 25.6281 27.0696 27.6717C27.4935 28.3151 27.6861 29.034 27.6476 29.791C27.6476 29.8288 27.6476 29.9047 27.6862 29.9424C27.8019 30.1317 28.1101 30.056 28.1485 29.8288C28.2257 28.9962 27.9946 28.1258 27.4935 27.4068C25.9137 25.0602 22.3303 24.8711 20.5963 27.5961Z" fill="white"/>
<path d="M29.3792 19.2002H7.0918V25.8002H29.3792V19.2002ZM14.8924 23.6002H9.32051V21.4002H14.8924V23.6002ZM27.1505 23.6002H17.1212V21.4002H27.1505V23.6002Z" fill="white"/>
<path d="M7.0918 17.2002H29.3792V6.2002H7.0918V17.2002ZM16.0068 8.4002H27.1505V10.6002H16.0068V8.4002ZM9.32051 8.4002H13.778V10.6002H9.32051V8.4002ZM9.32051 12.8002H27.1505V15.0002H9.32051V12.8002Z" fill="white"/>
</svg>
