<svg width="60" height="60" viewBox="0 0 60 60" fill="none" xmlns="http://www.w3.org/2000/svg">
<path d="M21.4286 23.5717C21.4286 25.3468 19.9894 26.786 18.2143 26.786C16.4392 26.786 15 25.3468 15 23.5717C15 21.7966 16.4392 20.3574 18.2143 20.3574C19.9894 20.3574 21.4286 21.7966 21.4286 23.5717Z" fill="white"/>
<path d="M34.2858 3.2143C34.2858 2.6226 34.7655 2.1429 35.3572 2.1429H44.8028C44.3503 0.8632 43.1429 0.0058 41.7858 0H18.2143C16.4392 0 15 1.4392 15 3.2143V4.2857H34.2858V3.2143Z" fill="white"/>
<path d="M23.5718 36.2142V34.2859C23.5718 31.3274 21.1731 28.9287 18.2146 28.9287C15.2561 28.9287 12.8574 31.3274 12.8574 34.2859V36.2142C14.1936 36.898 15.6485 37.3187 17.1432 37.4541V35.3573H19.286V37.451C20.7801 37.316 22.2351 36.8964 23.5718 36.2142Z" fill="white"/>
<path d="M6.48438 24.6434H8.57287V26.7862H6.48697C6.75637 29.7546 8.13968 32.5106 10.3589 34.5008C10.4735 34.6074 10.597 34.6943 10.7157 34.7921V34.2862C10.7183 31.4874 12.2795 28.9228 14.7644 27.6348C13.0433 26.1851 12.4118 23.8142 13.1835 21.7005C13.9552 19.5865 15.9656 18.1802 18.2158 18.1802C20.4659 18.1802 22.4763 19.5865 23.248 21.7005C24.0197 23.8142 23.3882 26.1851 21.6671 27.6348C24.152 28.9228 25.7131 31.4874 25.7158 34.2862V34.7973C25.8335 34.6985 25.957 34.6085 26.0726 34.506C28.2929 32.5148 29.6766 29.7568 29.9445 26.7862H27.8587V24.6434H29.9471C29.4235 18.987 24.9436 14.5071 19.2872 13.9834V16.0719H17.1443V13.9834C11.4879 14.5071 7.00806 18.987 6.48438 24.6434Z" fill="white"/>
<path d="M36.4277 15.0005H57.8564V4.28613H36.4277V15.0005ZM44.9992 6.42903H55.7135V8.57193H44.9992V6.42903ZM38.5706 6.42903H42.8563V8.57193H38.5706V6.42903ZM38.5706 10.7147H55.7135V12.8576H38.5706V10.7147Z" fill="white"/>
<path d="M23.5715 55.7142C23.5715 56.3059 23.0917 56.7856 22.5 56.7856H15C15 58.5607 16.4392 59.9999 18.2143 59.9999H41.7858C43.5609 59.9999 45.0001 58.5607 45.0001 56.7856V53.5713H23.5715V55.7142ZM28.9286 55.7142H31.0715V57.857H28.9286V55.7142Z" fill="white"/>
<path d="M21.4287 48.2139H0V54.6425H21.4287V48.2139ZM7.5 52.4996H2.1429V50.3567H7.5V52.4996ZM19.2858 52.4996H9.6429V50.3567H19.2858V52.4996Z" fill="white"/>
<path d="M58.7392 21.4287C58.4321 21.4282 58.1354 21.5407 57.9052 21.7437L41.207 36.4779L44.9518 40.2216L59.685 23.5235C60.0126 23.1514 60.0921 22.6226 59.888 22.1705C59.684 21.7191 59.2346 21.4287 58.7392 21.4287Z" fill="white"/>
<path d="M34.2861 42.8575V44.7476C34.2877 45.5852 34.0763 46.4097 33.6719 47.1432H38.5718C41.3629 47.1401 43.6858 44.9967 43.9117 42.2145L39.2148 37.5176C36.4326 37.7441 34.2897 40.0664 34.2861 42.8575Z" fill="white"/>
<path d="M38.5715 49.286H31.0715C30.5698 49.2918 30.1313 48.9485 30.0163 48.4599C29.9018 47.9719 30.1408 47.4691 30.5928 47.2504C31.5439 46.7795 32.1451 45.8091 32.1429 44.7476V42.8574C32.1476 38.8851 35.2489 35.6058 39.2145 35.3788L45.0001 30.2733V17.143H35.3572C34.7655 17.143 34.2858 16.6633 34.2858 16.0716V6.42871H15V12.1746C15.7047 12.0077 16.4209 11.8957 17.1429 11.8403V8.57161H19.2857V11.8403C26.1229 12.3744 31.5543 17.8059 32.0886 24.6431H35.3572V26.7859H32.0859C31.5806 33.6361 26.1359 39.0844 19.2857 39.594V42.8574H17.1429V39.594C16.4209 39.5375 15.7042 39.4244 15 39.2554V46.0717H22.5C23.0917 46.0717 23.5715 46.5515 23.5715 47.1432V51.4289H45.0001V45.6291C43.6488 47.8934 41.2083 49.2819 38.5715 49.286Z" fill="white"/>
<path d="M8.5715 4.28613H0V10.7147H8.5715V4.28613ZM6.4286 8.57193H2.1429V6.42903H6.4286V8.57193Z" fill="white"/>
</svg>
