<svg xmlns="http://www.w3.org/2000/svg" width="47.833" height="65.902" viewBox="0 0 47.833 65.902">
  <g id="Feedback" transform="translate(-1191.138 -366.569)">
    <g id="Study_Behaviour_Flows" data-name="Study Behaviour Flows" transform="translate(1208.411 391.559)">
      <g id="person" transform="translate(0 0)">
        <g id="Group_518" data-name="Group 518" transform="translate(0 0)">
          <path id="Path_1744" data-name="Path 1744" d="M645.576,1145.854a12.4,12.4,0,1,0-17.926-.075,12.938,12.938,0,0,0-1.191,1.075c-5.385,5.566-5.14,14.654-5.095,15.672a3.432,3.432,0,0,0,3.428,3.277H648.47a3.431,3.431,0,0,0,3.427-3.267c.019-.4.4-9.756-4.97-15.452A13.269,13.269,0,0,0,645.576,1145.854Zm-8.929-14.1a5.531,5.531,0,1,1-5.532,5.531A5.538,5.538,0,0,1,636.647,1131.752Zm-8.226,27.189c.34-2.446,1.168-5.463,2.983-7.33a6.754,6.754,0,0,1,5.2-1.936,7.028,7.028,0,0,1,5.312,2.1c1.769,1.866,2.581,4.791,2.919,7.166Z" transform="translate(-621.35 -1124.89)" fill="#0092ff"/>
        </g>
      </g>
    </g>
    <g id="Group_768" data-name="Group 768" transform="translate(1191.138 366.569)">
      <g id="Group_767" data-name="Group 767" transform="translate(0)">
        <path id="Path_2050" data-name="Path 2050" d="M296.021,343.973a2.336,2.336,0,0,0,.058-3.535l-5.589-5.024a4.09,4.09,0,0,0-2.893-1.19l-10.587.022L277,323H304.83l.027,11.362-6.053-.022a2.211,2.211,0,0,0-2.456,2.38,2.3,2.3,0,0,0,2.429,2.518h7.175a3.745,3.745,0,0,0,3.74-3.741V321.79a3.744,3.744,0,0,0-3.74-3.739H275.91a3.744,3.744,0,0,0-3.74,3.739V335.5a3.745,3.745,0,0,0,3.74,3.741h11.1l5.462,4.658C293.009,344.429,295.042,344.963,296.021,343.973Z" transform="translate(-272.17 -318.051)" fill="#0092ff"/>
      </g>
      <path id="Path_2051" data-name="Path 2051" d="M284.407,327.778l2.043.288a.17.17,0,0,1,.1.289l-1.472,1.446a.169.169,0,0,0-.048.15l.356,2.032a.17.17,0,0,1-.246.181l-1.829-.953a.172.172,0,0,0-.158,0l-1.822.967a.169.169,0,0,1-.247-.178l.34-2.035a.171.171,0,0,0-.049-.15l-1.484-1.434a.17.17,0,0,1,.093-.29l2.041-.3a.171.171,0,0,0,.127-.093l.905-1.854a.17.17,0,0,1,.3,0l.92,1.847A.171.171,0,0,0,284.407,327.778Z" transform="translate(-272.774 -318.657)" fill="#0092ff"/>
      <path id="Path_2052" data-name="Path 2052" d="M293.22,327.778l2.043.288a.17.17,0,0,1,.095.289l-1.472,1.446a.171.171,0,0,0-.048.15l.357,2.032a.17.17,0,0,1-.246.181l-1.83-.953a.17.17,0,0,0-.158,0l-1.823.967a.169.169,0,0,1-.247-.178l.341-2.035a.169.169,0,0,0-.05-.15l-1.483-1.434a.17.17,0,0,1,.093-.29l2.04-.3a.172.172,0,0,0,.128-.093l.905-1.854a.169.169,0,0,1,.3,0l.921,1.847A.171.171,0,0,0,293.22,327.778Z" transform="translate(-273.469 -318.657)" fill="#0092ff"/>
      <path id="Path_2053" data-name="Path 2053" d="M302.032,327.778l2.043.288a.17.17,0,0,1,.1.289L302.7,329.8a.169.169,0,0,0-.048.15l.356,2.032a.17.17,0,0,1-.246.181l-1.829-.953a.172.172,0,0,0-.158,0l-1.822.967A.169.169,0,0,1,298.7,332l.34-2.035a.171.171,0,0,0-.049-.15l-1.484-1.434a.17.17,0,0,1,.093-.29l2.041-.3a.171.171,0,0,0,.127-.093l.905-1.854a.17.17,0,0,1,.3,0l.92,1.847A.171.171,0,0,0,302.032,327.778Z" transform="translate(-274.164 -318.657)" fill="#0092ff"/>
    </g>
  </g>
</svg>
