<svg xmlns="http://www.w3.org/2000/svg" width="67.885" height="67.029" viewBox="0 0 67.885 67.029">
  <g id="Set_Objectives" data-name="Set Objectives" transform="translate(-437.503 -110.109)">
    <g id="Group_748" data-name="Group 748" transform="translate(448.836 135.482)">
      <path id="Path_2039" data-name="Path 2039" d="M463.971,165.75a15.162,15.162,0,1,1,3.582-29.9,3.007,3.007,0,0,1-1.415,5.846,9.15,9.15,0,1,0,6.982,8.891,3.007,3.007,0,1,1,6.013,0A15.18,15.18,0,0,1,463.971,165.75Z" transform="translate(-448.811 -135.426)" fill="#0092ff"/>
    </g>
    <g id="Group_749" data-name="Group 749" transform="translate(437.503 124.149)">
      <path id="Path_2040" data-name="Path 2040" d="M464,177.107a26.494,26.494,0,0,1,0-52.989,26.246,26.246,0,0,1,11.537,2.638,3.007,3.007,0,1,1-2.621,5.412A20.286,20.286,0,0,0,464,130.131a20.465,20.465,0,1,0,18.628,11.953,3.007,3.007,0,1,1,5.467-2.506A26.506,26.506,0,0,1,464,177.107Z" transform="translate(-437.503 -124.118)" fill="#0092ff"/>
    </g>
    <g id="Group_751" data-name="Group 751" transform="translate(462.256 110.109)">
      <g id="Group_750" data-name="Group 750">
        <path id="Path_2041" data-name="Path 2041" d="M505.037,123.4a4.974,4.974,0,0,0-4.173-3.273l-4.233-.456-.264-4.833a5.006,5.006,0,0,0-8.3-3.478l-6.835,6.02a4.95,4.95,0,0,0-1.691,3.957l.4,9.965-16.858,17.276a3,3,0,1,0,4.233,4.257l16.666-17.109,9.533.876c.156.012.313.024.468.024a5,5,0,0,0,3.574-1.511l6.355-6.535A4.982,4.982,0,0,0,505.037,123.4Zm-20.488-.181,5.829-5.122.184,3.425-5.858,5.688Zm7.407,8.122-3.809-.34,5.742-5.361,3.278.354Z" transform="translate(-462.202 -110.109)" fill="#0092ff"/>
      </g>
    </g>
  </g>
</svg>
