<svg xmlns="http://www.w3.org/2000/svg" width="66.025" height="68.038" viewBox="0 0 66.025 68.038">
  <g id="Study_Behaviour_Flows" data-name="Study Behaviour Flows" transform="translate(-827.347 -378.193)">
    <g id="person" transform="translate(847.439 378.193)">
      <g id="Group_518" data-name="Group 518" transform="translate(0 0)">
        <path id="Path_1744" data-name="Path 1744" d="M642.9,1143.541a11.028,11.028,0,1,0-15.948-.067,11.508,11.508,0,0,0-1.06.957c-4.791,4.952-4.573,13.037-4.532,13.943a3.053,3.053,0,0,0,3.05,2.915h21.064a3.052,3.052,0,0,0,3.049-2.906c.017-.353.355-8.68-4.422-13.747A11.817,11.817,0,0,0,642.9,1143.541Zm-7.943-12.546a4.92,4.92,0,1,1-4.921,4.921A4.927,4.927,0,0,1,634.959,1130.995Zm-7.318,24.189c.3-2.176,1.039-4.86,2.654-6.521a6.008,6.008,0,0,1,4.628-1.722,6.252,6.252,0,0,1,4.726,1.868,11.953,11.953,0,0,1,2.6,6.375Z" transform="translate(-621.35 -1124.89)" fill="#fc7754"/>
      </g>
    </g>
    <g id="Group_757" data-name="Group 757" transform="translate(827.347 407.692)">
      <path id="Path_2045" data-name="Path 2045" d="M664.705,155.572l-10.147,9.645a2.325,2.325,0,0,1-3.582-.461,2.432,2.432,0,0,1,.474-3l3.8-3.614c-7.441-.353-12.993,1.19-16.527,4.6a14.89,14.89,0,0,0-4.232,10.212v.186a1.879,1.879,0,0,0-.009.214v10.29a.815.815,0,0,1-.816.815h-3.94a.815.815,0,0,1-.816-.815v-10.29a1.855,1.855,0,0,0-.009-.214v-.167a14.871,14.871,0,0,0-4.278-10.277c-3.543-3.385-9.077-4.9-16.481-4.557l3.814,3.632a2.4,2.4,0,0,1,.446,2.988,2.317,2.317,0,0,1-3.572.458l-10.147-9.645,10.2-9.068a2.326,2.326,0,0,1,3.088,3.478l-2.865,2.548c8.436-.2,14.965,1.888,19.438,6.194a18.668,18.668,0,0,1,3.153,4.018,18.333,18.333,0,0,1,3.144-4.018c4.464-4.316,11-6.39,19.438-6.194l-2.865-2.548A2.326,2.326,0,1,1,654.5,146.5Z" transform="translate(-598.68 -145.921)" fill="#fc7754"/>
    </g>
  </g>
</svg>
