<svg xmlns="http://www.w3.org/2000/svg" width="60" height="66.961" viewBox="0 0 60 66.961">
  <g id="Usability_Review" data-name="Usability Review" transform="translate(-74.25 -57.752)">
    <g id="Gather_Insights" data-name="Gather Insights" transform="translate(104.996 73.01)">
      <g id="Group_538" data-name="Group 538" transform="translate(0)">
        <path id="Path_1827" data-name="Path 1827" d="M1290.9,1257.663c-6.22,0-11.094,3.22-11.094,7.332s4.873,7.333,11.094,7.333,11.093-3.22,11.093-7.333S1297.118,1257.663,1290.9,1257.663Zm.391,10.05a2.524,2.524,0,1,1,2.524-2.524A2.527,2.527,0,0,1,1291.289,1267.712Zm-8.7-2.718c0-1.985,2.606-3.77,5.981-4.352a5.289,5.289,0,0,0-.743,8.553C1284.817,1268.5,1282.586,1266.832,1282.586,1264.995Zm12.505,3.886a5.286,5.286,0,0,0-.69-7.98c2.788.753,4.808,2.346,4.808,4.094C1299.21,1266.6,1297.516,1268.066,1295.091,1268.88Z" transform="translate(-1279.805 -1257.663)" fill="#ffb300"/>
      </g>
    </g>
    <g id="Group_774" data-name="Group 774" transform="translate(74.25 57.752)">
      <g id="Group_769" data-name="Group 769" transform="translate(0)">
        <path id="Path_2054" data-name="Path 2054" d="M-24.223,348.131a2.538,2.538,0,0,0-2.763-2.28,2.532,2.532,0,0,0-2.28,2.763,13.208,13.208,0,0,1-.7,5.677,13.232,13.232,0,0,1-6.809,7.577,13.248,13.248,0,0,1-10.166.538,13.317,13.317,0,0,1-8.107-16.974A13.318,13.318,0,0,1-39.7,336.865l-1.227.538a2.537,2.537,0,0,0-1.306,3.341,2.543,2.543,0,0,0,2.328,1.52,2.59,2.59,0,0,0,1.013-.214l8.155-3.571-.839-7.949a2.535,2.535,0,0,0-2.787-2.256,2.534,2.534,0,0,0-2.248,2.787l.15,1.457A18.38,18.38,0,0,0-56.446,337.9H-77.973a6.17,6.17,0,0,0-6.167,6.167v44.993a6.168,6.168,0,0,0,6.167,6.16h35.358a6.173,6.173,0,0,0,6.167-6.16V367.2a18.683,18.683,0,0,0,1.853-.768,18.233,18.233,0,0,0,9.4-10.451A18.173,18.173,0,0,0-24.223,348.131Zm-17.291,40.931a1.1,1.1,0,0,1-1.1,1.093H-77.973a1.1,1.1,0,0,1-1.1-1.093V344.069a1.1,1.1,0,0,1,1.1-1.1h18.431c-.1.253-.2.515-.293.776a18.389,18.389,0,0,0,11.2,23.435A18.251,18.251,0,0,0-42.5,368.24c.333,0,.657-.008.99-.032Z" transform="translate(84.14 -328.261)" fill="#ffb300"/>
      </g>
      <g id="Group_770" data-name="Group 770" transform="translate(7.688 25.972)">
        <path id="Path_2055" data-name="Path 2055" d="M-62.692,366.134h-9.2a2.534,2.534,0,0,1-2.533-2.534,2.534,2.534,0,0,1,2.533-2.534h9.2a2.534,2.534,0,0,1,2.533,2.534A2.534,2.534,0,0,1-62.692,366.134Z" transform="translate(74.429 -361.066)" fill="#ffb300"/>
      </g>
      <g id="Group_771" data-name="Group 771" transform="translate(7.688 34.907)">
        <path id="Path_2056" data-name="Path 2056" d="M-62.692,377.419h-9.2a2.534,2.534,0,0,1-2.533-2.533,2.534,2.534,0,0,1,2.533-2.534h9.2a2.534,2.534,0,0,1,2.533,2.534A2.534,2.534,0,0,1-62.692,377.419Z" transform="translate(74.429 -372.351)" fill="#ffb300"/>
      </g>
      <g id="Group_772" data-name="Group 772" transform="translate(7.688 43.842)">
        <path id="Path_2057" data-name="Path 2057" d="M-43.955,388.7H-71.9a2.534,2.534,0,0,1-2.533-2.534,2.533,2.533,0,0,1,2.533-2.533h27.94a2.533,2.533,0,0,1,2.534,2.533A2.534,2.534,0,0,1-43.955,388.7Z" transform="translate(74.429 -383.637)" fill="#ffb300"/>
      </g>
      <g id="Group_773" data-name="Group 773" transform="translate(7.688 52.776)">
        <path id="Path_2058" data-name="Path 2058" d="M-43.955,399.989H-71.9a2.533,2.533,0,0,1-2.533-2.533,2.533,2.533,0,0,1,2.533-2.534h27.94a2.533,2.533,0,0,1,2.534,2.534A2.533,2.533,0,0,1-43.955,399.989Z" transform="translate(74.429 -394.922)" fill="#ffb300"/>
      </g>
    </g>
  </g>
</svg>
