<svg xmlns="http://www.w3.org/2000/svg" width="111.038" height="102" viewBox="0 0 111.038 102">
  <g id="IPhone_Mobile_Design" data-name="IPhone Mobile Design" transform="translate(-75.6 -31.836)">
    <path id="Path_7986" data-name="Path 7986" d="M119.318,235.96H75.6v9.732h43.718Zm-15,5.973H80.441a1.1,1.1,0,1,1,0-2.2h23.875a1.106,1.106,0,0,1,1.1,1.1A1.1,1.1,0,0,1,104.316,241.933Zm10.161,0h-4.566a1.1,1.1,0,1,1,0-2.2h4.566a1.1,1.1,0,1,1,0,2.2Z" transform="translate(0 -162.033)" fill="#05a8da"/>
    <path id="Path_7987" data-name="Path 7987" d="M333.912,252.25a1,1,0,0,0-.738.309,1.056,1.056,0,1,0,1.493,0A1.177,1.177,0,0,0,333.912,252.25Z" transform="translate(-205.221 -175.027)" fill="none" stroke="#022e47" stroke-width="1"/>
    <path id="Path_7988" data-name="Path 7988" d="M321.828,235.96H309.109v9.732h12.719Zm-3.656,7.569a.62.62,0,0,1-.463.189.663.663,0,0,1-.463-.189l-1.15-1.15a2.348,2.348,0,0,1-2.8-3.724,2.447,2.447,0,0,1,3.364,0,2.367,2.367,0,0,1,.378,2.8l1.15,1.15a.668.668,0,0,1-.017.926Z" transform="translate(-186.271 -162.033)" fill="none" stroke="#022e47" stroke-width="1"/>
    <path id="Path_7989" data-name="Path 7989" d="M119.318,310.46H75.6v9.732h43.718Zm-34.38,5.973h-4.5a1.1,1.1,0,1,1,0-2.2h4.5a1.1,1.1,0,1,1,0,2.2Zm29.539,0H90.534a1.106,1.106,0,0,1-1.1-1.1,1.1,1.1,0,0,1,1.1-1.1h23.944a1.1,1.1,0,1,1,0,2.2Z" transform="translate(0 -221.462)" fill="#05a8da"/>
    <path id="Path_7990" data-name="Path 7990" d="M309.1,320.283h12.719v-9.732H309.1Zm4.172-7.072a2.357,2.357,0,0,1,3.742,2.8l1.15,1.15a.652.652,0,0,1,0,.927.621.621,0,0,1-.463.189.663.663,0,0,1-.463-.189l-1.15-1.15a2.336,2.336,0,0,1-1.116.326,2.308,2.308,0,0,1-1.682-.7,2.347,2.347,0,0,1-.017-3.347Z" transform="translate(-186.264 -221.534)" fill="none" stroke="#022e47" stroke-width="1"/>
    <path id="Path_7991" data-name="Path 7991" d="M334.642,328.552a1.05,1.05,0,1,0-1.476,0,1.037,1.037,0,0,0,1.476,0Z" transform="translate(-205.215 -234.456)" fill="none" stroke="#022e47" stroke-width="1"/>
    <path id="Path_7992" data-name="Path 7992" d="M261.39,39.891a7.054,7.054,0,0,0-7.054-7.054H211.2a7.054,7.054,0,0,0-7.054,7.054v2.06h57.244Z" transform="translate(-102.543 0)" fill="none" stroke="#022e47" stroke-width="2"/>
    <path id="Path_7993" data-name="Path 7993" d="M561.132,328.833a1.081,1.081,0,0,0,.772.326,1.048,1.048,0,0,0,.772-.326,1.109,1.109,0,0,0,0-1.562l-2.386-2.386a1.1,1.1,0,0,0-1.562,1.562Z" transform="translate(-385.136 -232.712)" fill="#05a8da"/>
    <path id="Path_7994" data-name="Path 7994" d="M483.405,323.165l-3.072,3.072a1.109,1.109,0,0,0,0,1.562,1.081,1.081,0,0,0,.772.326,1.048,1.048,0,0,0,.772-.326l3.073-3.072a1.109,1.109,0,0,0,0-1.562A1.072,1.072,0,0,0,483.405,323.165Z" transform="translate(-322.6 -231.335)" fill="#05a8da"/>
    <path id="Path_7995" data-name="Path 7995" d="M457.161,227.22a18.829,18.829,0,1,0,18.829,18.829A18.826,18.826,0,0,0,457.161,227.22Zm10.3,11.243-10.3,7.347-10.3-7.347Zm1.888,15.173H444.975V239.818l11.552,8.239a1.082,1.082,0,0,0,1.271,0l11.552-8.239Z" transform="translate(-289.353 -155.061)" fill="#05a8da"/>
    <path id="Path_7996" data-name="Path 7996" d="M249.315,135.659a21.04,21.04,0,0,1,12.067-19V88.834H204.138V116.4h36.148v29.214H204.138v14.007h57.244v-4.977a21,21,0,0,1-12.067-18.984Zm3.742-38.57h2.523a1.3,1.3,0,0,1,0,2.609h-2.523a1.3,1.3,0,1,1,0-2.609Zm-18.589,0h12.719a1.3,1.3,0,1,1,0,2.609H234.468a1.3,1.3,0,0,1-1.3-1.3A1.327,1.327,0,0,1,234.468,97.089Zm0,6.282h5.253a1.3,1.3,0,1,1,0,2.609h-5.253a1.3,1.3,0,0,1-1.3-1.3A1.326,1.326,0,0,1,234.468,103.371Zm-7.158,8.892H208.653V93.588h18.658Zm15.706,0h-8.53a1.3,1.3,0,0,1,0-2.609h8.53a1.3,1.3,0,0,1,0,2.609Zm2.128-7.587a1.3,1.3,0,0,1,1.3-1.3h9.132a1.3,1.3,0,0,1,0,2.609h-9.132A1.3,1.3,0,0,1,245.144,104.676Zm3,6.282a1.3,1.3,0,0,1,1.3-1.3h6.127a1.3,1.3,0,0,1,0,2.609h-6.127A1.3,1.3,0,0,1,248.148,110.958Z" transform="translate(-102.535 -44.67)" fill="none" stroke="#022e47" stroke-width="2"/>
    <path id="Path_7997" data-name="Path 7997" d="M237.83,134.023a1.3,1.3,0,0,0,2.609,0,4.411,4.411,0,0,1,8.822,0,1.3,1.3,0,1,0,2.609,0,6.972,6.972,0,0,0-3.4-5.973,5.023,5.023,0,1,0-8.65-3.468,4.982,4.982,0,0,0,1.407,3.468,6.993,6.993,0,0,0-3.4,5.973Zm7.02-11.878a2.437,2.437,0,1,1-2.437,2.437A2.435,2.435,0,0,1,244.85,122.145Z" transform="translate(-129.412 -69.174)" fill="#05a8da"/>
    <path id="Path_7998" data-name="Path 7998" d="M204.14,458.313a7.054,7.054,0,0,0,7.054,7.054h43.152a7.054,7.054,0,0,0,7.054-7.054V449.7H204.14Zm28.631-3.931a3.158,3.158,0,1,1-3.158,3.158A3.161,3.161,0,0,1,232.771,454.382Z" transform="translate(-102.537 -332.531)" fill="none" stroke="#022e47" stroke-width="2"/>
  </g>
</svg>
