<svg xmlns="http://www.w3.org/2000/svg" width="57.422" height="101.7" viewBox="0 0 57.422 101.7">
  <g id="iOS_App_Development" data-name="iOS App  Development" transform="translate(-233.15 -238.15)">
    <g id="smartphone-iphone-svgrepo-com" transform="translate(220.715 239)">
      <path id="Path_7982" data-name="Path 7982" d="M58.176,0H24.117A10.8,10.8,0,0,0,13.285,10.747V89.255A10.8,10.8,0,0,0,24.117,100H58.174A10.8,10.8,0,0,0,69.007,89.255V10.747A10.8,10.8,0,0,0,58.176,0Zm7.252,89.255a7.217,7.217,0,0,1-7.252,7.164H24.117a7.216,7.216,0,0,1-7.25-7.164V10.747h0a7.215,7.215,0,0,1,7.25-7.164H58.176a7.217,7.217,0,0,1,7.252,7.164S65.43,89.255,65.428,89.255ZM61.745,10.523H20.552a.894.894,0,0,0-.895.895V80.995a.9.9,0,0,0,.895.9H61.745a.9.9,0,0,0,.9-.9V11.418A.9.9,0,0,0,61.745,10.523ZM60.85,80.1H21.445V12.313h39.4S60.849,80.1,60.85,80.1Zm-19.7,3.284a5.472,5.472,0,1,0,5.471,5.472A5.48,5.48,0,0,0,41.149,83.383Zm0,9.153a3.682,3.682,0,1,1,3.681-3.681A3.686,3.686,0,0,1,41.149,92.536ZM35.225,7.005a.738.738,0,0,1,.8-.66h10.25a.736.736,0,0,1,.795.66.734.734,0,0,1-.793.66H36.023A.741.741,0,0,1,35.225,7.005Z" transform="translate(0 0)" fill="none" stroke="#022e47" stroke-width="1.7"/>
    </g>
    <g id="noun-development-1449053" transform="translate(247.272 273.352)">
      <path id="Path_6769" data-name="Path 6769" d="M154.359,128.021l-7.5-7.5a.755.755,0,0,0-1.067,1.067l6.967,6.967-6.967,6.967a.755.755,0,1,0,1.067,1.068l7.5-7.5a.755.755,0,0,0,0-1.067Zm-21.44-7.5a.755.755,0,0,0-1.068,0l-7.5,7.5a.754.754,0,0,0,0,1.067l7.5,7.5a.755.755,0,0,0,1.067-1.067l-6.967-6.967,6.967-6.967a.755.755,0,0,0,0-1.067Zm2.45-2.472a.755.755,0,1,0-1.372.629l9.343,20.384a.755.755,0,1,0,1.372-.629Z" transform="translate(-124.129 -117.608)" fill="#05a8da"/>
    </g>
  </g>
</svg>
