<svg xmlns="http://www.w3.org/2000/svg" width="55.977" height="101.7" viewBox="0 0 55.977 101.7">
  <g id="Apple_Watch_App_Development" data-name="Apple Watch App Development" transform="translate(-1607.011 -1687.649)">
    <g id="Hire_Android_Wearable_Applications_Developer" data-name="Hire Android Wearable Applications Developer" transform="translate(1130.114 748.499)">
      <g id="noun-smartwatch-197364" transform="translate(477.747 940)">
        <path id="Path_7655" data-name="Path 7655" d="M270.508,69.613v6.61a1.663,1.663,0,0,1-1.663,1.663h-1.91a18.742,18.742,0,0,1,0-9.936h1.91a1.665,1.665,0,0,1,1.663,1.663Zm-2.345,15.929h-.257a1.641,1.641,0,0,0-1.641,1.64V98.931a1.641,1.641,0,0,0,1.641,1.64h.257a.226.226,0,0,0,.224-.224V85.765a.225.225,0,0,0-.224-.223Zm-41.347,29.47a12.127,12.127,0,0,1-2.942-.374l.009.01a7.844,7.844,0,0,1,1.732,3.856c.521,3.909,1.1,11.074,1.1,11.074a3.522,3.522,0,0,0,2.546,2.573c.391.094.787.185,1.19.271a55.785,55.785,0,0,0,22.344,0c.4-.086.8-.178,1.19-.271a3.522,3.522,0,0,0,2.546-2.573s.581-7.166,1.1-11.074a7.83,7.83,0,0,1,1.732-3.856c.007-.01.014-.017.022-.026a12.1,12.1,0,0,1-3,.391H226.816Zm29.564-62.869a12.039,12.039,0,0,1,3.055.406c-.025-.03-.05-.057-.075-.089a7.847,7.847,0,0,1-1.732-3.856c-.521-3.909-1.1-11.074-1.1-11.074a3.519,3.519,0,0,0-2.545-2.575,6.354,6.354,0,0,0-1.19-.272,55.785,55.785,0,0,0-22.344,0,6.372,6.372,0,0,0-1.19.272,3.521,3.521,0,0,0-2.546,2.573s-.581,7.166-1.1,11.074a7.829,7.829,0,0,1-1.732,3.856c-.021.025-.042.048-.063.072a12.128,12.128,0,0,1,3-.389h29.566Zm10.581,49.834v.892a10.581,10.581,0,0,1-10.58,10.58H226.814a10.583,10.583,0,0,1-10.583-10.58V64.286a10.582,10.582,0,0,1,10.583-10.58h29.564a10.581,10.581,0,0,1,10.58,10.58v2.1h-.024a1.564,1.564,0,0,0-1.5,1.113,20.3,20.3,0,0,0,0,10.835,1.563,1.563,0,0,0,1.5,1.113h.024v4.688a3.2,3.2,0,0,0-2.258,3.046V98.932a3.2,3.2,0,0,0,2.258,3.046Zm-5.594-41.035H221.887v45.271h39.479Z" transform="translate(-216.231 -33.553)" fill="none" stroke="#022e47" stroke-width="1.7"/>
      </g>
    </g>
    <g id="Group_37450" data-name="Group 37450" transform="translate(1618.755 1729.044)">
      <path id="Path_7881" data-name="Path 7881" d="M350.65,241.92l-4.205,4.205-2.233,2.241,2.233,2.225,4.205,4.205,2.233-2.232-4.206-4.2,4.206-4.214Z" transform="translate(-344.212 -238.905)" fill="#05a8da"/>
      <path id="Path_7882" data-name="Path 7882" d="M471.98,246.124l-4.205-4.205-2.233,2.232,4.206,4.214-4.206,4.2,2.233,2.232,4.205-4.205,2.233-2.225Z" transform="translate(-445.028 -238.905)" fill="#05a8da"/>
      <path id="Path_7884" data-name="Path 7884" d="M407.14,242.183l4.848-18.093,3.049.817L410.189,243Z" transform="translate(-396.5 -224.09)" fill="#05a8da"/>
    </g>
  </g>
</svg>
