<svg xmlns="http://www.w3.org/2000/svg" width="141.105" height="102" viewBox="0 0 141.105 102">
  <g id="Ipad_App_Development" data-name="Ipad App Development" transform="translate(-545.568 -387)">
    <g id="noun-tablet-1050079" transform="translate(546.568 388)">
      <path id="Path_6724" data-name="Path 6724" d="M224.382,195.318H100.921A7.83,7.83,0,0,1,93.1,187.5V103.14a7.829,7.829,0,0,1,7.822-7.822H224.382a7.829,7.829,0,0,1,7.822,7.822V187.5A7.831,7.831,0,0,1,224.382,195.318ZM100.921,97.552a5.594,5.594,0,0,0-5.587,5.587V187.5a5.6,5.6,0,0,0,5.587,5.588H224.382a5.6,5.6,0,0,0,5.588-5.588V103.139a5.594,5.594,0,0,0-5.588-5.587Z" transform="translate(-93.099 -95.318)" fill="none" stroke="#022e47" stroke-width="2"/>
      <path id="Path_6725" data-name="Path 6725" d="M255.853,206.509H144.68V119.73H255.85Zm-108.936-2.234h106.7v-82.31h-106.7Z" transform="translate(-130.715 -113.121)" fill="none" stroke="#022e47" stroke-width="2"/>
      <path id="Path_6726" data-name="Path 6726" d="M118.12,252.071a1.676,1.676,0,0,1-3.352,0V224.418a1.676,1.676,0,0,1,3.352,0Z" transform="translate(-108.901 -188.244)" fill="none" stroke="#022e47" stroke-width="2"/>
      <path id="Path_6727" data-name="Path 6727" d="M570.54,269.215a4,4,0,1,1-4-4,4,4,0,0,1,4,4" transform="translate(-435.439 -219.215)" fill="none" stroke="#022e47" stroke-width="2"/>
    </g>
    <g id="noun-development-1449053" transform="translate(587.352 415.81)">
      <path id="Path_6769" data-name="Path 6769" d="M180.709,137.1l-14.04-14.038a1.413,1.413,0,0,0-2,2l13.04,13.04-13.04,13.04a1.413,1.413,0,1,0,2,2l14.04-14.038a1.413,1.413,0,0,0,0-2Zm-40.128-14.038a1.412,1.412,0,0,0-2,0L124.543,137.1a1.412,1.412,0,0,0,0,2l14.04,14.038a1.413,1.413,0,0,0,2-2L127.54,138.1l13.04-13.041a1.413,1.413,0,0,0,0-2Zm4.586-4.627a1.413,1.413,0,1,0-2.569,1.177l17.487,38.152a1.413,1.413,0,1,0,2.569-1.177Z" transform="translate(-124.129 -117.608)" fill="#05a8da"/>
    </g>
  </g>
</svg>
