<svg xmlns="http://www.w3.org/2000/svg" width="97.215" height="102" viewBox="0 0 97.215 102">
  <g id="React_Native_iOS_App_Development" data-name="React Native iOS App Development" transform="translate(-344 -499)">
    <g id="tablet-ipad-svgrepo-com" transform="translate(345 500)">
      <g id="Group_37452" data-name="Group 37452" transform="translate(0)">
        <g id="Group_37451" data-name="Group 37451">
          <path id="Path_7983" data-name="Path 7983" d="M90.083,75A2.084,2.084,0,0,0,88,77.084v2.083H25.5V10.417a6.258,6.258,0,0,1,6.25-6.25h50A6.258,6.258,0,0,1,88,10.417V18.75a2.083,2.083,0,1,0,4.167,0V10.417A10.429,10.429,0,0,0,81.75,0h-50A10.429,10.429,0,0,0,21.333,10.417V89.583A10.429,10.429,0,0,0,31.75,100h50A10.428,10.428,0,0,0,92.167,89.584v-12.5A2.084,2.084,0,0,0,90.083,75ZM60.916,91.667H52.583a2.083,2.083,0,1,1,0-4.167h8.333a2.083,2.083,0,1,1,0,4.167Z" transform="translate(-21.333)" fill="none" stroke="#022e47" stroke-width="2"/>
          <path id="Path_7985" data-name="Path 7985" d="M64,44.749a2.083,2.083,0,1,0,2.083-2.083A2.084,2.084,0,0,0,64,44.749Z" transform="translate(-55.667 -34.333)" fill="none" stroke="#022e47" stroke-width="2"/>
        </g>
      </g>
    </g>
    <g id="react-logo-svgrepo-com" transform="translate(387.402 521.976)">
      <path id="Path_1796" data-name="Path 1796" d="M.754,24.889c0,4.064,3.968,7.858,10.225,10-1.249,6.29-.224,11.359,3.2,13.334,3.521,2.03,8.765.625,13.744-3.727,4.853,4.176,9.757,5.819,13.179,3.838,3.517-2.036,4.587-7.449,3.3-13.935,6.516-2.154,10.162-5.389,10.162-9.507,0-3.97-3.976-7.4-10.148-9.529C45.8,8.606,44.631,3.66,41.064,1.6c-3.439-1.983-8.4-.255-13.324,4.03C22.617,1.085,17.7-.3,14.141,1.759,10.706,3.748,9.725,8.91,10.979,15.316,4.934,17.423.754,20.935.754,24.889Z" transform="translate(-0.754 -0.785)" fill="#fff"/>
      <path id="Path_1797" data-name="Path 1797" d="M54.537,28.3q-.763-.262-1.538-.485.129-.522.238-1.049c1.165-5.653.4-10.207-2.2-11.706-2.493-1.438-6.57.061-10.688,3.645q-.609.531-1.19,1.092-.389-.373-.792-.731c-4.316-3.832-8.642-5.447-11.239-3.943C24.639,16.56,23.9,20.841,24.95,26.2q.156.8.353,1.583c-.612.174-1.2.359-1.769.556-5.06,1.764-8.291,4.529-8.291,7.4,0,2.962,3.469,5.933,8.739,7.734q.641.218,1.292.4-.212.848-.375,1.706c-1,5.264-.219,9.444,2.265,10.877,2.566,1.479,6.872-.041,11.065-3.707q.5-.435,1-.919.629.607,1.292,1.179c4.062,3.5,8.073,4.907,10.555,3.47,2.563-1.484,3.4-5.974,2.315-11.438q-.124-.626-.287-1.277.454-.134.889-.277c5.479-1.815,9.043-4.75,9.043-7.751,0-2.878-3.335-5.661-8.5-7.438Z" transform="translate(-12.178 -11.611)" fill="#53c1de"/>
      <path id="Path_1798" data-name="Path 1798" d="M60.959,49.141c-.261.087-.529.17-.8.251a47.918,47.918,0,0,0-2.42-6.054,47.9,47.9,0,0,0,2.326-5.966c.489.142.963.291,1.421.448,4.423,1.522,7.12,3.773,7.12,5.508,0,1.847-2.913,4.246-7.644,5.813ZM59,53.03a17.288,17.288,0,0,1,.23,6.308A4.219,4.219,0,0,1,57.661,62.3c-1.506.872-4.727-.261-8.2-3.25q-.6-.514-1.2-1.1a47.977,47.977,0,0,0,4.006-5.087,47.657,47.657,0,0,0,6.473-1Q58.884,52.464,59,53.03Zm-19.85,9.124a4.219,4.219,0,0,1-3.352.126c-1.508-.869-2.134-4.226-1.279-8.728q.152-.8.349-1.587a48.006,48.006,0,0,0,6.44.932,49.68,49.68,0,0,0,4.1,5.069q-.445.43-.911.838a17.291,17.291,0,0,1-5.35,3.349ZM32.253,49.13a17.3,17.3,0,0,1-5.574-2.961A4.22,4.22,0,0,1,24.9,43.328c0-1.74,2.595-3.96,6.922-5.468q.815-.283,1.645-.518a48.963,48.963,0,0,0,2.329,6.036A49.707,49.707,0,0,0,33.433,49.5Q32.838,49.329,32.253,49.13ZM34.564,33.4c-.9-4.59-.3-8.053,1.2-8.922,1.6-.926,5.134.394,8.861,3.7.238.212.477.433.717.662a48.924,48.924,0,0,0-4.071,5.038,49.888,49.888,0,0,0-6.377.991q-.183-.732-.328-1.472Zm20.615,5.09q-.7-1.211-1.453-2.39c1.525.192,2.986.448,4.358.762a43.549,43.549,0,0,1-1.53,4.115q-.662-1.257-1.375-2.487ZM46.772,30.3a43.662,43.662,0,0,1,2.812,3.4q-2.823-.133-5.648,0C44.864,32.471,45.815,31.334,46.772,30.3Zm-8.461,8.2q-.7,1.22-1.349,2.471c-.595-1.41-1.1-2.8-1.519-4.135,1.364-.305,2.818-.555,4.333-.744q-.761,1.187-1.465,2.408ZM39.82,50.7a43.47,43.47,0,0,1-4.4-.708c.422-1.363.942-2.779,1.549-4.219q.648,1.252,1.355,2.473.721,1.245,1.5,2.454ZM46.828,56.5c-.968-1.044-1.933-2.2-2.875-3.441q1.372.054,2.8.054,1.461,0,2.885-.064A43.417,43.417,0,0,1,46.828,56.5ZM56.573,45.7a43.36,43.36,0,0,1,1.6,4.2,43.328,43.328,0,0,1-4.458.76q.758-1.2,1.467-2.432.721-1.251,1.386-2.532Zm-3.155,1.512q-1.086,1.886-2.293,3.7c-1.418.1-2.883.154-4.376.154s-2.934-.046-4.327-.137q-1.237-1.808-2.336-3.7t-2.039-3.851q.944-1.964,2.033-3.853h0q1.088-1.888,2.317-3.689c1.421-.107,2.879-.164,4.352-.164s2.939.057,4.36.165q1.216,1.8,2.3,3.677t2.06,3.835q-.958,1.97-2.054,3.868Zm4.212-22.8c1.6.923,2.223,4.645,1.217,9.526q-.1.477-.215.95a48.909,48.909,0,0,0-6.39-1.01,47.959,47.959,0,0,0-4.04-5.042q.537-.518,1.1-1.008C52.83,24.763,56.127,23.551,57.63,24.418Z" transform="translate(-19.789 -19.204)" fill="#fff"/>
      <path id="Path_1799" data-name="Path 1799" d="M112.312,94.665a4.268,4.268,0,1,1-4.268,4.268,4.268,4.268,0,0,1,4.268-4.268" transform="translate(-85.351 -74.809)" fill="#53c1de"/>
    </g>
  </g>
</svg>
