<svg xmlns="http://www.w3.org/2000/svg" width="57.422" height="101.7" viewBox="0 0 57.422 101.7">
  <g id="Swift_Objective_C_iOS_App_Development" data-name="Swift &amp; Objective C iOS App Development" transform="translate(-519.15 -393.15)">
    <g id="iOS_App_Development" data-name="iOS App  Development" transform="translate(286 155)">
      <g id="smartphone-iphone-svgrepo-com" transform="translate(220.715 239)">
        <path id="Path_7982" data-name="Path 7982" d="M58.176,0H24.117A10.8,10.8,0,0,0,13.285,10.747V89.255A10.8,10.8,0,0,0,24.117,100H58.174A10.8,10.8,0,0,0,69.007,89.255V10.747A10.8,10.8,0,0,0,58.176,0Zm7.252,89.255a7.217,7.217,0,0,1-7.252,7.164H24.117a7.216,7.216,0,0,1-7.25-7.164V10.747h0a7.215,7.215,0,0,1,7.25-7.164H58.176a7.217,7.217,0,0,1,7.252,7.164S65.43,89.255,65.428,89.255ZM61.745,10.523H20.552a.894.894,0,0,0-.895.895V80.995a.9.9,0,0,0,.895.9H61.745a.9.9,0,0,0,.9-.9V11.418A.9.9,0,0,0,61.745,10.523ZM60.85,80.1H21.445V12.313h39.4S60.849,80.1,60.85,80.1Zm-19.7,3.284a5.472,5.472,0,1,0,5.471,5.472A5.48,5.48,0,0,0,41.149,83.383Zm0,9.153a3.682,3.682,0,1,1,3.681-3.681A3.686,3.686,0,0,1,41.149,92.536ZM35.225,7.005a.738.738,0,0,1,.8-.66h10.25a.736.736,0,0,1,.795.66.734.734,0,0,1-.793.66H36.023A.741.741,0,0,1,35.225,7.005Z" transform="translate(0 0)" fill="none" stroke="#022e47" stroke-width="1.7"/>
      </g>
    </g>
    <g id="noun-tattoo-bird-921566" transform="translate(455.867 424.558)">
      <path id="Path_7999" data-name="Path 7999" d="M103.482,18.345a9.205,9.205,0,0,0-.29-3.41.158.158,0,0,0,0-.038,45.783,45.783,0,0,0-1.657-5.081c-1.142-3.035-1.692-5.5-1.555-6.977a.2.2,0,0,0-.1-.2.218.218,0,0,0-.252.044c-.3.249-1.3,1.978-.341,5.351h0a.445.445,0,0,0-.092.071c-.389.389-.317,1.654.2,3.751h0a.83.83,0,0,0-.419.276,2.316,2.316,0,0,0-.164,1.947.6.6,0,0,0-.392.1c-.242.17-.341.518-.307,1.054a.767.767,0,0,0-.6.058.952.952,0,0,0-.365.849,1.275,1.275,0,0,0-.921.4,1.094,1.094,0,0,0-.235.682c-.1-.136-.184-.242-.232-.3-.269-.341-2.2-2.322-3.189-2.6-.341-.934-3.2-9.208-2.469-14.685h0a.17.17,0,0,0-.136-.191.17.17,0,0,0-.2.129,34.385,34.385,0,0,0-.16,11.449.309.309,0,0,0-.092.038c-.194.112-.266.416-.222.958-.566-.569-2.316-2.769-7.3-11.254a.171.171,0,0,0-.3.153c.041.1,4.092,9.508,7.363,13.778a10.311,10.311,0,0,1,.979,1.2,9.152,9.152,0,0,0,.74,4.27.868.868,0,0,0-.27.341,1.833,1.833,0,0,0-1.784.341,2.5,2.5,0,0,0-2.8-.048,3.6,3.6,0,0,0-2.728-.539,1.2,1.2,0,0,0-.57.413c-3.264-1.337-5.316-.293-5.4-.246a.17.17,0,0,0,.072.321c3.894.194,6.138,1.705,8.5,3.277h0a29.068,29.068,0,0,0,3.1,1.893,5.6,5.6,0,0,0,2.537.648,5.068,5.068,0,0,0,3.492-1.473c.682.75,5.047,1.364,6.166.975a2.041,2.041,0,0,1,1.705.419.17.17,0,0,0,.263-.2l-.754-1.579a1.4,1.4,0,0,0,.109-.658c-.048-.986-1.173-2.152-2.213-2.8.849-.344,3.09-1.432,3.284-2.9ZM99.622,3.292a21.1,21.1,0,0,0,1.586,6.636,49.3,49.3,0,0,1,1.576,4.774.555.555,0,0,0-.341.068.6.6,0,0,0-.229.246L99.67,8.1c-.767-2.558-.372-4.143-.048-4.805Zm-.208,5.091,2.663,7.23v.269h0a2.856,2.856,0,0,1-.392,1.661l-1.91-5.576c-.665-2.65-.477-3.383-.362-3.584Zm-.167,3.98h0a.481.481,0,0,1,.259-.171l1.94,5.664h0a1.37,1.37,0,0,1-.324.256,4.594,4.594,0,0,0-.409.235L99.22,14.256c-.3-1.146-.153-1.668.027-1.893Zm-.631,2.111a.341.341,0,0,1,.293-.017l1.5,4.092h0a3.641,3.641,0,0,0-.6.556l-1.32-3.639c-.1-.737.061-.941.123-.992ZM97.7,15.6a.572.572,0,0,1,.481.034l1.4,3.809a2.514,2.514,0,0,0-.409,1.3l-.1-.061L97.5,16.3c0-.372.068-.614.211-.7Zm-1.2,1.176h0a.965.965,0,0,1,.709-.28l1.364,3.772h0A21.643,21.643,0,0,1,96.43,17.8a1.128,1.128,0,0,1,.078-1.026ZM90.356,16.4h0a10.736,10.736,0,0,1,.61,1.091,9.617,9.617,0,0,0,1.449,2.244.921.921,0,0,0-.467.436,1.483,1.483,0,0,0-.89-.146,8.774,8.774,0,0,1-.685-3.625Zm2.414,3.608a2.135,2.135,0,0,1,1.156.478,8.971,8.971,0,0,1,2.66,2.029h0a4.816,4.816,0,0,0-1.105.341,19.905,19.905,0,0,0-3.253-2.527h0a.58.58,0,0,1,.31-.293.646.646,0,0,1,.2-.034Zm4.195,2.469a8.134,8.134,0,0,0-2.728-2.217h0a.32.32,0,0,1,.153-.157c.143-.065.5-.1,1.3.44h0a11.428,11.428,0,0,1,2.2,1.94,4.358,4.358,0,0,0-.907,0Zm-2.489.982a17.476,17.476,0,0,0-3.7-2.8h0a.508.508,0,0,1,.235-.266,1.107,1.107,0,0,1,.951.157,23.236,23.236,0,0,1,3.23,2.462,5.628,5.628,0,0,0-.7.443Zm-3.99-2.578c.044.027,3.015,1.773,3.738,2.8-.16.13-.317.269-.477.426h0a1.742,1.742,0,0,1-.413.3L89,21.036a1.353,1.353,0,0,1,1.487-.15Zm-1.869.283,4.362,3.386h0a2.973,2.973,0,0,1-1.439.116l-5.31-3.693a2.187,2.187,0,0,1,2.387.191Zm-5.3-.621a3.31,3.31,0,0,1,2.524.569l5.054,3.516a1.952,1.952,0,0,0-.962.307c-1.518-1.77-5.978-3.731-7-4.157a.914.914,0,0,1,.385-.235Zm5.732,5.064a28.961,28.961,0,0,1-3.069-1.869,16.188,16.188,0,0,0-7.823-3.271,7.341,7.341,0,0,1,4.45.542c.055.024,5.416,2.247,7.046,4.137h0a1.814,1.814,0,0,0-.385.576Zm.535.242A1.608,1.608,0,0,1,91.454,25a2.765,2.765,0,0,0,2.541-.682,5.566,5.566,0,0,1,1.552-1.095,4.462,4.462,0,0,1,1.316-.385H96.9a4.039,4.039,0,0,1,.771,0,8.461,8.461,0,0,0-2.8,1.8,4.58,4.58,0,0,1-5.293,1.207Zm12.908.051h0a2,2,0,0,0-1.514-.177A12.167,12.167,0,0,1,95.383,25c-.2-.109-.229-.174-.225-.174a9.226,9.226,0,0,1,3.2-1.917c1.477.044,2.022.413,2.22.713a.7.7,0,0,1,.116.454.555.555,0,0,0-.293.058.46.46,0,0,0-.28.474.8.8,0,0,0,.621.634,2.181,2.181,0,0,0,.512.061,1.251,1.251,0,0,0,.8-.249l.027-.027Zm-.416-1.821a.829.829,0,0,1-.242.72,1.221,1.221,0,0,1-1.023.119.464.464,0,0,1-.365-.341.122.122,0,0,1,.085-.133c.1-.044.136-.027.153-.02h0a.416.416,0,0,1,.133.249.173.173,0,0,0,.341-.055.863.863,0,0,0-.153-.362,1.047,1.047,0,0,0-.143-.808c-.341-.532-1.173-.822-2.449-.87a11.255,11.255,0,0,0-2.523-2.312c-.713-.481-1.262-.634-1.63-.464a.648.648,0,0,0-.3.286,2.292,2.292,0,0,0-1.112-.416A8.688,8.688,0,0,1,91.3,17.352,11.4,11.4,0,0,0,89.336,14.5,68.847,68.847,0,0,1,83.27,3.561c2.336,3.881,5.16,8.359,6.1,8.932l.126.716h0a.17.17,0,0,0,.167.14H89.7a.171.171,0,0,0,.136-.2l-.14-.784c-.123-.853,0-1,0-1h.024a6.969,6.969,0,0,1,1.245,1.675h0a.164.164,0,1,0,.327-.024,6.337,6.337,0,0,0-1.313-1.859,36.982,36.982,0,0,1-.3-8.427,48.617,48.617,0,0,0,2.606,11.8h0a.17.17,0,0,0,.133.109c.754.126,2.694,2.026,3.069,2.5.055.065.147.191.269.341l.341.46a16.5,16.5,0,0,0,2.7,2.943h0a2.079,2.079,0,0,0,.464.259c1.214.471,2.766,1.951,2.81,2.936Zm-2.251-3.035c-.1-.051-.2-.1-.3-.136-.027-.341,0-1.582,1.75-2.489a2.584,2.584,0,0,0,1.139-2.547c-.02-.621.13-.781.2-.819h0a.308.308,0,0,1,.266,0,8.44,8.44,0,0,1,.266,3.236c-.194,1.456-2.878,2.578-3.321,2.752Z" fill="#05a8da"/>
    </g>
  </g>
</svg>
