<svg xmlns="http://www.w3.org/2000/svg" xmlns:xlink="http://www.w3.org/1999/xlink" width="100" height="100" viewBox="0 0 100 100">
  <defs>
    <radialGradient id="radial-gradient" cx="0.543" cy="0.13" r="1.109" gradientTransform="matrix(0.999, 0.039, -0.039, 0.999, 0.005, -0.021)" gradientUnits="objectBoundingBox">
      <stop offset="0" stop-color="#00a8ff"/>
      <stop offset="0.254" stop-color="#37b1db"/>
      <stop offset="0.647" stop-color="#4ad1fb"/>
      <stop offset="1" stop-color="#31b9ff"/>
    </radialGradient>
    <radialGradient id="radial-gradient-2" cx="0.631" cy="0.123" r="1.188" gradientTransform="matrix(0.967, 0.254, -0.254, 0.967, 0.037, -0.131)" gradientUnits="objectBoundingBox">
      <stop offset="0" stop-color="#fff"/>
      <stop offset="0.221" stop-color="#fff8f7"/>
      <stop offset="0.563" stop-color="#f6ffff"/>
      <stop offset="0.983" stop-color="#bdfff6"/>
      <stop offset="1" stop-color="#ffc6bc"/>
    </radialGradient>
  </defs>
  <g id="Feature_Rich_Solutions" data-name="Feature Rich Solutions" transform="translate(-617.821 -105.874)">
    <g id="Group_133" data-name="Group 133" transform="translate(617.821 105.874)">
      <g id="Group_132" data-name="Group 132">
        <path id="Path_626" data-name="Path 626" d="M342.824,166.116l-50.642,28.273a10.54,10.54,0,0,1-14.341-4.065l-28.273-50.642a10.54,10.54,0,0,1,4.065-14.341l50.642-28.273a10.54,10.54,0,0,1,14.341,4.065l28.273,50.642A10.54,10.54,0,0,1,342.824,166.116Z" transform="translate(-248.228 -95.728)" fill="url(#radial-gradient)"/>
        <path id="Path_627" data-name="Path 627" d="M344.338,182.183,288.8,198.894a10.54,10.54,0,0,1-13.13-7.057L258.956,136.3a10.54,10.54,0,0,1,7.056-13.13l55.541-16.711a10.54,10.54,0,0,1,13.13,7.057l16.711,55.541A10.54,10.54,0,0,1,344.338,182.183Z" transform="translate(-255.175 -102.675)" fill="url(#radial-gradient-2)"/>
      </g>
    </g>
    <g id="idea-svgrepo-com" transform="translate(599.594 127.404)">
      <path id="Path_1849" data-name="Path 1849" d="M116,34.836c-.571-.952-2.284-4.854-3.617-7.9a19.961,19.961,0,0,0,.666-5.33A21.737,21.737,0,0,0,91.636,0C80.214,0,68.983,13.04,72.885,24.366a108.97,108.97,0,0,0,4.378,11.517L70.125,47.876c-1.237,2.475,1.333,4.474,3.807,5.711l9.518,4.949c2.475,1.237,6.568,2.284,7.8-.1L96.3,49.209a23.029,23.029,0,0,0,9.518,2.189c2.76-.19,3.712-3.046,4.283-7.139a1.743,1.743,0,0,0,1.618-.571c.571-1.047-.857-2.57-.857-2.57s2.38-.666,1.808-1.333c-.476-.476-.857-2.57-.952-3.141a10.266,10.266,0,0,0,2.855-.381C116.859,35.6,116,34.836,116,34.836Z" transform="translate(-22.997)" fill="#1e74a5"/>
      <path id="Path_1850" data-name="Path 1850" d="M116,59.505c-.571-.952-2.855-2.951-4.188-5.9a37.1,37.1,0,0,0,1.237-7.234c0-12.088-9.8-18.37-21.225-18.37S69.078,37.8,72.98,49.13a108.973,108.973,0,0,0,4.378,11.517l-7.234,11.9c-1.237,2.475,1.333,4.474,3.807,5.711l9.518,4.949c2.475,1.237,6.568,2.284,7.8-.1l.857-12.183c3.427,3.712,11.041,5.235,13.706,5.14,2.76-.19,3.712-3.046,4.283-7.139a1.743,1.743,0,0,0,1.618-.571c.571-1.047-2.38-2.094-2.38-2.094s3.9-1.142,3.427-1.808c-.476-.476-2.189-2.475-2.284-3.141a21.734,21.734,0,0,0,4.188-.476C116.859,60.267,116,59.505,116,59.505Z" transform="translate(-22.997 -24.669)" fill="#074568"/>
      <path id="Path_1851" data-name="Path 1851" d="M74.54,42.03c0-7.329-6.948-13.23-15.419-13.23S43.7,34.8,43.7,42.03A12.52,12.52,0,0,0,49.793,52.5l1.237,5.14a7.251,7.251,0,0,0,7.329,7.234h1.618a7.192,7.192,0,0,0,7.329-7.234l1.237-5.235A12.485,12.485,0,0,0,74.54,42.03Z" transform="translate(0 -25.373)" fill="#ffe000"/>
      <path id="Path_1852" data-name="Path 1852" d="M74.54,57.536c0-7.329-6.948-11.136-15.419-11.136S43.7,50.3,43.7,57.536c0,4.283,3.427,7.043,7.043,9.423l.19,6.187a7.251,7.251,0,0,0,7.329,7.234h1.618a7.192,7.192,0,0,0,7.329-7.234l.19-6.187C71.208,64.484,74.54,61.819,74.54,57.536Z" transform="translate(0 -40.879)" fill="#ffc200"/>
      <path id="Path_1853" data-name="Path 1853" d="M104.5,273.6v4.188a8.186,8.186,0,1,0,16.371,0V273.6Z" transform="translate(-53.566 -241.048)" fill="#4396bf"/>
      <path id="Path_1854" data-name="Path 1854" d="M104.5,308.8a8.186,8.186,0,1,0,16.371,0" transform="translate(-53.566 -272.06)" fill="#1e74a5"/>
      <g id="Group_357" data-name="Group 357" transform="translate(50.75 9.233)">
        <path id="Path_1855" data-name="Path 1855" d="M111.322,121.774a.45.45,0,0,1-.476-.476v-10.66c0-.1-.1-7.043-4.378-8a1.867,1.867,0,0,0-1.9.476c-.761.857-.761,2.475-.19,4.093a5.515,5.515,0,0,0,3.9,3.617v-2.38a.476.476,0,0,1,.952,0V111.4a.494.494,0,0,1-.19.381.572.572,0,0,1-.381.1,6.492,6.492,0,0,1-5.235-4.378,5.28,5.28,0,0,1,.381-5.14,2.774,2.774,0,0,1,2.855-.761c5.14,1.142,5.235,8.662,5.235,9.042V121.3A.6.6,0,0,1,111.322,121.774Z" transform="translate(-102.952 -98.645)" fill="#f9f4bd"/>
        <path id="Path_1856" data-name="Path 1856" d="M169.072,121.774a.45.45,0,0,0,.476-.476v-10.66c0-.1.1-7.043,4.378-8a1.867,1.867,0,0,1,1.9.476c.761.857.761,2.475.19,4.093a5.515,5.515,0,0,1-3.9,3.617v-2.38a.476.476,0,1,0-.952,0V111.4a.5.5,0,0,0,.19.381.572.572,0,0,0,.381.1,6.492,6.492,0,0,0,5.235-4.378,5.28,5.28,0,0,0-.381-5.14,2.774,2.774,0,0,0-2.855-.761c-5.14,1.142-5.235,8.662-5.235,9.042V121.3A.6.6,0,0,0,169.072,121.774Z" transform="translate(-160.702 -98.645)" fill="#f9f4bd"/>
        <path id="Path_1857" data-name="Path 1857" d="M163.642,204.2a.409.409,0,0,1-.381.381h-2.38a.409.409,0,0,1-.381-.381h0a.409.409,0,0,1,.381-.381h2.38c.19-.1.381.1.381.381Z" transform="translate(-153.654 -188.778)" fill="#f9f4bd"/>
        <path id="Path_1858" data-name="Path 1858" d="M163.642,221.181a.409.409,0,0,1-.381.381h-2.38a.409.409,0,0,1-.381-.381h0a.409.409,0,0,1,.381-.381h2.38a.409.409,0,0,1,.381.381Z" transform="translate(-153.654 -203.763)" fill="#f9f4bd"/>
        <path id="Path_1859" data-name="Path 1859" d="M163.642,237.981a.409.409,0,0,1-.381.381h-2.38a.409.409,0,0,1-.381-.381h0a.409.409,0,0,1,.381-.381h2.38a.409.409,0,0,1,.381.381Z" transform="translate(-153.654 -218.564)" fill="#f9f4bd"/>
        <circle id="Ellipse_72" data-name="Ellipse 72" cx="0.666" cy="0.666" r="0.666" transform="translate(7.704)" fill="#f9f4bd"/>
      </g>
      <g id="Group_358" data-name="Group 358" transform="translate(51.887 34.361)">
        <path id="Path_1860" data-name="Path 1860" d="M127.064,288.99a.2.2,0,0,1-.19.19H112.691a.2.2,0,0,1-.19-.19h0a.2.2,0,0,1,.19-.19h14.182a.2.2,0,0,1,.19.19Z" transform="translate(-112.501 -288.8)" fill="#6fcaef"/>
        <path id="Path_1861" data-name="Path 1861" d="M127.064,300.99a.2.2,0,0,1-.19.19H112.691a.2.2,0,0,1-.19-.19h0a.2.2,0,0,1,.19-.19h14.182a.2.2,0,0,1,.19.19Z" transform="translate(-112.501 -299.372)" fill="#6fcaef"/>
        <path id="Path_1862" data-name="Path 1862" d="M127.064,312.99a.2.2,0,0,1-.19.19H112.691a.2.2,0,0,1-.19-.19h0a.2.2,0,0,1,.19-.19h14.182a.2.2,0,0,1,.19.19Z" transform="translate(-112.501 -309.945)" fill="#6fcaef"/>
        <path id="Path_1863" data-name="Path 1863" d="M127.064,325.79a.2.2,0,0,1-.19.19H112.691a.2.2,0,0,1-.19-.19h0a.2.2,0,0,1,.19-.19h14.182c.1,0,.19,0,.19.19Z" transform="translate(-112.501 -321.222)" fill="#6fcaef"/>
        <path id="Path_1864" data-name="Path 1864" d="M133.065,337.79a.2.2,0,0,1-.19.19H120.691a.2.2,0,0,1-.19-.19h0a.2.2,0,0,1,.19-.19H132.97c.1,0,.1.1.1.19Z" transform="translate(-119.549 -331.794)" fill="#6fcaef"/>
        <circle id="Ellipse_73" data-name="Ellipse 73" cx="0.286" cy="0.286" r="0.286" transform="translate(3.807 7.519)" fill="#6fcaef"/>
        <circle id="Ellipse_74" data-name="Ellipse 74" cx="0.286" cy="0.286" r="0.286" transform="translate(5.901 7.519)" fill="#6fcaef"/>
        <circle id="Ellipse_75" data-name="Ellipse 75" cx="0.286" cy="0.286" r="0.286" transform="translate(7.995 7.519)" fill="#6fcaef"/>
        <circle id="Ellipse_76" data-name="Ellipse 76" cx="0.286" cy="0.286" r="0.286" transform="translate(10.089 7.519)" fill="#6fcaef"/>
      </g>
    </g>
  </g>
</svg>
