<svg xmlns="http://www.w3.org/2000/svg" xmlns:xlink="http://www.w3.org/1999/xlink" width="100" height="100" viewBox="0 0 100 100">
  <defs>
    <radialGradient id="radial-gradient" cx="0.543" cy="0.13" r="1.109" gradientTransform="matrix(0.999, 0.039, -0.039, 0.999, 0.005, -0.021)" gradientUnits="objectBoundingBox">
      <stop offset="0" stop-color="#c3e678"/>
      <stop offset="0.254" stop-color="#c3e678"/>
      <stop offset="0.647" stop-color="#a5d76e"/>
      <stop offset="1" stop-color="#82b24e"/>
    </radialGradient>
    <radialGradient id="radial-gradient-2" cx="0.631" cy="0.123" r="1.188" gradientTransform="matrix(0.967, 0.254, -0.254, 0.967, 0.037, -0.131)" gradientUnits="objectBoundingBox">
      <stop offset="0" stop-color="#fff"/>
      <stop offset="0.221" stop-color="#fff8f7"/>
      <stop offset="0.563" stop-color="#f6ffff"/>
      <stop offset="0.979" stop-color="#c3e678"/>
      <stop offset="1" stop-color="#ebf7f8"/>
    </radialGradient>
  </defs>
  <g id="Agile_Methodology" data-name="Agile Methodology" transform="translate(-1091 -1354.874)">
    <g id="Technical_Support" data-name="Technical Support" transform="translate(149)">
      <path id="Path_737" data-name="Path 737" d="M342.824,166.116l-50.642,28.273a10.54,10.54,0,0,1-14.341-4.065l-28.273-50.642a10.54,10.54,0,0,1,4.065-14.341l50.642-28.273a10.54,10.54,0,0,1,14.341,4.065l28.273,50.642A10.54,10.54,0,0,1,342.824,166.116Z" transform="translate(693.772 1259.146)" fill="url(#radial-gradient)"/>
      <path id="Path_738" data-name="Path 738" d="M344.338,182.183,288.8,198.894a10.54,10.54,0,0,1-13.13-7.057L258.956,136.3a10.54,10.54,0,0,1,7.056-13.13l55.541-16.711a10.54,10.54,0,0,1,13.13,7.057l16.711,55.541A10.54,10.54,0,0,1,344.338,182.183Z" transform="translate(686.825 1252.199)" fill="url(#radial-gradient-2)"/>
    </g>
    <g id="customer-service-question-svgrepo-com" transform="translate(1102.026 1381.977)">
      <path id="Path_1435" data-name="Path 1435" d="M60.072,273.655c-5.747,0-7.053,6.26-7.106,13.157a.73.73,0,0,0,.443.666,14.717,14.717,0,0,0,3.39.955l6.527,0a14.737,14.737,0,0,0,3.409-.958.73.73,0,0,0,.443-.666C67.125,279.915,65.819,273.655,60.072,273.655Z" transform="translate(-32.152 -249.178)" fill="#7d5a50"/>
      <path id="Path_1436" data-name="Path 1436" d="M59.931,413.965v-.994a2.369,2.369,0,0,0-1.194-2.057L55.2,408.892a1.579,1.579,0,0,1-.8-1.371v-1.452H49.666v1.452a1.579,1.579,0,0,1-.8,1.371l-3.538,2.022a2.369,2.369,0,0,0-1.194,2.057v.994a1.579,1.579,0,0,0,1.579,1.579H58.351A1.579,1.579,0,0,0,59.931,413.965Z" transform="translate(-24.114 -369.748)" fill="#d29b6e"/>
      <path id="Path_1437" data-name="Path 1437" d="M96.173,328.2v4.186a2.369,2.369,0,0,1-1.15,2.031l-1.985,1.191a1.579,1.579,0,0,1-1.625,0l-1.985-1.191a2.369,2.369,0,0,1-1.15-2.031V328.2s4.738,0,6.317-1.579Z" transform="translate(-64.304 -297.407)" fill="#f0c087"/>
      <g id="Group_311" data-name="Group 311" transform="translate(17.656 3.948)">
        <path id="Path_1438" data-name="Path 1438" d="M58.736,446.828l-2.3-1.317a10.041,10.041,0,0,1-4.4,3.578,10.041,10.041,0,0,1-4.4-3.578l-2.3,1.317a2.369,2.369,0,0,0-1.194,2.057v.994a1.579,1.579,0,0,0,1.579,1.579H58.35a1.579,1.579,0,0,0,1.579-1.579v-.994A2.369,2.369,0,0,0,58.736,446.828Z" transform="translate(-41.769 -409.61)" fill="#e4eaf6"/>
        <path id="Path_1439" data-name="Path 1439" d="M39.764,44.138H20.814A3.168,3.168,0,0,0,17.656,47.3V58.35a3.168,3.168,0,0,0,3.158,3.158H31.079V64.5a.4.4,0,0,0,.674.279l3.274-3.274h4.738a3.168,3.168,0,0,0,3.158-3.158V47.3A3.168,3.168,0,0,0,39.764,44.138Z" transform="translate(-17.656 -44.138)" fill="#e4eaf6"/>
      </g>
      <path id="Path_1440" data-name="Path 1440" d="M195.786,44.138V54.4a3.168,3.168,0,0,0,3.158,3.158h4.738v.79a3.071,3.071,0,0,1-.115.79h-4.623a4.743,4.743,0,0,1-4.738-4.738V44.138Z" transform="translate(-160.759 -40.19)" fill="#d7deed"/>
      <path id="Path_1441" data-name="Path 1441" d="M80.1,75.358a4.738,4.738,0,1,0-9.475,0v2.369A4.73,4.73,0,0,0,78.1,81.583l.649.649a.789.789,0,1,0,1.116-1.117l-.649-.649a4.706,4.706,0,0,0,.88-2.741ZM77.89,79.142a.79.79,0,0,0-1.117,1.117l.179.179a3.122,3.122,0,0,1-1.594.447A3.162,3.162,0,0,1,72.2,77.726V75.358a3.158,3.158,0,1,1,6.317,0v2.369a3.123,3.123,0,0,1-.447,1.594Z" transform="translate(-48.227 -64.303)" fill="#707487"/>
      <path id="Path_1442" data-name="Path 1442" d="M215.02,0h18.95a3.168,3.168,0,0,1,3.158,3.158V14.212a3.168,3.168,0,0,1-3.158,3.158H223.706v2.995a.4.4,0,0,1-.674.279l-3.274-3.274H215.02a3.168,3.168,0,0,1-3.158-3.158V3.158A3.168,3.168,0,0,1,215.02,0Z" transform="translate(-176.835 0)" fill="#c3e678"/>
      <path id="Path_1443" data-name="Path 1443" d="M291.067,412.957l-3.755-1.408a1.772,1.772,0,0,1-1.025-1.618h-6.317a1.772,1.772,0,0,1-1.025,1.618l-3.755,1.408a2.369,2.369,0,0,0-1.537,2.218v2.306a1.579,1.579,0,0,0,1.579,1.579h15.792a1.579,1.579,0,0,0,1.579-1.579v-2.306A2.369,2.369,0,0,0,291.067,412.957Z" transform="translate(-233.1 -373.265)" fill="#d29b6e"/>
      <path id="Path_1444" data-name="Path 1444" d="M291.069,432.169l-3.037-1.139-3.89,3.242a1.579,1.579,0,0,1-2.022,0l-3.89-3.242-3.037,1.139a2.369,2.369,0,0,0-1.537,2.218v2.306a1.579,1.579,0,0,0,1.579,1.579h15.792a1.579,1.579,0,0,0,1.579-1.579v-2.306A2.369,2.369,0,0,0,291.069,432.169Z" transform="translate(-233.102 -392.477)" fill="#c3e678"/>
      <path id="Path_1445" data-name="Path 1445" d="M330.836,268.2l-.493,7.39a2.369,2.369,0,0,1-.942,1.737l-1.657,1.242a2.369,2.369,0,0,1-1.421.474h-1.579a2.368,2.368,0,0,1-1.421-.474l-1.657-1.243a2.369,2.369,0,0,1-.942-1.737l-.493-7.39a3.158,3.158,0,0,1,3.151-3.368h4.3A3.159,3.159,0,0,1,330.836,268.2Z" transform="translate(-275.505 -241.14)" fill="#f0c087"/>
      <path id="Path_1446" data-name="Path 1446" d="M385.412,346.619a.791.791,0,0,0-.841.735,2.434,2.434,0,0,1-2.363,2.211h-2.622v1.579h2.622a4.007,4.007,0,0,0,3.939-3.685A.79.79,0,0,0,385.412,346.619Z" transform="translate(-329.557 -315.614)" fill="#5b5d6e"/>
      <path id="Path_1447" data-name="Path 1447" d="M327.685,264.828h-4.3a3.158,3.158,0,0,0-3.151,3.368l.2,2.946c.272-.019,7.044-.506,10.361-2.228l.048-.718A3.158,3.158,0,0,0,327.685,264.828Z" transform="translate(-275.505 -241.141)" fill="#5a4146"/>
      <circle id="Ellipse_59" data-name="Ellipse 59" cx="0.79" cy="0.79" r="0.79" transform="translate(49.239 33.952)" fill="#707487"/>
      <path id="Path_1448" data-name="Path 1448" d="M309.589,37.359,307.5,28.32a2.357,2.357,0,0,0-2.308-1.837h-.646a2.358,2.358,0,0,0-2.308,1.836l-2.087,9.041a.79.79,0,0,0,1.539.356l.588-2.547h5.181l.588,2.546a.79.79,0,0,0,.769.612.807.807,0,0,0,.178-.02A.79.79,0,0,0,309.589,37.359Zm-6.944-3.77,1.134-4.916a.784.784,0,0,1,.769-.611h.646a.784.784,0,0,1,.769.612l1.134,4.915Z" transform="translate(-257.212 -24.114)" fill="#fff"/>
    </g>
  </g>
</svg>
