<?xml version="1.0" encoding="iso-8859-1"?>
<!-- Generator: Adobe Illustrator 22.1.0, SVG Export Plug-In . SVG Version: 6.00 Build 0)  -->
<svg xmlns="http://www.w3.org/2000/svg" xmlns:xlink="http://www.w3.org/1999/xlink" version="1.1" id="Layer_1_1_" x="0px" y="0px" viewBox="0 0 64 64" style="enable-background:new 0 0 64 64;" xml:space="preserve" width="512" height="512">
<g>
	<g>
		<path style="fill:#F0BC5E;" d="M24,59c-1.887,0-3.648-1.104-4.488-2.812l-1.227-2.498l-2.769,0.282C15.339,53.991,15.168,54,15,54    c-3.309,0-6-2.691-6-6c0-1.127,0.324-2.232,0.938-3.197l2.054-3.229L8.857,39.38C6.441,37.688,5,34.93,5,32    c0-3.236,1.764-6.24,4.602-7.839l2.943-1.658l-1.142-3.18C11.136,18.579,11,17.797,11,17c0-3.316,2.354-6.201,5.598-6.86    l1.976-0.401l0.9-1.837C20.296,6.139,22.072,5,24,5c2.757,0,5,2.243,5,5v44C29,56.757,26.757,59,24,59z"/>
	</g>
	<g>
		<circle style="fill:#F0BC5E;" cx="54" cy="10" r="5"/>
	</g>
	<g>
		<circle style="fill:#F0BC5E;" cx="58" cy="27" r="5"/>
	</g>
	<g>
		<circle style="fill:#F0BC5E;" cx="58" cy="37" r="5"/>
	</g>
	<g>
		<circle style="fill:#F0BC5E;" cx="54" cy="54" r="5"/>
	</g>
	<g>
		<path d="M33,38h14v-2H33v-8h2v-2h-2v-4h10v-2H33V10c0-4.962-4.038-9-9-9c-3.607,0-6.717,2.138-8.152,5.21l-0.047,0.01    C10.701,7.255,7,11.789,7,17c0,1.26,0.214,2.493,0.638,3.676C3.577,22.964,1,27.311,1,32c0,4.253,2.108,8.238,5.562,10.656    C5.578,44.204,5,46.034,5,48c0,5.514,4.486,10,10,10c0.301,0,0.607-0.016,0.923-0.047C17.42,61.001,20.571,63,24,63    c4.962,0,9-4.038,9-9V44h5v-2h-5V38z M31,54c0,3.86-3.14,7-7,7c-2.875,0-5.499-1.808-6.531-4.499l-0.294-0.768l-0.81,0.14    C15.875,55.959,15.428,56,15,56c-4.411,0-8-3.589-8-8s3.589-8,8-8v-2c-2.822,0-5.369,1.18-7.189,3.066C4.834,39.026,3,35.636,3,32    c0-4.235,2.486-8.14,6.333-9.949l0.896-0.421L9.817,20.73C9.275,19.543,9,18.289,9,17c0-3.889,2.522-7.309,6.14-8.526    C15.054,8.971,15,9.479,15,10c0,1.582,0.417,3.138,1.205,4.5l1.731-1.001C17.324,12.441,17,11.23,17,10c0-3.86,3.14-7,7-7    s7,3.14,7,7V54z"/>
		<path d="M24,57v2c2.757,0,5-2.243,5-5h-2C27,55.654,25.654,57,24,57z"/>
		<path d="M11,48H9c0,3.309,2.691,6,6,6v-2C12.794,52,11,50.206,11,48z"/>
		<path d="M55,51.184V47c0-2.757-2.243-5-5-5H40v2h10c1.654,0,3,1.346,3,3v4.184c-1.161,0.414-2,1.514-2,2.816c0,1.654,1.346,3,3,3    s3-1.346,3-3C57,52.698,56.161,51.598,55,51.184z M54,55c-0.551,0-1-0.449-1-1s0.449-1,1-1s1,0.449,1,1S54.551,55,54,55z"/>
		<path d="M58,34c-1.302,0-2.402,0.839-2.816,2H49v2h6.184c0.414,1.161,1.514,2,2.816,2c1.654,0,3-1.346,3-3S59.654,34,58,34z     M58,38c-0.551,0-1-0.449-1-1s0.449-1,1-1s1,0.449,1,1S58.551,38,58,38z"/>
		<path d="M55.184,26H37v2h18.184c0.414,1.161,1.514,2,2.816,2c1.654,0,3-1.346,3-3s-1.346-3-3-3C56.698,24,55.598,24.839,55.184,26    z M58,26c0.551,0,1,0.449,1,1s-0.449,1-1,1s-1-0.449-1-1S57.449,26,58,26z"/>
		<path d="M55,17v-4.184c1.161-0.414,2-1.514,2-2.816c0-1.654-1.346-3-3-3s-3,1.346-3,3c0,1.302,0.839,2.402,2,2.816V17    c0,1.654-1.346,3-3,3h-5v2h5C52.757,22,55,19.757,55,17z M54,9c0.551,0,1,0.449,1,1s-0.449,1-1,1s-1-0.449-1-1S53.449,9,54,9z"/>
		<path d="M11.879,26.879c-1.95,1.949-1.95,5.122,0,7.071l1.414-1.414c-1.169-1.17-1.169-3.073,0-4.243    c1.17-1.171,3.073-1.17,4.243,0l1.414-1.414C17,24.93,13.828,24.929,11.879,26.879z"/>
		<path d="M24,5c-2.757,0-5,2.243-5,5h2c0-1.654,1.346-3,3-3s3,1.346,3,3h2C29,7.243,26.757,5,24,5z"/>
		<path d="M28,24c0-2.757-2.243-5-5-5v2c1.654,0,3,1.346,3,3s-1.346,3-3,3v2C25.757,29,28,26.757,28,24z"/>
		<path d="M18,45c0,2.757,2.243,5,5,5v-2c-1.654,0-3-1.346-3-3s1.346-3,3-3v-2C20.243,40,18,42.243,18,45z"/>
	</g>
</g>
</svg>
