<svg id="Capa_1" enable-background="new 0 0 511 511" height="512" viewBox="0 0 511 511" width="512" xmlns="http://www.w3.org/2000/svg"><path d="m485.5 471.5v-314c0-16.569-13.431-30-30-30h-400c-16.569 0-30 13.431-30 30v314z" fill="#e4e8ed"/><path d="m485.5 417.5h-189v14h-82v-14h-189v54h460z" fill="#c8d1da"/><path d="m65.5 167.5h380v240h-380z" fill="#FFD740"/><path d="m326.5 447.5c0 7.732-6.268 14-14 14h-114c-7.732 0-14-6.268-14-14h-177v26c0 16.569 13.431 30 30 30h436c16.569 0 30-13.431 30-30v-26z" fill="#e4e8ed"/><path d="m415.5 167.5v210h-350v30h380v-240z" fill="#FFD740"/><path d="m385.5 347.5h-260v-270l70-70h190z" fill="#FFD740"/><path d="m195.5 7.5v70h-70z" fill="#e4e8ed"/><path d="m125.5 317.5h260v30h-260z" fill="#FFD740"/><g fill="#fff"><path d="m363 67.5h-15v-22.5h-22.5v-15h37.5z"/><path d="m263 383.5h-15v-15h15zm0-30h-15v-15h15zm0-30h-15v-15h15z"/><path d="m107.5 483h-15v-15h15zm-30 0h-40v-15h40z"/></g><path d="m493 440v-242.5h-15v242.5h-159v7.5c0 3.584-2.916 6.5-6.5 6.5h-114c-3.584 0-6.5-2.916-6.5-6.5v-7.5h-108.785v15h95.135c3.05 8.168 10.932 14 20.15 14h114c9.218 0 17.101-5.832 20.15-14h163.35v18.5c0 12.407-10.093 22.5-22.5 22.5h-436c-12.407 0-22.5-10.093-22.5-22.5v-18.5h53.215v-15h-35.215v-68.644h-15v68.644h-18v33.5c0 20.678 16.822 37.5 37.5 37.5h436c20.678 0 37.5-16.822 37.5-37.5v-33.5z"/><path d="m33 157.5c0-12.407 10.093-22.5 22.5-22.5h44v-15h-44c-20.678 0-37.5 16.822-37.5 37.5v198.856h15z"/><path d="m478 157.5v25h15v-25c0-20.678-16.822-37.5-37.5-37.5h-44v15h44c12.407 0 22.5 10.093 22.5 22.5z"/><path d="m438 400h-365v-225h26.5v-15h-41.5v255h395v-255h-41.5v15h26.5z"/><path d="m281.5 355h111.5v-95.495h-15v80.495h-96.5z"/><path d="m133 85h70v-70h114.505v-15h-125.111l-74.394 74.394v72.106h15zm55-59.394v44.394h-44.394z"/><path d="m378 244.505h15v-244.505h-60.495v15h45.495z"/><path d="m229.5 340h-96.5v-178.5h-15v193.5h111.5z"/><path d="m315 132.332c-15.991-14.854-37.113-23.332-59.5-23.332-29.794 0-57.266 14.948-73.486 39.986l12.589 8.155c13.444-20.751 36.209-33.141 60.897-33.141 19.37 0 37.597 7.661 51.034 21h-24.034v15h47.5v-47.5h-15z"/><path d="m196 260.662c15.996 14.858 37.119 23.338 59.5 23.338 29.793 0 57.264-14.947 73.485-39.984l-12.589-8.156c-13.444 20.751-36.209 33.14-60.896 33.14-19.361 0-37.587-7.661-51.029-21h24.029v-15h-47.5v47.5h15z"/><path d="m326.893 183.799c.734 4.175 1.107 8.448 1.107 12.701l-.005.846 14.999.166c.004-.337.006-.674.006-1.012 0-5.121-.449-10.269-1.333-15.299z"/><path d="m322.673 223.831 13.892 5.658c2.061-5.06 3.65-10.34 4.724-15.695l-14.707-2.95c-.888 4.431-2.204 8.801-3.909 12.987z"/><path d="m168 196.5c0 5.156.453 10.31 1.347 15.317l14.767-2.635c-.739-4.141-1.113-8.408-1.113-12.683l.005-.844-14.999-.166c-.005.337-.007.674-.007 1.011z"/><path d="m188.326 169.171-13.892-5.659c-2.06 5.057-3.649 10.338-4.724 15.695l14.707 2.95c.889-4.433 2.204-8.802 3.909-12.986z"/></svg>