<?xml version="1.0" encoding="iso-8859-1"?>
<!-- Generator: Adobe Illustrator 22.1.0, SVG Export Plug-In . SVG Version: 6.00 Build 0)  -->
<svg xmlns="http://www.w3.org/2000/svg" xmlns:xlink="http://www.w3.org/1999/xlink" version="1.1" id="Layer_1_1_" x="0px" y="0px" viewBox="0 0 64 64" style="enable-background:new 0 0 64 64;" xml:space="preserve" width="512" height="512">
<g>
	<g>
		<path d="M59,57c-2.206,0-4-1.794-4-4h2c0,1.103,0.897,2,2,2s2-0.897,2-2s-0.897-2-2-2h-6v-2h6c2.206,0,4,1.794,4,4    S61.206,57,59,57z"/>
	</g>
	<g>
		<path style="fill:#F0BC5E;" d="M43,45c-2.206,0-4-1.794-4-4c0-0.858,0.284-1.71,0.799-2.398L43,34.333l3.2,4.268    C46.716,39.29,47,40.142,47,41C47,43.206,45.206,45,43,45z"/>
	</g>
	<g>
		<rect x="16" y="57" width="6" height="2"/>
	</g>
	<g>
		<rect x="23.5" y="37" width="5.5" height="2"/>
	</g>
	<g>
		<path d="M57.941,22.081C57.979,21.722,58,21.361,58,21c0-2.253-0.758-4.326-2.019-6H59c2.206,0,4-1.794,4-4s-1.794-4-4-4    s-4,1.794-4,4h2c0-1.103,0.897-2,2-2s2,0.897,2,2s-0.897,2-2,2h-5.025c-1.669-1.25-3.733-2-5.975-2c-2.198,0-4.261,0.744-5.947,2    H37V6c0-2.757-2.243-5-5-5H6C3.243,1,1,3.243,1,6v52c0,2.757,2.243,5,5,5h26c2.757,0,5-2.243,5-5v-7h10v-2H35v4H3V11h32v4h5.041    c-0.465,0.617-0.882,1.276-1.198,2.001c-2.31,0.044-4.395,1.07-5.842,2.723V13H5v38h28V39h6c2.967,0,5.431-2.167,5.91-5h6.59v-2    h-6.594c-0.44-2.599-2.548-4.635-5.187-4.953c-0.782-2.716-3.114-4.684-5.929-4.998C34.836,20.191,36.789,19,39,19    c0.132,0,0.262,0.01,0.442,0.023l0.762,0.055l0.253-0.721C41.581,15.153,44.612,13,48,13c4.411,0,8,3.589,8,8    c0,0.37-0.035,0.738-0.085,1.103C53.123,22.616,51,25.062,51,28h2c0-2.206,1.794-4,4-4s4,1.794,4,4s-1.794,4-4,4h-2.5v2H57    c3.309,0,6-2.691,6-6C63,25.012,60.803,22.535,57.941,22.081z M35,55v3c0,1.654-1.346,3-3,3H6c-1.654,0-3-1.346-3-3v-3H35z M35,9    H3V6c0-1.654,1.346-3,3-3h26c1.654,0,3,1.346,3,3V9z M37.642,27.161C34.986,27.779,33,30.159,33,33h2c0-2.206,1.794-4,4-4    s4,1.794,4,4s-1.794,4-4,4h-8v12H7V15h24v6.922C29.482,18.936,26.427,17,23,17c-4.962,0-9,4.038-9,9    c0,0.362,0.025,0.723,0.068,1.08C11.202,27.53,9,30.009,9,33c0,3.309,2.691,6,6,6h5.5v-2H15c-2.206,0-4-1.794-4-4s1.794-4,4-4    s4,1.794,4,4h2c0-2.933-2.117-5.377-4.903-5.895C16.039,26.741,16,26.373,16,26c0-3.86,3.14-7,7-7c3.03,0,5.701,1.936,6.647,4.816    l0.344,1.045l1.008-0.441C31.635,24.141,32.308,24,33,24C35.096,24,36.904,25.284,37.642,27.161z"/>
		<rect x="15" y="5" width="8" height="2"/>
		<rect x="25" y="5" width="2" height="2"/>
		<rect x="11" y="5" width="2" height="2"/>
	</g>
	<g>
		<path style="fill:#F0BC5E;" d="M22,45c-2.206,0-4-1.794-4-4c0-0.858,0.284-1.71,0.799-2.398L22,34.333l3.2,4.268    C25.716,39.29,26,40.142,26,41C26,43.206,24.206,45,22,45z"/>
	</g>
	<g>
		<path style="fill:#F0BC5E;" d="M53,40c-2.206,0-4-1.794-4-4c0-0.858,0.284-1.71,0.799-2.398L53,29.333l3.2,4.268    C56.716,34.29,57,35.142,57,36C57,38.206,55.206,40,53,40z"/>
	</g>
	<g>
		<path style="fill:#F0BC5E;" d="M50,54c-2.206,0-4-1.794-4-4c0-0.858,0.284-1.71,0.799-2.398L50,43.333l3.2,4.268    C53.716,48.29,54,49.142,54,50C54,52.206,52.206,54,50,54z"/>
	</g>
</g>
</svg>
