<svg id="Layer_3" enable-background="new 0 0 64 64" height="512" viewBox="0 0 64 64" width="512" xmlns="http://www.w3.org/2000/svg"><g fill="#f0bc5e"><path d="m4 18h20v4h-20z"/><path d="m4 8h20v4h-20z"/><path d="m40 18h20v4h-20z"/><path d="m40 8h20v4h-20z"/></g><path d="m27 1h-26v8h26zm-2 6h-22v-4h22z"/><path d="m27 11h-26v8h26zm-2 6h-22v-4h22z"/><path d="m37 1v8h26v-8zm24 6h-22v-4h22z"/><path d="m37 19h26v-8h-26zm2-6h22v4h-22z"/><path d="m37 29h18v9.184c-.847.302-1.514.969-1.816 1.816h-5.526c-1.096-4.027-4.775-7-9.144-7-2.446 0-4.746.928-6.515 2.604-1.768-1.676-4.067-2.604-6.514-2.604-4.369 0-8.048 2.973-9.144 7h-5.526c-.301-.847-.968-1.514-1.815-1.816v-9.184h18v-8h-26v8h6v9.184c-1.161.414-2 1.514-2 2.816 0 1.654 1.346 3 3 3 1.302 0 2.402-.839 2.816-2h5.209c-.009.162-.025.322-.025.485 0 2.457.935 4.766 2.625 6.538-.399.536-.625 1.176-.625 1.856 0 1.684 1.342 3.051 3.011 3.11.058 1.632 1.368 2.942 3 3 .058 1.632 1.368 2.942 3 3 .059 1.669 1.427 3.011 3.11 3.011.834 0 1.618-.325 2.207-.914l.172-.172.172.172c.589.589 1.373.914 2.207.914 1.684 0 3.051-1.342 3.11-3.011 1.632-.058 2.942-1.368 3-3 1.632-.058 2.942-1.368 3-3 1.669-.059 3.011-1.427 3.011-3.11 0-.834-.325-1.618-.914-2.207l-.208-.208c1.374-1.686 2.122-3.774 2.122-5.979 0-.164-.016-.324-.025-.485h5.209c.414 1.161 1.514 2 2.816 2 1.654 0 3-1.346 3-3 0-1.302-.839-2.402-2-2.816v-9.184h6v-8h-26zm-34-6h22v4h-22zm5 19c-.551 0-1-.449-1-1s.449-1 1-1 1 .449 1 1-.449 1-1 1zm12 8.879c0-.3.117-.581.328-.793l.758-.758c.212-.211.493-.328.793-.328.618 0 1.121.503 1.121 1.121 0 .3-.117.581-.328.793l-.758.758c-.212.211-.493.328-.793.328-.618 0-1.121-.503-1.121-1.121zm3 3c0-.3.117-.581.328-.793l.758-.758c.212-.211.493-.328.793-.328.618 0 1.121.503 1.121 1.121 0 .3-.117.581-.328.793l-.758.758c-.212.211-.493.328-.793.328-.618 0-1.121-.503-1.121-1.121zm3 3c0-.3.117-.581.328-.793l.758-.758c.212-.211.493-.328.793-.328.618 0 1.121.503 1.121 1.121 0 .3-.117.581-.328.793l-.758.758c-.212.211-.493.328-.793.328-.618 0-1.121-.503-1.121-1.121zm4.914 3.793c-.212.211-.493.328-.793.328-.618 0-1.121-.503-1.121-1.121 0-.3.117-.581.328-.793l.758-.758c.212-.211.493-.328.793-.328.618 0 1.121.503 1.121 1.121 0 .3-.117.581-.328.793zm12.965-8.672c-.3 0-.581-.117-.793-.328l-2.379-2.379-1.414 1.414 2.379 2.379c.211.212.328.493.328.793 0 .618-.503 1.121-1.121 1.121-.3 0-.581-.117-.793-.328l-2.379-2.379-1.414 1.414 2.379 2.379c.211.212.328.493.328.793 0 .618-.503 1.121-1.121 1.121-.3 0-.581-.117-.793-.328l-2.379-2.379-1.414 1.414 2.379 2.379c.211.212.328.493.328.793 0 .618-.503 1.121-1.121 1.121-.3 0-.581-.117-.793-.328l-.334-.334c.161-.38.248-.791.248-1.217 0-1.684-1.342-3.051-3.011-3.11-.058-1.632-1.368-2.942-3-3-.058-1.632-1.368-2.942-3-3-.059-1.669-1.427-3.011-3.11-3.011-.673 0-1.307.22-1.838.611-1.314-1.394-2.041-3.202-2.041-5.126 0-4.127 3.358-7.485 7.485-7.485 1.908 0 3.702.716 5.091 2.009l-4.87 4.87c-.455.455-.706 1.062-.706 1.707 0 1.331 1.083 2.414 2.414 2.414h3.757c.801 0 1.555-.312 2.122-.879l1.121-1.121h.757c.999 0 1.967-.191 2.869-.546l6.632 6.632c.211.212.328.493.328.793 0 .618-.503 1.121-1.121 1.121zm.571-4.964-4.598-4.598c.298-.224.587-.462.856-.73l-1.414-1.414c-1.102 1.1-2.565 1.706-4.123 1.706h-1.585l-1.707 1.707c-.189.189-.441.293-.708.293h-3.757c-.228 0-.414-.186-.414-.414 0-.109.044-.216.121-.293l6.101-6.101c1.414-1.413 3.293-2.192 5.293-2.192 4.127 0 7.485 3.358 7.485 7.485 0 1.669-.549 3.25-1.55 4.551zm11.55-5.036c-.551 0-1-.449-1-1s.449-1 1-1 1 .449 1 1-.449 1-1 1zm-17-19h22v4h-22z"/><path d="m55 46h2v2h-2z"/><path d="m55 50h2v2h-2z"/><path d="m55 54h2v2h-2z"/><path d="m51 54h2v2h-2z"/><path d="m47 54h2v2h-2z"/><path d="m7 46h2v2h-2z"/><path d="m7 50h2v2h-2z"/><path d="m7 54h2v2h-2z"/><path d="m11 54h2v2h-2z"/><path d="m15 54h2v2h-2z"/></svg>