<svg width="40" height="40" viewBox="0 0 40 40" fill="none" xmlns="http://www.w3.org/2000/svg">
<path d="M28.1549 14.3478C28.1093 14.0897 27.8632 13.9173 27.6048 13.9627L25.8998 14.2632C25.6951 13.7829 25.4336 13.333 25.1234 12.9214L26.2373 11.5942C26.3182 11.4977 26.3574 11.3731 26.3467 11.2476C26.3356 11.122 26.2752 11.0062 26.1787 10.9251L24.6874 9.67369C24.591 9.59279 24.4661 9.55349 24.3406 9.56439C24.2152 9.57529 24.0993 9.63579 24.0182 9.73219L22.9052 11.0587C22.4486 10.8261 21.9602 10.6464 21.4482 10.5281V8.79688C21.4482 8.53448 21.2357 8.32178 20.9734 8.32178H19.0268C18.7646 8.32178 18.552 8.53448 18.552 8.79688V10.5281C18.0398 10.6464 17.5516 10.826 17.0947 11.0587L15.9819 9.73219C15.8131 9.53139 15.5137 9.50509 15.3129 9.67379L13.8216 10.9251C13.725 11.0062 13.6648 11.122 13.6536 11.2476C13.6429 11.3731 13.682 11.4977 13.763 11.5942L14.8768 12.9214C14.5666 13.333 14.3052 13.7831 14.1005 14.2632L12.3955 13.9627C12.1376 13.9173 11.891 14.0897 11.8454 14.3478L11.5073 16.2651C11.4855 16.3891 11.5137 16.517 11.5861 16.62C11.6583 16.7232 11.7684 16.7933 11.8925 16.8151L13.5988 17.1162C13.6265 17.6446 13.7185 18.156 13.8668 18.6431L12.3674 19.5088C12.2582 19.5719 12.1788 19.6753 12.1461 19.797C12.1136 19.9189 12.1307 20.0484 12.1936 20.1574L13.1669 21.8434C13.2299 21.9526 13.3336 22.032 13.4554 22.0646C13.4957 22.0755 13.537 22.0809 13.5783 22.0809C13.6609 22.0809 13.7428 22.0593 13.8156 22.0171L15.3165 21.1507C15.6698 21.5283 16.0683 21.8634 16.5033 22.1474L15.9107 23.7751C15.8677 23.8935 15.8732 24.024 15.9265 24.1382C15.9798 24.2524 16.0761 24.3404 16.1945 24.3837L18.024 25.0495C18.0764 25.0685 18.1315 25.0781 18.1865 25.0781C18.2551 25.0781 18.3236 25.0632 18.387 25.0337C18.5012 24.9805 18.5895 24.8841 18.6326 24.7656L19.2251 23.1378C19.4791 23.1685 19.7378 23.1847 20.0001 23.1847C20.2624 23.1847 20.5211 23.1685 20.7751 23.1378L21.3677 24.7656C21.4109 24.8841 21.499 24.9802 21.6132 25.0337C21.6768 25.0632 21.745 25.0781 21.8139 25.0781C21.8688 25.0781 21.924 25.0684 21.9762 25.0495L23.8057 24.3837C23.9242 24.3404 24.0203 24.2524 24.0738 24.138C24.127 24.0238 24.1326 23.8935 24.0895 23.7751L23.4968 22.1474C23.932 21.8634 24.3303 21.5286 24.6836 21.1507L26.1845 22.0171C26.2574 22.0593 26.3392 22.0808 26.4218 22.0808C26.463 22.0808 26.5044 22.0755 26.5447 22.0646C26.6665 22.032 26.77 21.9526 26.8331 21.8434L27.8063 20.1574C27.8694 20.0485 27.8865 19.9189 27.854 19.797C27.8213 19.6753 27.7417 19.5717 27.6327 19.5088L26.1333 18.6431C26.2813 18.156 26.3735 17.6447 26.4013 17.1162L28.1076 16.8151C28.2317 16.7933 28.3417 16.7232 28.4138 16.62C28.4864 16.5169 28.5144 16.3891 28.4926 16.2651L28.1549 14.3478ZM20.0002 19.3118C18.5578 19.3118 17.3885 18.1426 17.3885 16.7001C17.3885 15.2577 18.5578 14.0885 20.0002 14.0885C21.4426 14.0885 22.6119 15.2577 22.6119 16.7001C22.6119 18.1426 21.4426 19.3118 20.0002 19.3118Z" fill="#CC04ED"/>
<path d="M36.6687 2.49707H3.33163C1.49451 2.49707 0 3.99168 0 5.82879V27.5562C0 29.3933 1.49451 30.8879 3.33163 30.8879H14.0729L12.0342 35.3834C11.8237 35.8477 11.8633 36.3871 12.1395 36.8155C12.4157 37.244 12.8905 37.5028 13.4002 37.5028H26.5999C26.5999 37.5028 26.6013 37.5028 26.6019 37.5028C27.4304 37.5028 28.1019 36.8313 28.1019 36.0028C28.1019 35.7535 28.0414 35.518 27.9333 35.3112L25.9271 30.8879H36.6684C38.5055 30.8879 40 29.3933 40 27.5562V5.82879C40.0003 3.99168 38.5058 2.49707 36.6687 2.49707ZM37.0003 27.5563C37.0003 27.7392 36.8515 27.8879 36.6687 27.8879H3.33163C3.14882 27.8879 3.00002 27.7392 3.00002 27.5563V5.82879C3.00002 5.64589 3.14882 5.49709 3.33163 5.49709H36.6686C36.8514 5.49709 37.0002 5.64589 37.0002 5.82879L37.0003 27.5563Z" fill="#CC04ED"/>
</svg>
