<svg width="40" height="40" viewBox="0 0 40 40" fill="none" xmlns="http://www.w3.org/2000/svg">
<path d="M37.3685 18.8652C36.3691 13.9943 33.3598 9.84228 29.2507 7.3186H33.202C33.7191 8.59189 34.9688 9.49251 36.4256 9.49251C38.3435 9.49251 39.9039 7.9322 39.9039 6.01423C39.9039 4.09634 38.3436 2.53595 36.4256 2.53595C34.9688 2.53595 33.7192 3.43657 33.202 4.70985H23.5745V2.4397H16.4255V4.70993H6.79812C6.28102 3.43665 5.03133 2.53603 3.57453 2.53603C1.65664 2.53603 0.09625 4.09634 0.09625 6.01431C0.09625 7.9322 1.65656 9.49259 3.57453 9.49259C5.03133 9.49259 6.28094 8.59196 6.79812 7.31868H10.7495C6.64039 9.84235 3.63109 13.9944 2.63172 18.8653H0V26.0144H7.14906V18.8653H5.30453C6.63305 13.3943 10.9545 9.0729 16.4255 7.74423V9.58884H23.5745V7.74431C29.0455 9.07282 33.367 13.3943 34.6955 18.8654H32.8509V26.0145H40V18.8653H37.3685V18.8652Z" fill="#F90000"/>
<path d="M21.3044 15.2408V22.3204C22.1491 22.7825 22.7221 23.6791 22.7221 24.7098C22.7221 26.2131 21.5034 27.4319 20 27.4319C18.4968 27.4319 17.278 26.2132 17.278 24.7098C17.278 23.6791 17.851 22.7823 18.6957 22.3204V15.2408L10.5244 26.313L13.2844 31.4219H26.7157L29.4757 26.313L21.3044 15.2408Z" fill="#F90000"/>
<path d="M26.2698 34.0306H13.7301L12.2961 37.5603H20H27.7038L26.2698 34.0306Z" fill="#F90000"/>
</svg>
