<svg width="40" height="40" viewBox="0 0 40 40" fill="none" xmlns="http://www.w3.org/2000/svg">
<path d="M26.9468 33.5643C26.7395 33.4382 26.5589 33.2691 26.4154 33.0642C26.3491 32.9697 26.2931 32.8698 26.2467 32.7665H2.69397V9.55168H34.6634V24.7102C35.3459 24.7718 35.9186 25.2201 36.159 25.8339C36.3719 25.7172 36.6092 25.6451 36.8585 25.6231C37.0272 25.6084 37.1948 25.6189 37.3573 25.651V3.76835C37.3573 2.53043 36.3504 1.52332 35.1125 1.52332H2.24494C1.00712 1.52332 0 2.53043 0 3.76835V33.2157C0 34.4536 1.00712 35.4606 2.24494 35.4606H26.7422C26.551 35.0735 26.5057 34.6365 26.6182 34.216C26.6831 33.9742 26.7953 33.7536 26.9468 33.5643ZM32.1981 5.29317C32.1981 4.83538 32.5693 4.46418 33.027 4.46418H33.8559C34.3138 4.46418 34.6848 4.83529 34.6848 5.29317V6.23266C34.6848 6.69045 34.3137 7.06156 33.8559 7.06156H33.027C32.5692 7.06156 32.1981 6.69045 32.1981 6.23266V5.29317ZM28.3437 5.29317C28.3437 4.83538 28.7148 4.46418 29.1726 4.46418H30.0016C30.4595 4.46418 30.8305 4.83529 30.8305 5.29317V6.23266C30.8305 6.69045 30.4594 7.06156 30.0016 7.06156H29.1726C28.7148 7.06156 28.3437 6.69045 28.3437 6.23266V5.29317ZM24.4892 5.29317C24.4892 4.83538 24.8604 4.46418 25.3181 4.46418H26.147C26.6048 4.46418 26.976 4.83529 26.976 5.29317V6.23266C26.976 6.69045 26.6048 7.06156 26.147 7.06156H25.3181C24.8604 7.06156 24.4892 6.69045 24.4892 6.23266V5.29317Z" fill="#009BF2"/>
<path d="M39.9946 31.9834L39.7455 30.5708C39.7119 30.3806 39.5306 30.2535 39.3402 30.287L38.084 30.5084C37.9332 30.1545 37.7406 29.823 37.512 29.5196L38.3325 28.5416C38.3922 28.4707 38.4212 28.3788 38.4132 28.2863C38.405 28.1938 38.3604 28.1085 38.2894 28.0487L37.1907 27.1267C37.1197 27.0671 37.0276 27.0381 36.9352 27.0462C36.8427 27.0543 36.7573 27.0988 36.6977 27.1698L35.8779 28.1471C35.5414 27.9757 35.1814 27.8435 34.8043 27.7562V26.4806C34.8043 26.2874 34.6476 26.1306 34.4545 26.1306H33.0199C32.8269 26.1306 32.6701 26.2874 32.6701 26.4806V27.7562C32.2928 27.8434 31.9332 27.9757 31.5965 28.1471L30.7765 27.1699C30.6523 27.0219 30.4317 27.0027 30.2836 27.1268L29.1848 28.0487C29.1138 28.1085 29.0693 28.1938 29.0611 28.2863C29.0531 28.3788 29.0821 28.4708 29.1417 28.5419L29.9623 29.5197C29.7341 29.823 29.5411 30.1547 29.3903 30.5085L28.1341 30.287C27.9442 30.2536 27.7625 30.3806 27.7288 30.5708L27.4798 31.9834C27.4637 32.0747 27.4846 32.1687 27.5376 32.2448C27.5911 32.3209 27.6719 32.3726 27.7634 32.3887L29.0205 32.6103C29.041 32.9997 29.1088 33.3766 29.218 33.7354L28.113 34.3731C28.0327 34.4193 27.9741 34.4959 27.95 34.5854C27.926 34.6751 27.9386 34.7705 27.9849 34.8509L28.7021 36.0931C28.7483 36.1735 28.8249 36.2321 28.9144 36.2561C28.9442 36.2641 28.9746 36.268 29.005 36.268C29.0659 36.268 29.1262 36.2522 29.1799 36.2211L30.2857 35.5826C30.5457 35.8613 30.8393 36.1082 31.1601 36.317L30.7235 37.5165C30.6918 37.6037 30.6959 37.6999 30.7352 37.7841C30.7744 37.8682 30.8454 37.9332 30.9326 37.9648L32.2802 38.4553C32.3189 38.4694 32.3595 38.4766 32.3999 38.4766C32.4504 38.4766 32.5012 38.4657 32.548 38.4438C32.6321 38.4046 32.6969 38.3336 32.7287 38.2463L33.1652 37.0468C33.3524 37.0695 33.5429 37.0812 33.7362 37.0812C33.9294 37.0812 34.1199 37.0693 34.3071 37.0468L34.7438 38.2463C34.7754 38.3336 34.8405 38.4046 34.9244 38.4438C34.9711 38.4656 35.0217 38.4766 35.0725 38.4766C35.1129 38.4766 35.1534 38.4696 35.1921 38.4553L36.54 37.9648C36.6269 37.9332 36.698 37.868 36.7371 37.7841C36.7764 37.6999 36.7806 37.6037 36.7488 37.5165L36.3122 36.3171C36.6327 36.1083 36.9263 35.8613 37.1866 35.5828L38.2924 36.2213C38.3461 36.2522 38.4065 36.2682 38.4673 36.2682C38.4976 36.2682 38.5283 36.2641 38.5579 36.2563C38.6475 36.2323 38.7239 36.1735 38.7702 36.0933L39.4874 34.8509C39.5337 34.7707 39.5464 34.6751 39.5223 34.5854C39.4982 34.4961 39.4397 34.4195 39.3593 34.3731L38.2545 33.7356C38.3637 33.3767 38.4313 32.9998 38.4518 32.6104L39.709 32.3888C39.8004 32.3727 39.8816 32.321 39.9347 32.2449C39.9899 32.1687 40.0107 32.0747 39.9946 31.9834ZM33.7373 34.2281C32.6747 34.2281 31.8132 33.3666 31.8132 32.3039C31.8132 31.2413 32.6748 30.3798 33.7373 30.3798C34.8 30.3798 35.6615 31.2413 35.6615 32.3039C35.6615 33.3666 34.8 34.2281 33.7373 34.2281Z" fill="#009BF2"/>
<path d="M15.6878 22.4202C15.6878 21.9675 15.4225 21.5517 15.0119 21.361L11.2537 19.6148L15.012 17.8685C15.4225 17.6776 15.6878 17.2619 15.6878 16.8094V16.779C15.6878 16.378 15.486 16.0099 15.1482 15.7947C14.9613 15.6753 14.7437 15.6122 14.519 15.6122C14.3496 15.6122 14.1796 15.6494 14.0275 15.7201L8.01904 18.5142C7.6086 18.7051 7.34351 19.1208 7.34351 19.5731V19.6567C7.34351 20.1084 7.6085 20.5238 8.01914 20.7157L14.0281 23.5101C14.1835 23.582 14.3489 23.6185 14.5198 23.6185C14.7425 23.6185 14.9595 23.5552 15.1482 23.4352C15.4862 23.2191 15.6879 22.8513 15.6879 22.4507L15.6878 22.4202Z" fill="#009BF2"/>
<path d="M21.6161 12.7651C21.3969 12.4651 21.0444 12.286 20.673 12.286H20.6431C20.1331 12.286 19.686 12.6123 19.5306 13.0972L15.5719 25.3632C15.4592 25.7174 15.5226 26.1074 15.7415 26.4074C15.9607 26.7072 16.3132 26.8864 16.6846 26.8864H16.7146C17.2244 26.8864 17.6713 26.5601 17.8264 26.0752L21.7847 13.8102C21.8984 13.4563 21.8354 13.0657 21.6161 12.7651Z" fill="#009BF2"/>
<path d="M29.3383 18.5141L23.3298 15.72C23.1781 15.6496 23.0084 15.6123 22.839 15.6123C22.6144 15.6123 22.3967 15.6753 22.2099 15.7944C21.8715 16.01 21.6697 16.3781 21.6697 16.7791V16.8095C21.6697 17.2615 21.9348 17.6773 22.3457 17.869L26.1038 19.615L22.3456 21.3611C21.935 21.5518 21.6697 21.9675 21.6697 22.4202V22.4508C21.6697 22.8513 21.8715 23.2191 22.2097 23.4353C22.3977 23.5551 22.6149 23.6185 22.8379 23.6185C23.0086 23.6185 23.1738 23.582 23.3302 23.5098L29.339 20.7154C29.7493 20.5241 30.0142 20.1086 30.0142 19.6568V19.5732C30.0139 19.1208 29.7488 18.7051 29.3383 18.5141Z" fill="#009BF2"/>
</svg>
