<svg id="PRogressive" xmlns="http://www.w3.org/2000/svg" width="37.654" height="36.668" viewBox="0 0 37.654 36.668">
  <path id="Path_1785" data-name="Path 1785" d="M2021.679,1135.873a15.025,15.025,0,0,1-1.177-1.879,1.645,1.645,0,0,0-2.239-.688,1.684,1.684,0,0,0-.679,2.266,18.416,18.416,0,0,0,1.44,2.3,1.641,1.641,0,0,0,2.315.345A1.688,1.688,0,0,0,2021.679,1135.873Z" transform="translate(-2014.025 -1108.581)" fill="#0092ff"/>
  <path id="Path_1786" data-name="Path 1786" d="M2031.292,1145.808a14.813,14.813,0,0,1-1.814-1.209,1.642,1.642,0,0,0-2.321.3,1.687,1.687,0,0,0,.3,2.347,18.024,18.024,0,0,0,2.222,1.481,1.633,1.633,0,0,0,.8.212,1.65,1.65,0,0,0,1.447-.859A1.684,1.684,0,0,0,2031.292,1145.808Z" transform="translate(-2018.995 -1114.395)" fill="#0092ff"/>
  <path id="Path_1787" data-name="Path 1787" d="M2046.422,1092.87a18.094,18.094,0,0,0-9.966-9.753,17.8,17.8,0,0,0-13.863.233,18.038,18.038,0,0,0-7.938,6.751l-1.2-2.9a1.649,1.649,0,0,0-2.165-.9,1.681,1.681,0,0,0-.889,2.19l2.563,6.2c.005.012.013.024.018.036.014.031.03.06.045.09a1.617,1.617,0,0,0,.1.164c.019.027.037.055.057.081a1.632,1.632,0,0,0,.137.158c.017.017.032.036.05.052a1.708,1.708,0,0,0,.218.173c.018.012.038.021.056.032a1.589,1.589,0,0,0,.19.1c.03.013.061.025.092.036a1.772,1.772,0,0,0,.186.056c.031.007.061.015.092.021a1.7,1.7,0,0,0,.282.028h.1l6.158-.34a1.674,1.674,0,0,0-.18-3.343l-3.31.183a14.745,14.745,0,0,1,6.66-5.8,14.553,14.553,0,0,1,11.331-.19,14.79,14.79,0,0,1,8.145,7.972,15.044,15.044,0,0,1,.188,11.464,14.818,14.818,0,0,1-17.259,9.059,1.654,1.654,0,0,0-2,1.23,1.675,1.675,0,0,0,1.215,2.023,17.65,17.65,0,0,0,4.24.516,18.209,18.209,0,0,0,16.881-11.6A18.406,18.406,0,0,0,2046.422,1092.87Z" transform="translate(-2010.274 -1081.826)" fill="#0092ff"/>
</svg>
