<svg id="Re_Engaging" data-name="Re Engaging" xmlns="http://www.w3.org/2000/svg" width="30.857" height="45.815" viewBox="0 0 30.857 45.815">
  <path id="Path_1674" data-name="Path 1674" d="M472.619,933.923a11.055,11.055,0,1,1,11.052,11.344,1.668,1.668,0,0,0-1.56,1.111,1.739,1.739,0,0,0,.467,1.888l5.625,5.021a1.636,1.636,0,0,0,2.349-.168,1.741,1.741,0,0,0-.164-2.411l-2.867-2.559a14.71,14.71,0,1,0-18.232-14.225,1.666,1.666,0,1,0,3.33,0Z" transform="translate(-469.289 -919.161)" fill="#ffc603"/>
  <path id="Path_1675" data-name="Path 1675" d="M500.786,960.435a1.687,1.687,0,0,0-1.665,1.709A11.056,11.056,0,1,1,488.07,950.8a1.664,1.664,0,0,0,1.518-1.008,1.745,1.745,0,0,0-.272-1.835l-4.229-4.9a1.635,1.635,0,0,0-2.351-.146,1.741,1.741,0,0,0-.142,2.413l2.125,2.462a14.718,14.718,0,1,0,17.732,14.358A1.688,1.688,0,0,0,500.786,960.435Z" transform="translate(-471.595 -931.093)" fill="#ffc603"/>
</svg>
