<svg id="Responsive" xmlns="http://www.w3.org/2000/svg" width="41" height="41" viewBox="0 0 41 41">
  <path id="Path_1904" data-name="Path 1904" d="M28.6,53.645a1.133,1.133,0,0,0,.044.124,1.245,1.245,0,0,0,.088.175l.067.117a1.748,1.748,0,0,0,.453.462.764.764,0,0,0,.127.075l.06.033c.04.022.082.044.127.064l.062.024c.039.013.085.026.1.03a.964.964,0,0,0,.151.043,1.6,1.6,0,0,0,.358.038h4.968a1.739,1.739,0,0,0,0-3.477h-.77L51.352,34.437v.77a1.739,1.739,0,0,0,3.477,0V30.238a1.476,1.476,0,0,0-.043-.366,1.065,1.065,0,0,0-.039-.138,1.109,1.109,0,0,0-.059-.177,1.721,1.721,0,0,0-.088-.17l-.067-.119a1.82,1.82,0,0,0-.51-.5c-.029-.017-.058-.032-.074-.039l-.08-.041a1.175,1.175,0,0,0-.108-.053l-.154-.051a1.115,1.115,0,0,0-.177-.05,1.6,1.6,0,0,0-.342-.034H48.123a1.739,1.739,0,0,0,0,3.477h.77L31.977,48.893v-.77a1.739,1.739,0,1,0-3.477,0v4.968a1.6,1.6,0,0,0,.035.342A.958.958,0,0,0,28.6,53.645Z" transform="translate(-21.165 -21.165)" fill="#ffc603"/>
  <path id="Path_1905" data-name="Path 1905" d="M39.43,3.5H8.57A5.076,5.076,0,0,0,3.5,8.57V39.43A5.076,5.076,0,0,0,8.57,44.5H39.43a5.076,5.076,0,0,0,5.07-5.07V8.57A5.076,5.076,0,0,0,39.43,3.5Zm0,37.914H8.57A1.986,1.986,0,0,1,6.586,39.43V8.57A1.986,1.986,0,0,1,8.57,6.586H39.43A1.986,1.986,0,0,1,41.414,8.57V39.43A1.986,1.986,0,0,1,39.43,41.414Z" transform="translate(-3.5 -3.5)" fill="#ffc603"/>
</svg>
