<svg id="User_friendly" data-name="User friendly" xmlns="http://www.w3.org/2000/svg" width="39.701" height="43.246" viewBox="0 0 39.701 43.246">
  <path id="Path_1670" data-name="Path 1670" d="M360.923,937.947a8.7,8.7,0,0,0-1.765-1.438,8.007,8.007,0,1,0-10-.045,8.5,8.5,0,0,0-1.648,1.326c-3.673,3.816-3.425,10.385-3.412,10.663a1.552,1.552,0,0,0,1.547,1.487h17.065a1.552,1.552,0,0,0,1.547-1.482C364.267,948.186,364.527,941.789,360.923,937.947Zm-6.737-12.669a4.934,4.934,0,1,1-4.91,4.934A4.928,4.928,0,0,1,354.186,925.278Zm-6.952,21.548c.138-1.839.651-4.959,2.506-6.879a5.753,5.753,0,0,1,4.428-1.688,5.929,5.929,0,0,1,4.493,1.816c1.813,1.926,2.319,4.954,2.455,6.752Z" transform="translate(-324.562 -919.824)" fill="#fc7754"/>
  <path id="Path_1671" data-name="Path 1671" d="M317.431,960.818a8.239,8.239,0,1,0-10.164-.045,8.711,8.711,0,0,0-1.767,1.406c-3.789,3.936-3.533,10.717-3.52,11a1.553,1.553,0,0,0,1.548,1.487h17.677a1.552,1.552,0,0,0,1.547-1.482c.013-.279.281-6.883-3.436-10.846A8.948,8.948,0,0,0,317.431,960.818Zm-5.052-11.694a5.167,5.167,0,1,1-5.142,5.167A5.16,5.16,0,0,1,312.379,949.124Zm-7.269,22.433c.154-2.089.775-5.3,2.617-7.214a5.97,5.97,0,0,1,4.634-1.773,6.192,6.192,0,0,1,4.694,1.9c1.909,2.029,2.428,5.226,2.562,7.088Z" transform="translate(-301.973 -933.065)" fill="#fc7754"/>
  <path id="Path_1672" data-name="Path 1672" d="M317.689,920.389H320.5v2.819a1.549,1.549,0,1,0,3.1,0v-2.819H326.4a1.557,1.557,0,0,0,0-3.113h-2.806v-2.819a1.549,1.549,0,1,0-3.1,0v2.819h-2.806a1.557,1.557,0,0,0,0,3.113Z" transform="translate(-307.214 -912.9)" fill="#fc7754"/>
  <path id="Path_1673" data-name="Path 1673" d="M366.258,995.841h-2.806v-2.819a1.549,1.549,0,1,0-3.1,0v2.819h-2.806a1.556,1.556,0,0,0,0,3.113h2.806v2.82a1.549,1.549,0,1,0,3.1,0v-2.82h2.806a1.556,1.556,0,0,0,0-3.113Z" transform="translate(-333.415 -960.084)" fill="#fc7754"/>
</svg>
